%TF.GenerationSoftware,KiCad,Pcbnew,10.0.0*%
%TF.CreationDate,2026-03-23T17:27:58+01:00*%
%TF.ProjectId,summe,73756d6d-652e-46b6-9963-61645f706362,R01*%
%TF.SameCoordinates,Original*%
%TF.FileFunction,Copper,L2,Bot*%
%TF.FilePolarity,Positive*%
%FSLAX46Y46*%
G04 Gerber Fmt 4.6, Leading zero omitted, Abs format (unit mm)*
G04 Created by KiCad (PCBNEW 10.0.0) date 2026-03-23 17:27:58*
%MOMM*%
%LPD*%
G01*
G04 APERTURE LIST*
G04 Aperture macros list*
%AMRoundRect*
0 Rectangle with rounded corners*
0 $1 Rounding radius*
0 $2 $3 $4 $5 $6 $7 $8 $9 X,Y pos of 4 corners*
0 Add a 4 corners polygon primitive as box body*
4,1,4,$2,$3,$4,$5,$6,$7,$8,$9,$2,$3,0*
0 Add four circle primitives for the rounded corners*
1,1,$1+$1,$2,$3*
1,1,$1+$1,$4,$5*
1,1,$1+$1,$6,$7*
1,1,$1+$1,$8,$9*
0 Add four rect primitives between the rounded corners*
20,1,$1+$1,$2,$3,$4,$5,0*
20,1,$1+$1,$4,$5,$6,$7,0*
20,1,$1+$1,$6,$7,$8,$9,0*
20,1,$1+$1,$8,$9,$2,$3,0*%
G04 Aperture macros list end*
%TA.AperFunction,ComponentPad*%
%ADD10R,1.830000X1.930000*%
%TD*%
%TA.AperFunction,ComponentPad*%
%ADD11C,2.130000*%
%TD*%
%TA.AperFunction,ComponentPad*%
%ADD12R,1.930000X1.830000*%
%TD*%
%TA.AperFunction,ComponentPad*%
%ADD13O,2.720000X3.240000*%
%TD*%
%TA.AperFunction,ComponentPad*%
%ADD14R,1.800000X1.800000*%
%TD*%
%TA.AperFunction,ComponentPad*%
%ADD15C,1.800000*%
%TD*%
%TA.AperFunction,ComponentPad*%
%ADD16R,1.600000X1.600000*%
%TD*%
%TA.AperFunction,ComponentPad*%
%ADD17C,1.600000*%
%TD*%
%TA.AperFunction,ComponentPad*%
%ADD18RoundRect,0.250000X0.600000X-0.600000X0.600000X0.600000X-0.600000X0.600000X-0.600000X-0.600000X0*%
%TD*%
%TA.AperFunction,ComponentPad*%
%ADD19C,1.700000*%
%TD*%
%TA.AperFunction,ComponentPad*%
%ADD20C,1.400000*%
%TD*%
%TA.AperFunction,ComponentPad*%
%ADD21O,1.400000X1.400000*%
%TD*%
%TA.AperFunction,SMDPad,CuDef*%
%ADD22RoundRect,0.250000X-0.450000X0.350000X-0.450000X-0.350000X0.450000X-0.350000X0.450000X0.350000X0*%
%TD*%
%TA.AperFunction,SMDPad,CuDef*%
%ADD23RoundRect,0.250000X0.450000X-0.350000X0.450000X0.350000X-0.450000X0.350000X-0.450000X-0.350000X0*%
%TD*%
%TA.AperFunction,SMDPad,CuDef*%
%ADD24RoundRect,0.250000X0.350000X0.450000X-0.350000X0.450000X-0.350000X-0.450000X0.350000X-0.450000X0*%
%TD*%
%TA.AperFunction,SMDPad,CuDef*%
%ADD25RoundRect,0.250000X-0.350000X-0.450000X0.350000X-0.450000X0.350000X0.450000X-0.350000X0.450000X0*%
%TD*%
%TA.AperFunction,SMDPad,CuDef*%
%ADD26RoundRect,0.250000X0.475000X-0.337500X0.475000X0.337500X-0.475000X0.337500X-0.475000X-0.337500X0*%
%TD*%
%TA.AperFunction,SMDPad,CuDef*%
%ADD27RoundRect,0.250000X-0.475000X0.337500X-0.475000X-0.337500X0.475000X-0.337500X0.475000X0.337500X0*%
%TD*%
%TA.AperFunction,SMDPad,CuDef*%
%ADD28RoundRect,0.250000X0.337500X0.475000X-0.337500X0.475000X-0.337500X-0.475000X0.337500X-0.475000X0*%
%TD*%
%TA.AperFunction,SMDPad,CuDef*%
%ADD29RoundRect,0.150000X0.150000X-0.587500X0.150000X0.587500X-0.150000X0.587500X-0.150000X-0.587500X0*%
%TD*%
%TA.AperFunction,SMDPad,CuDef*%
%ADD30RoundRect,0.150000X-0.150000X0.825000X-0.150000X-0.825000X0.150000X-0.825000X0.150000X0.825000X0*%
%TD*%
%TA.AperFunction,SMDPad,CuDef*%
%ADD31RoundRect,0.150000X-0.825000X-0.150000X0.825000X-0.150000X0.825000X0.150000X-0.825000X0.150000X0*%
%TD*%
%TA.AperFunction,ViaPad*%
%ADD32C,0.800000*%
%TD*%
%TA.AperFunction,Conductor*%
%ADD33C,0.250000*%
%TD*%
%TA.AperFunction,Conductor*%
%ADD34C,0.381000*%
%TD*%
G04 APERTURE END LIST*
D10*
%TO.P,J2,S*%
%TO.N,GND*%
X67440000Y-60960000D03*
D11*
%TO.P,J2,T*%
%TO.N,Net-(J2-PadT)*%
X56040000Y-60960000D03*
%TO.P,J2,TN*%
%TO.N,/REF*%
X64340000Y-60960000D03*
%TD*%
D10*
%TO.P,J3,S*%
%TO.N,GND*%
X67440000Y-81280000D03*
D11*
%TO.P,J3,T*%
%TO.N,Net-(J3-PadT)*%
X56040000Y-81280000D03*
%TO.P,J3,TN*%
%TO.N,unconnected-(J3-PadTN)*%
X64340000Y-81280000D03*
%TD*%
D10*
%TO.P,J4,S*%
%TO.N,GND*%
X67440000Y-101600000D03*
D11*
%TO.P,J4,T*%
%TO.N,Net-(J4-PadT)*%
X56040000Y-101600000D03*
%TO.P,J4,TN*%
%TO.N,unconnected-(J4-PadTN)*%
X64340000Y-101600000D03*
%TD*%
D10*
%TO.P,J5,S*%
%TO.N,GND*%
X67440000Y-121920000D03*
D11*
%TO.P,J5,T*%
%TO.N,Net-(J5-PadT)*%
X56040000Y-121920000D03*
%TO.P,J5,TN*%
%TO.N,unconnected-(J5-PadTN)*%
X64340000Y-121920000D03*
%TD*%
D10*
%TO.P,J6,S*%
%TO.N,GND*%
X67440000Y-71120000D03*
D11*
%TO.P,J6,T*%
%TO.N,Net-(J6-PadT)*%
X56040000Y-71120000D03*
%TO.P,J6,TN*%
%TO.N,/MIX_1*%
X64340000Y-71120000D03*
%TD*%
D10*
%TO.P,J7,S*%
%TO.N,GND*%
X67440000Y-91440000D03*
D11*
%TO.P,J7,T*%
%TO.N,Net-(J7-PadT)*%
X56040000Y-91440000D03*
%TO.P,J7,TN*%
%TO.N,/MIX_2*%
X64340000Y-91440000D03*
%TD*%
D10*
%TO.P,J8,S*%
%TO.N,GND*%
X67440000Y-111760000D03*
D11*
%TO.P,J8,T*%
%TO.N,Net-(J8-PadT)*%
X56040000Y-111760000D03*
%TO.P,J8,TN*%
%TO.N,/MIX_3*%
X64340000Y-111760000D03*
%TD*%
D10*
%TO.P,J9,S*%
%TO.N,GND*%
X67440000Y-132080000D03*
D11*
%TO.P,J9,T*%
%TO.N,Net-(J9-PadT)*%
X56040000Y-132080000D03*
%TO.P,J9,TN*%
%TO.N,/MIX_4*%
X64340000Y-132080000D03*
%TD*%
D12*
%TO.P,J10,S*%
%TO.N,GND*%
X81280000Y-140840000D03*
D11*
%TO.P,J10,T*%
%TO.N,Net-(J10-PadT)*%
X81280000Y-152240000D03*
%TO.P,J10,TN*%
%TO.N,unconnected-(J10-PadTN)*%
X81280000Y-143940000D03*
%TD*%
D13*
%TO.P,RV1,*%
%TO.N,*%
X76440000Y-66040000D03*
X86040000Y-66040000D03*
D14*
%TO.P,RV1,1,1*%
%TO.N,GND*%
X78740000Y-73540000D03*
D15*
%TO.P,RV1,2,2*%
%TO.N,Net-(U2A-+)*%
X81240000Y-73540000D03*
%TO.P,RV1,3,3*%
%TO.N,Net-(J2-PadT)*%
X83740000Y-73540000D03*
%TD*%
D13*
%TO.P,RV2,*%
%TO.N,*%
X76440000Y-86360000D03*
X86040000Y-86360000D03*
D14*
%TO.P,RV2,1,1*%
%TO.N,GND*%
X78740000Y-93860000D03*
D15*
%TO.P,RV2,2,2*%
%TO.N,Net-(U3A-+)*%
X81240000Y-93860000D03*
%TO.P,RV2,3,3*%
%TO.N,Net-(J3-PadT)*%
X83740000Y-93860000D03*
%TD*%
D13*
%TO.P,RV3,*%
%TO.N,*%
X76440000Y-106680000D03*
X86040000Y-106680000D03*
D14*
%TO.P,RV3,1,1*%
%TO.N,GND*%
X78740000Y-114180000D03*
D15*
%TO.P,RV3,2,2*%
%TO.N,Net-(U4A-+)*%
X81240000Y-114180000D03*
%TO.P,RV3,3,3*%
%TO.N,Net-(J4-PadT)*%
X83740000Y-114180000D03*
%TD*%
D13*
%TO.P,RV4,*%
%TO.N,*%
X76440000Y-127000000D03*
X86040000Y-127000000D03*
D14*
%TO.P,RV4,1,1*%
%TO.N,GND*%
X78740000Y-134500000D03*
D15*
%TO.P,RV4,2,2*%
%TO.N,Net-(U5A-+)*%
X81240000Y-134500000D03*
%TO.P,RV4,3,3*%
%TO.N,Net-(J5-PadT)*%
X83740000Y-134500000D03*
%TD*%
D14*
%TO.P,D5,1,K*%
%TO.N,GND*%
X80010000Y-156210000D03*
D15*
%TO.P,D5,2,A*%
%TO.N,Net-(D5-A)*%
X82550000Y-156210000D03*
%TD*%
D14*
%TO.P,D1,1,K*%
%TO.N,GND*%
X70485000Y-66040000D03*
D15*
%TO.P,D1,2,A*%
%TO.N,Net-(D1-A)*%
X73025000Y-66040000D03*
%TD*%
D14*
%TO.P,D3,1,K*%
%TO.N,GND*%
X70485000Y-106680000D03*
D15*
%TO.P,D3,2,A*%
%TO.N,Net-(D3-A)*%
X73025000Y-106680000D03*
%TD*%
D14*
%TO.P,D2,1,K*%
%TO.N,GND*%
X70485000Y-86360000D03*
D15*
%TO.P,D2,2,A*%
%TO.N,Net-(D2-A)*%
X73025000Y-86360000D03*
%TD*%
D14*
%TO.P,D4,1,K*%
%TO.N,GND*%
X70485000Y-127000000D03*
D15*
%TO.P,D4,2,A*%
%TO.N,Net-(D4-A)*%
X73025000Y-127000000D03*
%TD*%
D16*
%TO.P,C1,1*%
%TO.N,+15V*%
X58801000Y-53975000D03*
D17*
%TO.P,C1,2*%
%TO.N,GND*%
X60801000Y-53975000D03*
%TD*%
D16*
%TO.P,C2,1*%
%TO.N,GND*%
X54864000Y-53848000D03*
D17*
%TO.P,C2,2*%
%TO.N,-15V*%
X52864000Y-53848000D03*
%TD*%
D18*
%TO.P,J1,1,Pin_1*%
%TO.N,VN*%
X85217000Y-57277000D03*
D19*
%TO.P,J1,2,Pin_2*%
X85217000Y-54737000D03*
%TO.P,J1,3,Pin_3*%
%TO.N,VP*%
X82677000Y-57277000D03*
%TO.P,J1,4,Pin_4*%
X82677000Y-54737000D03*
%TO.P,J1,5,Pin_5*%
%TO.N,GND*%
X80137000Y-57277000D03*
%TO.P,J1,6,Pin_6*%
X80137000Y-54737000D03*
%TO.P,J1,7,Pin_7*%
X77597000Y-57277000D03*
%TO.P,J1,8,Pin_8*%
X77597000Y-54737000D03*
%TO.P,J1,9,Pin_9*%
%TO.N,+5V*%
X75057000Y-57277000D03*
%TO.P,J1,10,Pin_10*%
X75057000Y-54737000D03*
%TD*%
D20*
%TO.P,R1,1*%
%TO.N,+15V*%
X65278000Y-54737000D03*
D21*
%TO.P,R1,2*%
%TO.N,VP*%
X67818000Y-54737000D03*
%TD*%
D20*
%TO.P,R2,1*%
%TO.N,-15V*%
X65278000Y-52324000D03*
D21*
%TO.P,R2,2*%
%TO.N,VN*%
X67818000Y-52324000D03*
%TD*%
D22*
%TO.P,R3,1*%
%TO.N,Net-(J2-PadT)*%
X87376000Y-77105000D03*
%TO.P,R3,2*%
%TO.N,Net-(U2A-+)*%
X87376000Y-79105000D03*
%TD*%
D23*
%TO.P,R4,1*%
%TO.N,Net-(U2A-+)*%
X84074000Y-79105000D03*
%TO.P,R4,2*%
%TO.N,GND*%
X84074000Y-77105000D03*
%TD*%
D22*
%TO.P,R5,1*%
%TO.N,Net-(J3-PadT)*%
X87376000Y-97395000D03*
%TO.P,R5,2*%
%TO.N,Net-(U3A-+)*%
X87376000Y-99395000D03*
%TD*%
D23*
%TO.P,R6,1*%
%TO.N,Net-(U3A-+)*%
X84074000Y-99395000D03*
%TO.P,R6,2*%
%TO.N,GND*%
X84074000Y-97395000D03*
%TD*%
D22*
%TO.P,R7,1*%
%TO.N,Net-(J4-PadT)*%
X87376000Y-117745000D03*
%TO.P,R7,2*%
%TO.N,Net-(U4A-+)*%
X87376000Y-119745000D03*
%TD*%
D23*
%TO.P,R8,1*%
%TO.N,Net-(U4A-+)*%
X84074000Y-119745000D03*
%TO.P,R8,2*%
%TO.N,GND*%
X84074000Y-117745000D03*
%TD*%
D22*
%TO.P,R9,1*%
%TO.N,Net-(J5-PadT)*%
X87376000Y-136765000D03*
%TO.P,R9,2*%
%TO.N,Net-(U5A-+)*%
X87376000Y-138765000D03*
%TD*%
D23*
%TO.P,R10,1*%
%TO.N,Net-(U5A-+)*%
X84074000Y-138765000D03*
%TO.P,R10,2*%
%TO.N,GND*%
X84074000Y-136765000D03*
%TD*%
%TO.P,R11,1*%
%TO.N,Net-(U2A--)*%
X76200000Y-74660000D03*
%TO.P,R11,2*%
%TO.N,Net-(J2-PadT)*%
X76200000Y-72660000D03*
%TD*%
D22*
%TO.P,R12,1*%
%TO.N,Net-(U3A--)*%
X76200000Y-92980000D03*
%TO.P,R12,2*%
%TO.N,Net-(J3-PadT)*%
X76200000Y-94980000D03*
%TD*%
%TO.P,R13,1*%
%TO.N,Net-(U4A--)*%
X75946000Y-113665000D03*
%TO.P,R13,2*%
%TO.N,Net-(J4-PadT)*%
X75946000Y-115665000D03*
%TD*%
%TO.P,R14,1*%
%TO.N,Net-(U5A--)*%
X76200000Y-132985000D03*
%TO.P,R14,2*%
%TO.N,Net-(J5-PadT)*%
X76200000Y-134985000D03*
%TD*%
D23*
%TO.P,R15,1*%
%TO.N,/IN_1*%
X73025000Y-74660000D03*
%TO.P,R15,2*%
%TO.N,Net-(U2A--)*%
X73025000Y-72660000D03*
%TD*%
%TO.P,R16,1*%
%TO.N,/IN_2*%
X73025000Y-94980000D03*
%TO.P,R16,2*%
%TO.N,Net-(U3A--)*%
X73025000Y-92980000D03*
%TD*%
%TO.P,R17,1*%
%TO.N,/IN_3*%
X73025000Y-115665000D03*
%TO.P,R17,2*%
%TO.N,Net-(U4A--)*%
X73025000Y-113665000D03*
%TD*%
%TO.P,R18,1*%
%TO.N,/IN_4*%
X73025000Y-134985000D03*
%TO.P,R18,2*%
%TO.N,Net-(U5A--)*%
X73025000Y-132985000D03*
%TD*%
%TO.P,R19,1*%
%TO.N,/IN_1*%
X70485000Y-77835000D03*
%TO.P,R19,2*%
%TO.N,Net-(J6-PadT)*%
X70485000Y-75835000D03*
%TD*%
%TO.P,R20,1*%
%TO.N,/IN_2*%
X70485000Y-98155000D03*
%TO.P,R20,2*%
%TO.N,Net-(J7-PadT)*%
X70485000Y-96155000D03*
%TD*%
%TO.P,R21,1*%
%TO.N,/IN_3*%
X70485000Y-118475000D03*
%TO.P,R21,2*%
%TO.N,Net-(J8-PadT)*%
X70485000Y-116475000D03*
%TD*%
%TO.P,R22,1*%
%TO.N,/IN_4*%
X70485000Y-138160000D03*
%TO.P,R22,2*%
%TO.N,Net-(J9-PadT)*%
X70485000Y-136160000D03*
%TD*%
D22*
%TO.P,R24,1*%
%TO.N,/MIX_1*%
X53975000Y-141337000D03*
%TO.P,R24,2*%
%TO.N,Net-(U7A--)*%
X53975000Y-143337000D03*
%TD*%
%TO.P,R25,1*%
%TO.N,/MIX_2*%
X57110800Y-141337000D03*
%TO.P,R25,2*%
%TO.N,Net-(U7A--)*%
X57110800Y-143337000D03*
%TD*%
%TO.P,R26,1*%
%TO.N,/MIX_3*%
X60246500Y-141337000D03*
%TO.P,R26,2*%
%TO.N,Net-(U7A--)*%
X60246500Y-143337000D03*
%TD*%
%TO.P,R27,1*%
%TO.N,/MIX_4*%
X63382200Y-141337000D03*
%TO.P,R27,2*%
%TO.N,Net-(U7A--)*%
X63382200Y-143337000D03*
%TD*%
%TO.P,R31,1*%
%TO.N,Net-(U7A--)*%
X57277000Y-147844000D03*
%TO.P,R31,2*%
%TO.N,Net-(C10-Pad1)*%
X57277000Y-149844000D03*
%TD*%
D24*
%TO.P,R33,1*%
%TO.N,Net-(C10-Pad1)*%
X70215000Y-146812000D03*
%TO.P,R33,2*%
%TO.N,Net-(U7B--)*%
X68215000Y-146812000D03*
%TD*%
D25*
%TO.P,R36,1*%
%TO.N,Net-(U7B--)*%
X68215000Y-150114000D03*
%TO.P,R36,2*%
%TO.N,/OUT*%
X70215000Y-150114000D03*
%TD*%
%TO.P,R39,1*%
%TO.N,/OUT*%
X76216000Y-152146000D03*
%TO.P,R39,2*%
%TO.N,Net-(J10-PadT)*%
X78216000Y-152146000D03*
%TD*%
D26*
%TO.P,C3,1*%
%TO.N,+15V*%
X70485000Y-102637500D03*
%TO.P,C3,2*%
%TO.N,GND*%
X70485000Y-100562500D03*
%TD*%
D27*
%TO.P,C4,1*%
%TO.N,GND*%
X80518000Y-97387500D03*
%TO.P,C4,2*%
%TO.N,-15V*%
X80518000Y-99462500D03*
%TD*%
D28*
%TO.P,C5,1*%
%TO.N,+15V*%
X65553500Y-152400000D03*
%TO.P,C5,2*%
%TO.N,GND*%
X63478500Y-152400000D03*
%TD*%
D27*
%TO.P,C6,1*%
%TO.N,GND*%
X66548000Y-141329500D03*
%TO.P,C6,2*%
%TO.N,-15V*%
X66548000Y-143404500D03*
%TD*%
D26*
%TO.P,C7,1*%
%TO.N,+15V*%
X70485000Y-142642500D03*
%TO.P,C7,2*%
%TO.N,GND*%
X70485000Y-140567500D03*
%TD*%
D27*
%TO.P,C8,1*%
%TO.N,GND*%
X80518000Y-136757500D03*
%TO.P,C8,2*%
%TO.N,-15V*%
X80518000Y-138832500D03*
%TD*%
D26*
%TO.P,C10,1*%
%TO.N,Net-(C10-Pad1)*%
X53975000Y-149881500D03*
%TO.P,C10,2*%
%TO.N,Net-(U7A--)*%
X53975000Y-147806500D03*
%TD*%
%TO.P,C11,1*%
%TO.N,+15V*%
X70485000Y-82317500D03*
%TO.P,C11,2*%
%TO.N,GND*%
X70485000Y-80242500D03*
%TD*%
D27*
%TO.P,C12,1*%
%TO.N,GND*%
X80518000Y-77097500D03*
%TO.P,C12,2*%
%TO.N,-15V*%
X80518000Y-79172500D03*
%TD*%
D28*
%TO.P,C13,1*%
%TO.N,+15V*%
X88667500Y-151511000D03*
%TO.P,C13,2*%
%TO.N,GND*%
X86592500Y-151511000D03*
%TD*%
%TO.P,C14,1*%
%TO.N,GND*%
X87143500Y-142240000D03*
%TO.P,C14,2*%
%TO.N,-15V*%
X85068500Y-142240000D03*
%TD*%
D26*
%TO.P,C15,1*%
%TO.N,+15V*%
X70485000Y-122957500D03*
%TO.P,C15,2*%
%TO.N,GND*%
X70485000Y-120882500D03*
%TD*%
D27*
%TO.P,C16,1*%
%TO.N,GND*%
X80518000Y-117737500D03*
%TO.P,C16,2*%
%TO.N,-15V*%
X80518000Y-119812500D03*
%TD*%
D24*
%TO.P,R23,1*%
%TO.N,/REF*%
X61198000Y-60960000D03*
%TO.P,R23,2*%
%TO.N,+15V*%
X59198000Y-60960000D03*
%TD*%
D25*
%TO.P,R28,1*%
%TO.N,Net-(D5-A)*%
X86630000Y-154686000D03*
%TO.P,R28,2*%
%TO.N,Net-(U6B--)*%
X88630000Y-154686000D03*
%TD*%
%TO.P,R29,1*%
%TO.N,Net-(D1-A)*%
X70755000Y-69850000D03*
%TO.P,R29,2*%
%TO.N,Net-(U2B--)*%
X72755000Y-69850000D03*
%TD*%
%TO.P,R30,1*%
%TO.N,Net-(D3-A)*%
X70755000Y-110490000D03*
%TO.P,R30,2*%
%TO.N,Net-(U4B--)*%
X72755000Y-110490000D03*
%TD*%
%TO.P,R32,1*%
%TO.N,Net-(D2-A)*%
X70755000Y-90170000D03*
%TO.P,R32,2*%
%TO.N,Net-(U3B--)*%
X72755000Y-90170000D03*
%TD*%
D24*
%TO.P,R34,1*%
%TO.N,Net-(D4-A)*%
X72755000Y-130810000D03*
%TO.P,R34,2*%
%TO.N,Net-(U5B--)*%
X70755000Y-130810000D03*
%TD*%
D29*
%TO.P,U1,1,K*%
%TO.N,/REF*%
X61148000Y-64945500D03*
%TO.P,U1,2,A*%
%TO.N,GND*%
X59248000Y-64945500D03*
%TO.P,U1,3*%
%TO.N,N/C*%
X60198000Y-63070500D03*
%TD*%
D30*
%TO.P,U2,1*%
%TO.N,/IN_1*%
X73660000Y-77535000D03*
%TO.P,U2,2,-*%
%TO.N,Net-(U2A--)*%
X74930000Y-77535000D03*
%TO.P,U2,3,+*%
%TO.N,Net-(U2A-+)*%
X76200000Y-77535000D03*
%TO.P,U2,4,V-*%
%TO.N,-15V*%
X77470000Y-77535000D03*
%TO.P,U2,5,+*%
%TO.N,/IN_1*%
X77470000Y-82485000D03*
%TO.P,U2,6,-*%
%TO.N,Net-(U2B--)*%
X76200000Y-82485000D03*
%TO.P,U2,7*%
X74930000Y-82485000D03*
%TO.P,U2,8,V+*%
%TO.N,+15V*%
X73660000Y-82485000D03*
%TD*%
%TO.P,U3,1*%
%TO.N,/IN_2*%
X73660000Y-97855000D03*
%TO.P,U3,2,-*%
%TO.N,Net-(U3A--)*%
X74930000Y-97855000D03*
%TO.P,U3,3,+*%
%TO.N,Net-(U3A-+)*%
X76200000Y-97855000D03*
%TO.P,U3,4,V-*%
%TO.N,-15V*%
X77470000Y-97855000D03*
%TO.P,U3,5,+*%
%TO.N,/IN_2*%
X77470000Y-102805000D03*
%TO.P,U3,6,-*%
%TO.N,Net-(U3B--)*%
X76200000Y-102805000D03*
%TO.P,U3,7*%
X74930000Y-102805000D03*
%TO.P,U3,8,V+*%
%TO.N,+15V*%
X73660000Y-102805000D03*
%TD*%
%TO.P,U4,1*%
%TO.N,/IN_3*%
X73660000Y-118175000D03*
%TO.P,U4,2,-*%
%TO.N,Net-(U4A--)*%
X74930000Y-118175000D03*
%TO.P,U4,3,+*%
%TO.N,Net-(U4A-+)*%
X76200000Y-118175000D03*
%TO.P,U4,4,V-*%
%TO.N,-15V*%
X77470000Y-118175000D03*
%TO.P,U4,5,+*%
%TO.N,/IN_3*%
X77470000Y-123125000D03*
%TO.P,U4,6,-*%
%TO.N,Net-(U4B--)*%
X76200000Y-123125000D03*
%TO.P,U4,7*%
X74930000Y-123125000D03*
%TO.P,U4,8,V+*%
%TO.N,+15V*%
X73660000Y-123125000D03*
%TD*%
%TO.P,U5,1*%
%TO.N,/IN_4*%
X73660000Y-137795000D03*
%TO.P,U5,2,-*%
%TO.N,Net-(U5A--)*%
X74930000Y-137795000D03*
%TO.P,U5,3,+*%
%TO.N,Net-(U5A-+)*%
X76200000Y-137795000D03*
%TO.P,U5,4,V-*%
%TO.N,-15V*%
X77470000Y-137795000D03*
%TO.P,U5,5,+*%
%TO.N,/IN_4*%
X77470000Y-142745000D03*
%TO.P,U5,6,-*%
%TO.N,Net-(U5B--)*%
X76200000Y-142745000D03*
%TO.P,U5,7*%
X74930000Y-142745000D03*
%TO.P,U5,8,V+*%
%TO.N,+15V*%
X73660000Y-142745000D03*
%TD*%
D31*
%TO.P,U6,1*%
%TO.N,Net-(U6A-+)*%
X83885000Y-149225000D03*
%TO.P,U6,2,-*%
%TO.N,GND*%
X83885000Y-147955000D03*
%TO.P,U6,3,+*%
%TO.N,Net-(U6A-+)*%
X83885000Y-146685000D03*
%TO.P,U6,4,V-*%
%TO.N,-15V*%
X83885000Y-145415000D03*
%TO.P,U6,5,+*%
%TO.N,/OUT*%
X88835000Y-145415000D03*
%TO.P,U6,6,-*%
%TO.N,Net-(U6B--)*%
X88835000Y-146685000D03*
%TO.P,U6,7*%
X88835000Y-147955000D03*
%TO.P,U6,8,V+*%
%TO.N,+15V*%
X88835000Y-149225000D03*
%TD*%
%TO.P,U7,1*%
%TO.N,Net-(C10-Pad1)*%
X60390000Y-150114000D03*
%TO.P,U7,2,-*%
%TO.N,Net-(U7A--)*%
X60390000Y-148844000D03*
%TO.P,U7,3,+*%
%TO.N,GND*%
X60390000Y-147574000D03*
%TO.P,U7,4,V-*%
%TO.N,-15V*%
X60390000Y-146304000D03*
%TO.P,U7,5,+*%
%TO.N,GND*%
X65340000Y-146304000D03*
%TO.P,U7,6,-*%
%TO.N,Net-(U7B--)*%
X65340000Y-147574000D03*
%TO.P,U7,7*%
%TO.N,/OUT*%
X65340000Y-148844000D03*
%TO.P,U7,8,V+*%
%TO.N,+15V*%
X65340000Y-150114000D03*
%TD*%
D28*
%TO.P,C9,1*%
%TO.N,/OUT*%
X70252500Y-153162000D03*
%TO.P,C9,2*%
%TO.N,Net-(U7B--)*%
X68177500Y-153162000D03*
%TD*%
D32*
%TO.N,GND*%
X82296000Y-76962000D03*
X84836000Y-151384000D03*
X82296000Y-136652000D03*
X82296000Y-117602000D03*
X89154000Y-142240000D03*
X82296000Y-97282000D03*
X85979000Y-147955000D03*
X66548000Y-145096000D03*
X68580000Y-140716000D03*
X58420000Y-146304000D03*
X61722000Y-152400000D03*
%TO.N,+15V*%
X72136000Y-80772000D03*
X65532000Y-153670000D03*
X87122000Y-157226000D03*
X70866000Y-143770020D03*
X72136000Y-101092000D03*
X70612000Y-124460000D03*
%TO.N,Net-(U2B--)*%
X71998840Y-78999080D03*
X71968360Y-73710800D03*
%TO.N,Net-(U4B--)*%
X72059800Y-119279800D03*
X72059800Y-111978440D03*
%TO.N,Net-(U3B--)*%
X71713145Y-93059040D03*
X72222360Y-99136200D03*
%TO.N,Net-(U5B--)*%
X70617080Y-132750560D03*
X72217280Y-139024360D03*
%TD*%
%TO.N,GND*%
D33*
X84963000Y-151511000D02*
X84836000Y-151384000D01*
X82190500Y-97387500D02*
X82296000Y-97282000D01*
X84074000Y-77105000D02*
X82439000Y-77105000D01*
X70336500Y-140716000D02*
X70485000Y-140567500D01*
X82160500Y-77097500D02*
X82296000Y-76962000D01*
X66884800Y-66008000D02*
X72186800Y-60706000D01*
X87143500Y-142240000D02*
X89154000Y-142240000D01*
X69447500Y-101600000D02*
X70485000Y-100562500D01*
X59248000Y-64945500D02*
X60310500Y-66008000D01*
X83885000Y-147955000D02*
X85979000Y-147955000D01*
X68580000Y-140716000D02*
X70336500Y-140716000D01*
X80518000Y-117737500D02*
X82160500Y-117737500D01*
X84074000Y-117745000D02*
X82439000Y-117745000D01*
X82439000Y-117745000D02*
X82296000Y-117602000D01*
X72186800Y-60706000D02*
X74168000Y-60706000D01*
X80518000Y-136757500D02*
X82190500Y-136757500D01*
X69447500Y-121920000D02*
X70485000Y-120882500D01*
X82409000Y-136765000D02*
X82296000Y-136652000D01*
X80518000Y-77097500D02*
X82160500Y-77097500D01*
X82439000Y-77105000D02*
X82296000Y-76962000D01*
X84074000Y-136765000D02*
X82409000Y-136765000D01*
X67440000Y-121920000D02*
X69447500Y-121920000D01*
X67966500Y-141329500D02*
X68580000Y-140716000D01*
X82190500Y-136757500D02*
X82296000Y-136652000D01*
X66548000Y-141329500D02*
X67966500Y-141329500D01*
X59690000Y-147574000D02*
X58420000Y-146304000D01*
X63478500Y-152400000D02*
X61722000Y-152400000D01*
X67440000Y-81280000D02*
X69447500Y-81280000D01*
X80518000Y-97387500D02*
X82190500Y-97387500D01*
X86592500Y-151511000D02*
X84963000Y-151511000D01*
X82409000Y-97395000D02*
X82296000Y-97282000D01*
X69447500Y-81280000D02*
X70485000Y-80242500D01*
X74168000Y-60706000D02*
X77597000Y-57277000D01*
X67440000Y-101600000D02*
X69447500Y-101600000D01*
X82160500Y-117737500D02*
X82296000Y-117602000D01*
X60310500Y-66008000D02*
X66884800Y-66008000D01*
X60390000Y-147574000D02*
X59690000Y-147574000D01*
X65340000Y-146304000D02*
X66548000Y-145096000D01*
X84074000Y-97395000D02*
X82409000Y-97395000D01*
%TO.N,+15V*%
X73660000Y-123125000D02*
X70652500Y-123125000D01*
X73660000Y-82485000D02*
X70652500Y-82485000D01*
X88835000Y-151343500D02*
X88667500Y-151511000D01*
X87704990Y-152473510D02*
X88667500Y-151511000D01*
X70866000Y-143770020D02*
X70866000Y-143023500D01*
X73660000Y-142745000D02*
X70587500Y-142745000D01*
D34*
X58801000Y-53975000D02*
X60262999Y-55436999D01*
D33*
X65532000Y-152421500D02*
X65553500Y-152400000D01*
X70652500Y-82485000D02*
X70485000Y-82317500D01*
X70612000Y-124460000D02*
X70612000Y-123084500D01*
X70652500Y-123125000D02*
X70485000Y-122957500D01*
X87704990Y-156643010D02*
X87704990Y-152473510D01*
X58801000Y-53975000D02*
X58801000Y-60563000D01*
X70590500Y-102637500D02*
X72136000Y-101092000D01*
X65553500Y-152400000D02*
X65553500Y-150327500D01*
X70587500Y-142745000D02*
X70485000Y-142642500D01*
X70590500Y-82317500D02*
X72136000Y-80772000D01*
D34*
X64578001Y-55436999D02*
X65278000Y-54737000D01*
D33*
X70652500Y-102805000D02*
X70485000Y-102637500D01*
X70612000Y-123084500D02*
X70485000Y-122957500D01*
X70866000Y-143023500D02*
X70485000Y-142642500D01*
X88835000Y-149225000D02*
X88835000Y-151343500D01*
X58801000Y-60563000D02*
X59198000Y-60960000D01*
X70485000Y-102637500D02*
X70590500Y-102637500D01*
X65532000Y-153670000D02*
X65532000Y-152421500D01*
X73660000Y-102805000D02*
X70652500Y-102805000D01*
X87122000Y-157226000D02*
X87704990Y-156643010D01*
X65553500Y-150327500D02*
X65340000Y-150114000D01*
X70485000Y-82317500D02*
X70590500Y-82317500D01*
D34*
X60262999Y-55436999D02*
X64578001Y-55436999D01*
%TO.N,-15V*%
D33*
X88401010Y-139353180D02*
X87842095Y-139912095D01*
X86106000Y-140716000D02*
X83621002Y-140716000D01*
X88401010Y-76190990D02*
X88401010Y-94243010D01*
X88401010Y-113274990D02*
X88401010Y-139353180D01*
X63648500Y-146304000D02*
X60390000Y-146304000D01*
X54380620Y-51200010D02*
X85998010Y-51200010D01*
X83885000Y-143423500D02*
X85068500Y-142240000D01*
X85998010Y-51200010D02*
X88401010Y-53603010D01*
X88401010Y-120333180D02*
X88064180Y-120670010D01*
X88401010Y-79693180D02*
X88401010Y-76190990D01*
X80518000Y-138832500D02*
X78507500Y-138832500D01*
X78880500Y-77535000D02*
X80518000Y-79172500D01*
X88064180Y-100320010D02*
X81375510Y-100320010D01*
X78507500Y-138832500D02*
X77470000Y-137795000D01*
X85068500Y-142240000D02*
X85514190Y-142240000D01*
X83621002Y-140716000D02*
X81737502Y-138832500D01*
X54380620Y-51200010D02*
X52864000Y-52716630D01*
X88064180Y-120670010D02*
X81375510Y-120670010D01*
X81375510Y-120670010D02*
X80518000Y-119812500D01*
X80518000Y-119812500D02*
X79107500Y-119812500D01*
X79781767Y-142080001D02*
X82644001Y-142080001D01*
X88401010Y-76190990D02*
X88401010Y-53603010D01*
X77366748Y-144495020D02*
X67638520Y-144495020D01*
X81375510Y-100320010D02*
X80518000Y-99462500D01*
X66548000Y-143404500D02*
X63648500Y-146304000D01*
X87038190Y-140716000D02*
X86106000Y-140716000D01*
X52864000Y-52716630D02*
X52864000Y-53848000D01*
X77470000Y-77535000D02*
X78880500Y-77535000D01*
X88401010Y-94243010D02*
X88401010Y-99983180D01*
X88401010Y-99983180D02*
X88064180Y-100320010D01*
X80518000Y-79172500D02*
X81375510Y-80030010D01*
X87842095Y-139912095D02*
X87038190Y-140716000D01*
X67638520Y-144495020D02*
X66548000Y-143404500D01*
X83885000Y-145415000D02*
X83885000Y-143423500D01*
X79781767Y-142080001D02*
X77366748Y-144495020D01*
X88401010Y-113274990D02*
X88401010Y-120333180D01*
X79107500Y-119812500D02*
X77470000Y-118175000D01*
X79077500Y-99462500D02*
X77470000Y-97855000D01*
X81737502Y-138832500D02*
X80518000Y-138832500D01*
X84008002Y-140716000D02*
X82644001Y-142080001D01*
X88401010Y-94243010D02*
X88401010Y-113274990D01*
X86106000Y-140716000D02*
X84008002Y-140716000D01*
X85514190Y-142240000D02*
X87842095Y-139912095D01*
X80518000Y-99462500D02*
X79077500Y-99462500D01*
X88064180Y-80030010D02*
X88401010Y-79693180D01*
X81375510Y-80030010D02*
X88064180Y-80030010D01*
%TO.N,Net-(U7B--)*%
X64039990Y-147899010D02*
X64039990Y-149190758D01*
X64365000Y-147574000D02*
X64039990Y-147899010D01*
X68215000Y-153124500D02*
X68177500Y-153162000D01*
X65340000Y-147574000D02*
X64365000Y-147574000D01*
X67570010Y-149469010D02*
X68215000Y-150114000D01*
X67453000Y-147574000D02*
X68215000Y-146812000D01*
X68215000Y-150114000D02*
X68215000Y-153124500D01*
X64039990Y-149190758D02*
X64318242Y-149469010D01*
X64318242Y-149469010D02*
X67570010Y-149469010D01*
X65340000Y-147574000D02*
X67453000Y-147574000D01*
%TO.N,Net-(U7A--)*%
X53975000Y-147806500D02*
X57239500Y-147806500D01*
X53975000Y-147806500D02*
X53975000Y-143337000D01*
X58277000Y-148844000D02*
X57277000Y-147844000D01*
X60390000Y-148844000D02*
X58277000Y-148844000D01*
X57239500Y-147806500D02*
X57277000Y-147844000D01*
X57110800Y-143337000D02*
X60246500Y-143337000D01*
X60246500Y-143337000D02*
X63382200Y-143337000D01*
X53975000Y-143337000D02*
X57110800Y-143337000D01*
%TO.N,/IN_1*%
X72090000Y-77835000D02*
X73025000Y-76900000D01*
X73025000Y-76900000D02*
X73660000Y-77535000D01*
X73660000Y-78298232D02*
X73660000Y-77535000D01*
X77470000Y-82485000D02*
X77470000Y-82108232D01*
X77470000Y-82108232D02*
X73660000Y-78298232D01*
X73025000Y-74660000D02*
X73025000Y-76900000D01*
X70485000Y-77835000D02*
X72090000Y-77835000D01*
%TO.N,/IN_2*%
X77470000Y-102041768D02*
X77470000Y-102805000D01*
X70485000Y-98155000D02*
X72090000Y-98155000D01*
X73660000Y-97855000D02*
X73660000Y-98231768D01*
X72090000Y-98155000D02*
X73025000Y-97220000D01*
X73025000Y-94980000D02*
X73025000Y-97220000D01*
X73660000Y-98231768D02*
X77470000Y-102041768D01*
X73025000Y-97220000D02*
X73660000Y-97855000D01*
%TO.N,/IN_3*%
X73660000Y-116300000D02*
X73025000Y-115665000D01*
X73660000Y-118175000D02*
X73660000Y-118938232D01*
X73660000Y-118175000D02*
X73660000Y-116300000D01*
X73660000Y-118938232D02*
X77470000Y-122748232D01*
X77470000Y-122748232D02*
X77470000Y-123125000D01*
X70485000Y-118475000D02*
X70485000Y-118205000D01*
X70485000Y-118205000D02*
X73025000Y-115665000D01*
%TO.N,/IN_4*%
X73025000Y-134985000D02*
X73025000Y-137160000D01*
X73660000Y-138558232D02*
X73660000Y-137795000D01*
X73295000Y-138160000D02*
X73660000Y-137795000D01*
X77470000Y-142745000D02*
X77470000Y-142368232D01*
X73025000Y-137160000D02*
X73660000Y-137795000D01*
X70485000Y-138160000D02*
X73295000Y-138160000D01*
X77470000Y-142368232D02*
X73660000Y-138558232D01*
%TO.N,/MIX_1*%
X53182700Y-72010900D02*
X53182700Y-140544700D01*
X64340000Y-71120000D02*
X62941200Y-69721200D01*
X55472400Y-69721200D02*
X53182700Y-72010900D01*
X53182700Y-140544700D02*
X53975000Y-141337000D01*
X62941200Y-69721200D02*
X55472400Y-69721200D01*
%TO.N,Net-(J6-PadT)*%
X60755000Y-75835000D02*
X70485000Y-75835000D01*
X56040000Y-71120000D02*
X60755000Y-75835000D01*
%TO.N,/MIX_2*%
X64340000Y-91440000D02*
X63577600Y-91440000D01*
X53683100Y-101334500D02*
X53683100Y-137909300D01*
X63577600Y-91440000D02*
X53683100Y-101334500D01*
X53683100Y-137909300D02*
X57110800Y-141337000D01*
%TO.N,Net-(J7-PadT)*%
X69782900Y-96155000D02*
X70485000Y-96155000D01*
X64918700Y-90017800D02*
X66124300Y-91223400D01*
X57462200Y-90017800D02*
X64918700Y-90017800D01*
X66124300Y-92496400D02*
X69782900Y-96155000D01*
X66124300Y-91223400D02*
X66124300Y-92496400D01*
X56040000Y-91440000D02*
X57462200Y-90017800D01*
%TO.N,/MIX_3*%
X54637400Y-121272400D02*
X54637400Y-135727900D01*
X64340000Y-111760000D02*
X64149800Y-111760000D01*
X64149800Y-111760000D02*
X54637400Y-121272400D01*
X54637400Y-135727900D02*
X60246500Y-141337000D01*
%TO.N,Net-(J8-PadT)*%
X66124300Y-112795900D02*
X69803400Y-116475000D01*
X69803400Y-116475000D02*
X70485000Y-116475000D01*
X64918700Y-110337800D02*
X66124300Y-111543400D01*
X57462200Y-110337800D02*
X64918700Y-110337800D01*
X56040000Y-111760000D02*
X57462200Y-110337800D01*
X66124300Y-111543400D02*
X66124300Y-112795900D01*
%TO.N,/MIX_4*%
X64340000Y-132080000D02*
X63382200Y-133037800D01*
X63382200Y-133037800D02*
X63382200Y-141337000D01*
%TO.N,Net-(J9-PadT)*%
X64930000Y-130663400D02*
X66124300Y-131857700D01*
X66124300Y-131857700D02*
X66124300Y-133181300D01*
X69103000Y-136160000D02*
X70485000Y-136160000D01*
X66124300Y-133181300D02*
X69103000Y-136160000D01*
X57456600Y-130663400D02*
X64930000Y-130663400D01*
X56040000Y-132080000D02*
X57456600Y-130663400D01*
%TO.N,Net-(J10-PadT)*%
X81280000Y-152240000D02*
X78310000Y-152240000D01*
X78310000Y-152240000D02*
X78216000Y-152146000D01*
%TO.N,Net-(D1-A)*%
X70755000Y-68310000D02*
X73025000Y-66040000D01*
X70755000Y-69850000D02*
X70755000Y-68310000D01*
%TO.N,Net-(D2-A)*%
X73025000Y-87900000D02*
X73025000Y-86360000D01*
X70755000Y-90170000D02*
X73025000Y-87900000D01*
%TO.N,Net-(D3-A)*%
X70755000Y-108950000D02*
X70755000Y-110490000D01*
X73025000Y-106680000D02*
X70755000Y-108950000D01*
%TO.N,/OUT*%
X79518000Y-148844000D02*
X82302010Y-146059990D01*
X72136000Y-148844000D02*
X72914000Y-148844000D01*
X68072000Y-148844000D02*
X72136000Y-148844000D01*
X65340000Y-148844000D02*
X68072000Y-148844000D01*
X88190010Y-146059990D02*
X82302010Y-146059990D01*
X72914000Y-148844000D02*
X76216000Y-152146000D01*
X88835000Y-145415000D02*
X88190010Y-146059990D01*
X68945000Y-148844000D02*
X70215000Y-150114000D01*
X70252500Y-153162000D02*
X70252500Y-150151500D01*
X70252500Y-150151500D02*
X70215000Y-150114000D01*
X72136000Y-148844000D02*
X79518000Y-148844000D01*
X68072000Y-148844000D02*
X68945000Y-148844000D01*
%TO.N,Net-(D4-A)*%
X73025000Y-130540000D02*
X72755000Y-130810000D01*
X73025000Y-127000000D02*
X73025000Y-130540000D01*
%TO.N,Net-(D5-A)*%
X86630000Y-154686000D02*
X84074000Y-154686000D01*
X84074000Y-154686000D02*
X82550000Y-156210000D01*
%TO.N,Net-(U2A-+)*%
X80014999Y-74765001D02*
X81240000Y-73540000D01*
X83347191Y-74765001D02*
X82465001Y-74765001D01*
X82465001Y-74765001D02*
X81240000Y-73540000D01*
X76200000Y-77158232D02*
X78593231Y-74765001D01*
X78593231Y-74765001D02*
X80014999Y-74765001D01*
X87376000Y-79105000D02*
X84074000Y-79105000D01*
X76200000Y-77535000D02*
X76200000Y-77158232D01*
X84074000Y-79105000D02*
X85099010Y-78079990D01*
X85099010Y-78079990D02*
X85099010Y-76516820D01*
X85099010Y-76516820D02*
X83347191Y-74765001D01*
%TO.N,Net-(U3A-+)*%
X87376000Y-99395000D02*
X84074000Y-99395000D01*
X76200000Y-97855000D02*
X76200000Y-96880000D01*
X83377191Y-95085001D02*
X82465001Y-95085001D01*
X77994999Y-95085001D02*
X80014999Y-95085001D01*
X82465001Y-95085001D02*
X81240000Y-93860000D01*
X76200000Y-96880000D02*
X77994999Y-95085001D01*
X80014999Y-95085001D02*
X81240000Y-93860000D01*
X85099010Y-98369990D02*
X85099010Y-96806820D01*
X84074000Y-99395000D02*
X85099010Y-98369990D01*
X85099010Y-96806820D02*
X83377191Y-95085001D01*
%TO.N,Net-(U4A-+)*%
X84074000Y-119745000D02*
X85099010Y-118719990D01*
X84074000Y-119745000D02*
X87376000Y-119745000D01*
X76200000Y-117798232D02*
X78593231Y-115405001D01*
X76200000Y-118175000D02*
X76200000Y-117798232D01*
X84163001Y-115405001D02*
X82465001Y-115405001D01*
X85099010Y-116341010D02*
X84163001Y-115405001D01*
X85099010Y-118719990D02*
X85099010Y-116341010D01*
X78593231Y-115405001D02*
X80014999Y-115405001D01*
X80014999Y-115405001D02*
X81240000Y-114180000D01*
X82465001Y-115405001D02*
X81240000Y-114180000D01*
%TO.N,Net-(U5A-+)*%
X77888999Y-135725001D02*
X77294999Y-135725001D01*
X81240000Y-134500000D02*
X80014999Y-135725001D01*
X77294999Y-135725001D02*
X76200000Y-136820000D01*
X87376000Y-138765000D02*
X84074000Y-138765000D01*
X80054800Y-137919990D02*
X77888999Y-135754189D01*
X80014999Y-135725001D02*
X77888999Y-135725001D01*
X84074000Y-138765000D02*
X83228990Y-137919990D01*
X83228990Y-137919990D02*
X80054800Y-137919990D01*
X76200000Y-136820000D02*
X76200000Y-137795000D01*
X77888999Y-135754189D02*
X77888999Y-135725001D01*
%TO.N,Net-(C10-Pad1)*%
X66464820Y-146948990D02*
X63931778Y-146948990D01*
X69889990Y-145786990D02*
X67626820Y-145786990D01*
X70215000Y-146112000D02*
X69889990Y-145786990D01*
X60120000Y-149844000D02*
X60390000Y-150114000D01*
X57277000Y-149844000D02*
X60120000Y-149844000D01*
X53975000Y-149881500D02*
X54012500Y-149844000D01*
X54012500Y-149844000D02*
X57277000Y-149844000D01*
X60766768Y-150114000D02*
X60390000Y-150114000D01*
X67626820Y-145786990D02*
X66464820Y-146948990D01*
X70215000Y-146812000D02*
X70215000Y-146112000D01*
X63931778Y-146948990D02*
X60766768Y-150114000D01*
%TO.N,Net-(U2A--)*%
X76200000Y-74660000D02*
X75792500Y-75067500D01*
X75792500Y-75067500D02*
X74930000Y-75930000D01*
X74930000Y-75930000D02*
X74930000Y-77535000D01*
X75792500Y-75067500D02*
X73384900Y-72660000D01*
X73384900Y-72660000D02*
X73025000Y-72660000D01*
%TO.N,Net-(U3A--)*%
X76200000Y-93366810D02*
X76200000Y-92980000D01*
X76200000Y-92980000D02*
X73025000Y-92980000D01*
X74930000Y-97855000D02*
X74930000Y-94636810D01*
X74930000Y-94636810D02*
X76200000Y-93366810D01*
%TO.N,Net-(U4A--)*%
X74930000Y-118175000D02*
X74920990Y-118165990D01*
X74920990Y-114690010D02*
X75946000Y-113665000D01*
X75946000Y-113665000D02*
X73025000Y-113665000D01*
X74920990Y-118165990D02*
X74920990Y-114690010D01*
%TO.N,/REF*%
X61148000Y-61010000D02*
X61198000Y-60960000D01*
X61148000Y-64945500D02*
X61148000Y-61010000D01*
X61198000Y-60960000D02*
X64340000Y-60960000D01*
%TO.N,Net-(U5A--)*%
X76200000Y-132985000D02*
X74930000Y-132985000D01*
X74930000Y-132985000D02*
X74930000Y-137795000D01*
X74930000Y-132985000D02*
X73025000Y-132985000D01*
%TO.N,Net-(U6B--)*%
X90168000Y-148863900D02*
X89259100Y-147955000D01*
X90168000Y-148863900D02*
X90168000Y-153148000D01*
X88835000Y-146685000D02*
X88835000Y-147955000D01*
X90168000Y-153148000D02*
X88630000Y-154686000D01*
X89259100Y-147955000D02*
X88835000Y-147955000D01*
%TO.N,Net-(U2B--)*%
X71968360Y-73710800D02*
X71968360Y-70636640D01*
X71968360Y-70636640D02*
X72755000Y-69850000D01*
X74930000Y-82485000D02*
X76200000Y-82485000D01*
X74930000Y-81930240D02*
X71998840Y-78999080D01*
X74930000Y-82485000D02*
X74930000Y-81930240D01*
%TO.N,Net-(U4B--)*%
X76200000Y-123125000D02*
X74930000Y-123125000D01*
X72059800Y-111978440D02*
X72059800Y-111185200D01*
X72059800Y-111185200D02*
X72755000Y-110490000D01*
X74930000Y-123125000D02*
X74930000Y-122150000D01*
X74930000Y-122150000D02*
X72059800Y-119279800D01*
%TO.N,Net-(U3B--)*%
X76200000Y-102805000D02*
X74930000Y-102805000D01*
X71713145Y-91211855D02*
X72755000Y-90170000D01*
X71713145Y-93059040D02*
X71713145Y-91211855D01*
X74930000Y-101843840D02*
X72222360Y-99136200D01*
X74930000Y-102805000D02*
X74930000Y-101843840D01*
%TO.N,Net-(U5B--)*%
X70617080Y-130947920D02*
X70755000Y-130810000D01*
X74930000Y-142745000D02*
X74930000Y-141737080D01*
X70617080Y-132750560D02*
X70617080Y-130947920D01*
X74930000Y-141737080D02*
X72217280Y-139024360D01*
X76200000Y-142745000D02*
X74930000Y-142745000D01*
%TO.N,Net-(U6A-+)*%
X82534000Y-147646600D02*
X83495600Y-146685000D01*
X83885000Y-149225000D02*
X83477400Y-149225000D01*
X82534000Y-148281600D02*
X82534000Y-147646600D01*
X83495600Y-146685000D02*
X83885000Y-146685000D01*
X83477400Y-149225000D02*
X82534000Y-148281600D01*
%TO.N,Net-(J2-PadT)*%
X87305000Y-77105000D02*
X83740000Y-73540000D01*
X76200000Y-72660000D02*
X76995011Y-71864989D01*
X76995011Y-71864989D02*
X82064989Y-71864989D01*
X87376000Y-77105000D02*
X87305000Y-77105000D01*
X82064989Y-71864989D02*
X83740000Y-73540000D01*
%TO.N,Net-(J3-PadT)*%
X76200000Y-94593190D02*
X77514999Y-93278191D01*
X82514999Y-92634999D02*
X83740000Y-93860000D01*
X87376000Y-97395000D02*
X87275000Y-97395000D01*
X77514999Y-92699999D02*
X77579999Y-92634999D01*
X87275000Y-97395000D02*
X83740000Y-93860000D01*
X77514999Y-93278191D02*
X77514999Y-92699999D01*
X77579999Y-92634999D02*
X82514999Y-92634999D01*
X76200000Y-94980000D02*
X76200000Y-94593190D01*
%TO.N,Net-(J4-PadT)*%
X77514999Y-113019999D02*
X77579999Y-112954999D01*
X75946000Y-115665000D02*
X77514999Y-114096001D01*
X87305000Y-117745000D02*
X83740000Y-114180000D01*
X87376000Y-117745000D02*
X87305000Y-117745000D01*
X77514999Y-114096001D02*
X77514999Y-113019999D01*
X82514999Y-112954999D02*
X83740000Y-114180000D01*
X77579999Y-112954999D02*
X82514999Y-112954999D01*
%TO.N,Net-(J5-PadT)*%
X87376000Y-136765000D02*
X86005000Y-136765000D01*
X82514999Y-133274999D02*
X83740000Y-134500000D01*
X76200000Y-134654998D02*
X77579999Y-133274999D01*
X86005000Y-136765000D02*
X83740000Y-134500000D01*
X77579999Y-133274999D02*
X82514999Y-133274999D01*
X76200000Y-134985000D02*
X76200000Y-134654998D01*
%TD*%
M02*
