%TF.GenerationSoftware,KiCad,Pcbnew,10.0.0*%
%TF.CreationDate,2026-03-23T17:27:58+01:00*%
%TF.ProjectId,summe,73756d6d-652e-46b6-9963-61645f706362,R01*%
%TF.SameCoordinates,Original*%
%TF.FileFunction,Legend,Bot*%
%TF.FilePolarity,Positive*%
%FSLAX46Y46*%
G04 Gerber Fmt 4.6, Leading zero omitted, Abs format (unit mm)*
G04 Created by KiCad (PCBNEW 10.0.0) date 2026-03-23 17:27:58*
%MOMM*%
%LPD*%
G01*
G04 APERTURE LIST*
%ADD10C,0.150000*%
%ADD11C,0.300000*%
%ADD12C,0.120000*%
%ADD13C,0.000000*%
G04 APERTURE END LIST*
D10*
X68610839Y-158384200D02*
X68515601Y-158422295D01*
X68515601Y-158422295D02*
X68325125Y-158422295D01*
X68325125Y-158422295D02*
X68229887Y-158384200D01*
X68229887Y-158384200D02*
X68182268Y-158308009D01*
X68182268Y-158308009D02*
X68182268Y-158269914D01*
X68182268Y-158269914D02*
X68229887Y-158193723D01*
X68229887Y-158193723D02*
X68325125Y-158155628D01*
X68325125Y-158155628D02*
X68467982Y-158155628D01*
X68467982Y-158155628D02*
X68563220Y-158117533D01*
X68563220Y-158117533D02*
X68610839Y-158041342D01*
X68610839Y-158041342D02*
X68610839Y-158003247D01*
X68610839Y-158003247D02*
X68563220Y-157927057D01*
X68563220Y-157927057D02*
X68467982Y-157888961D01*
X68467982Y-157888961D02*
X68325125Y-157888961D01*
X68325125Y-157888961D02*
X68229887Y-157927057D01*
X67325125Y-157888961D02*
X67325125Y-158422295D01*
X67753696Y-157888961D02*
X67753696Y-158308009D01*
X67753696Y-158308009D02*
X67706077Y-158384200D01*
X67706077Y-158384200D02*
X67610839Y-158422295D01*
X67610839Y-158422295D02*
X67467982Y-158422295D01*
X67467982Y-158422295D02*
X67372744Y-158384200D01*
X67372744Y-158384200D02*
X67325125Y-158346104D01*
X66848934Y-158422295D02*
X66848934Y-157888961D01*
X66848934Y-157965152D02*
X66801315Y-157927057D01*
X66801315Y-157927057D02*
X66706077Y-157888961D01*
X66706077Y-157888961D02*
X66563220Y-157888961D01*
X66563220Y-157888961D02*
X66467982Y-157927057D01*
X66467982Y-157927057D02*
X66420363Y-158003247D01*
X66420363Y-158003247D02*
X66420363Y-158422295D01*
X66420363Y-158003247D02*
X66372744Y-157927057D01*
X66372744Y-157927057D02*
X66277506Y-157888961D01*
X66277506Y-157888961D02*
X66134649Y-157888961D01*
X66134649Y-157888961D02*
X66039410Y-157927057D01*
X66039410Y-157927057D02*
X65991791Y-158003247D01*
X65991791Y-158003247D02*
X65991791Y-158422295D01*
X65515601Y-158422295D02*
X65515601Y-157888961D01*
X65515601Y-157965152D02*
X65467982Y-157927057D01*
X65467982Y-157927057D02*
X65372744Y-157888961D01*
X65372744Y-157888961D02*
X65229887Y-157888961D01*
X65229887Y-157888961D02*
X65134649Y-157927057D01*
X65134649Y-157927057D02*
X65087030Y-158003247D01*
X65087030Y-158003247D02*
X65087030Y-158422295D01*
X65087030Y-158003247D02*
X65039411Y-157927057D01*
X65039411Y-157927057D02*
X64944173Y-157888961D01*
X64944173Y-157888961D02*
X64801316Y-157888961D01*
X64801316Y-157888961D02*
X64706077Y-157927057D01*
X64706077Y-157927057D02*
X64658458Y-158003247D01*
X64658458Y-158003247D02*
X64658458Y-158422295D01*
X63801316Y-158384200D02*
X63896554Y-158422295D01*
X63896554Y-158422295D02*
X64087030Y-158422295D01*
X64087030Y-158422295D02*
X64182268Y-158384200D01*
X64182268Y-158384200D02*
X64229887Y-158308009D01*
X64229887Y-158308009D02*
X64229887Y-158003247D01*
X64229887Y-158003247D02*
X64182268Y-157927057D01*
X64182268Y-157927057D02*
X64087030Y-157888961D01*
X64087030Y-157888961D02*
X63896554Y-157888961D01*
X63896554Y-157888961D02*
X63801316Y-157927057D01*
X63801316Y-157927057D02*
X63753697Y-158003247D01*
X63753697Y-158003247D02*
X63753697Y-158079438D01*
X63753697Y-158079438D02*
X64229887Y-158155628D01*
X68563220Y-158422295D02*
X68563220Y-157622295D01*
X68563220Y-157622295D02*
X68229887Y-158193723D01*
X68229887Y-158193723D02*
X67896554Y-157622295D01*
X67896554Y-157622295D02*
X67896554Y-158422295D01*
X67229887Y-157622295D02*
X67039411Y-157622295D01*
X67039411Y-157622295D02*
X66944173Y-157660390D01*
X66944173Y-157660390D02*
X66848935Y-157736580D01*
X66848935Y-157736580D02*
X66801316Y-157888961D01*
X66801316Y-157888961D02*
X66801316Y-158155628D01*
X66801316Y-158155628D02*
X66848935Y-158308009D01*
X66848935Y-158308009D02*
X66944173Y-158384200D01*
X66944173Y-158384200D02*
X67039411Y-158422295D01*
X67039411Y-158422295D02*
X67229887Y-158422295D01*
X67229887Y-158422295D02*
X67325125Y-158384200D01*
X67325125Y-158384200D02*
X67420363Y-158308009D01*
X67420363Y-158308009D02*
X67467982Y-158155628D01*
X67467982Y-158155628D02*
X67467982Y-157888961D01*
X67467982Y-157888961D02*
X67420363Y-157736580D01*
X67420363Y-157736580D02*
X67325125Y-157660390D01*
X67325125Y-157660390D02*
X67229887Y-157622295D01*
X66372744Y-158422295D02*
X66372744Y-157622295D01*
X66372744Y-157622295D02*
X66134649Y-157622295D01*
X66134649Y-157622295D02*
X65991792Y-157660390D01*
X65991792Y-157660390D02*
X65896554Y-157736580D01*
X65896554Y-157736580D02*
X65848935Y-157812771D01*
X65848935Y-157812771D02*
X65801316Y-157965152D01*
X65801316Y-157965152D02*
X65801316Y-158079438D01*
X65801316Y-158079438D02*
X65848935Y-158231819D01*
X65848935Y-158231819D02*
X65896554Y-158308009D01*
X65896554Y-158308009D02*
X65991792Y-158384200D01*
X65991792Y-158384200D02*
X66134649Y-158422295D01*
X66134649Y-158422295D02*
X66372744Y-158422295D01*
X65372744Y-157622295D02*
X65372744Y-158269914D01*
X65372744Y-158269914D02*
X65325125Y-158346104D01*
X65325125Y-158346104D02*
X65277506Y-158384200D01*
X65277506Y-158384200D02*
X65182268Y-158422295D01*
X65182268Y-158422295D02*
X64991792Y-158422295D01*
X64991792Y-158422295D02*
X64896554Y-158384200D01*
X64896554Y-158384200D02*
X64848935Y-158346104D01*
X64848935Y-158346104D02*
X64801316Y-158269914D01*
X64801316Y-158269914D02*
X64801316Y-157622295D01*
X63848935Y-158422295D02*
X64325125Y-158422295D01*
X64325125Y-158422295D02*
X64325125Y-157622295D01*
X63515601Y-158003247D02*
X63182268Y-158003247D01*
X63039411Y-158422295D02*
X63515601Y-158422295D01*
X63515601Y-158422295D02*
X63515601Y-157622295D01*
X63515601Y-157622295D02*
X63039411Y-157622295D01*
D11*
X67803809Y-156630900D02*
X68003214Y-156702328D01*
X68003214Y-156702328D02*
X68384166Y-156702328D01*
X68384166Y-156702328D02*
X68565714Y-156630900D01*
X68565714Y-156630900D02*
X68643095Y-156488042D01*
X68643095Y-156488042D02*
X68571666Y-155916614D01*
X68571666Y-155916614D02*
X68458571Y-155773757D01*
X68458571Y-155773757D02*
X68259166Y-155702328D01*
X68259166Y-155702328D02*
X67878214Y-155702328D01*
X67878214Y-155702328D02*
X67696666Y-155773757D01*
X67696666Y-155773757D02*
X67619285Y-155916614D01*
X67619285Y-155916614D02*
X67637143Y-156059471D01*
X67637143Y-156059471D02*
X68607381Y-156202328D01*
X66574642Y-156702328D02*
X66756190Y-156630900D01*
X66756190Y-156630900D02*
X66833571Y-156488042D01*
X66833571Y-156488042D02*
X66672857Y-155202328D01*
X65041904Y-156630900D02*
X65241309Y-156702328D01*
X65241309Y-156702328D02*
X65622261Y-156702328D01*
X65622261Y-156702328D02*
X65803809Y-156630900D01*
X65803809Y-156630900D02*
X65881190Y-156488042D01*
X65881190Y-156488042D02*
X65809761Y-155916614D01*
X65809761Y-155916614D02*
X65696666Y-155773757D01*
X65696666Y-155773757D02*
X65497261Y-155702328D01*
X65497261Y-155702328D02*
X65116309Y-155702328D01*
X65116309Y-155702328D02*
X64934761Y-155773757D01*
X64934761Y-155773757D02*
X64857380Y-155916614D01*
X64857380Y-155916614D02*
X64875238Y-156059471D01*
X64875238Y-156059471D02*
X65845476Y-156202328D01*
X64098452Y-156702328D02*
X63910952Y-155202328D01*
X63836547Y-156130900D02*
X63336547Y-156702328D01*
X63211547Y-155702328D02*
X64044880Y-156273757D01*
X62640118Y-155702328D02*
X61878213Y-155702328D01*
X62291904Y-155202328D02*
X62452618Y-156488042D01*
X62452618Y-156488042D02*
X62375237Y-156630900D01*
X62375237Y-156630900D02*
X62193689Y-156702328D01*
X62193689Y-156702328D02*
X62003213Y-156702328D01*
X61336547Y-156702328D02*
X61211547Y-155702328D01*
X61247261Y-155988042D02*
X61134166Y-155845185D01*
X61134166Y-155845185D02*
X61029999Y-155773757D01*
X61029999Y-155773757D02*
X60830594Y-155702328D01*
X60830594Y-155702328D02*
X60640118Y-155702328D01*
X59812737Y-156702328D02*
X59994285Y-156630900D01*
X59994285Y-156630900D02*
X60080594Y-156559471D01*
X60080594Y-156559471D02*
X60157975Y-156416614D01*
X60157975Y-156416614D02*
X60104404Y-155988042D01*
X60104404Y-155988042D02*
X59991309Y-155845185D01*
X59991309Y-155845185D02*
X59887142Y-155773757D01*
X59887142Y-155773757D02*
X59687737Y-155702328D01*
X59687737Y-155702328D02*
X59402023Y-155702328D01*
X59402023Y-155702328D02*
X59220475Y-155773757D01*
X59220475Y-155773757D02*
X59134166Y-155845185D01*
X59134166Y-155845185D02*
X59056785Y-155988042D01*
X59056785Y-155988042D02*
X59110356Y-156416614D01*
X59110356Y-156416614D02*
X59223452Y-156559471D01*
X59223452Y-156559471D02*
X59327618Y-156630900D01*
X59327618Y-156630900D02*
X59527023Y-156702328D01*
X59527023Y-156702328D02*
X59812737Y-156702328D01*
X58163928Y-155702328D02*
X58351428Y-157202328D01*
X58172856Y-155773757D02*
X57973451Y-155702328D01*
X57973451Y-155702328D02*
X57592499Y-155702328D01*
X57592499Y-155702328D02*
X57410951Y-155773757D01*
X57410951Y-155773757D02*
X57324642Y-155845185D01*
X57324642Y-155845185D02*
X57247261Y-155988042D01*
X57247261Y-155988042D02*
X57300832Y-156416614D01*
X57300832Y-156416614D02*
X57413928Y-156559471D01*
X57413928Y-156559471D02*
X57518094Y-156630900D01*
X57518094Y-156630900D02*
X57717499Y-156702328D01*
X57717499Y-156702328D02*
X58098451Y-156702328D01*
X58098451Y-156702328D02*
X58279999Y-156630900D01*
X56479404Y-156702328D02*
X56291904Y-155202328D01*
X55622261Y-156702328D02*
X55524046Y-155916614D01*
X55524046Y-155916614D02*
X55601427Y-155773757D01*
X55601427Y-155773757D02*
X55782975Y-155702328D01*
X55782975Y-155702328D02*
X56068689Y-155702328D01*
X56068689Y-155702328D02*
X56268094Y-155773757D01*
X56268094Y-155773757D02*
X56372261Y-155845185D01*
X54384165Y-156702328D02*
X54565713Y-156630900D01*
X54565713Y-156630900D02*
X54652022Y-156559471D01*
X54652022Y-156559471D02*
X54729403Y-156416614D01*
X54729403Y-156416614D02*
X54675832Y-155988042D01*
X54675832Y-155988042D02*
X54562737Y-155845185D01*
X54562737Y-155845185D02*
X54458570Y-155773757D01*
X54458570Y-155773757D02*
X54259165Y-155702328D01*
X54259165Y-155702328D02*
X53973451Y-155702328D01*
X53973451Y-155702328D02*
X53791903Y-155773757D01*
X53791903Y-155773757D02*
X53705594Y-155845185D01*
X53705594Y-155845185D02*
X53628213Y-155988042D01*
X53628213Y-155988042D02*
X53681784Y-156416614D01*
X53681784Y-156416614D02*
X53794880Y-156559471D01*
X53794880Y-156559471D02*
X53899046Y-156630900D01*
X53899046Y-156630900D02*
X54098451Y-156702328D01*
X54098451Y-156702328D02*
X54384165Y-156702328D01*
X52735356Y-155702328D02*
X52860356Y-156702328D01*
X52753213Y-155845185D02*
X52649046Y-155773757D01*
X52649046Y-155773757D02*
X52449641Y-155702328D01*
X52449641Y-155702328D02*
X52163927Y-155702328D01*
X52163927Y-155702328D02*
X51982379Y-155773757D01*
X51982379Y-155773757D02*
X51904998Y-155916614D01*
X51904998Y-155916614D02*
X52003213Y-156702328D01*
D10*
X53793922Y-158392295D02*
X54127255Y-158011342D01*
X54365350Y-158392295D02*
X54365350Y-157592295D01*
X54365350Y-157592295D02*
X53984398Y-157592295D01*
X53984398Y-157592295D02*
X53889160Y-157630390D01*
X53889160Y-157630390D02*
X53841541Y-157668485D01*
X53841541Y-157668485D02*
X53793922Y-157744676D01*
X53793922Y-157744676D02*
X53793922Y-157858961D01*
X53793922Y-157858961D02*
X53841541Y-157935152D01*
X53841541Y-157935152D02*
X53889160Y-157973247D01*
X53889160Y-157973247D02*
X53984398Y-158011342D01*
X53984398Y-158011342D02*
X54365350Y-158011342D01*
X53174874Y-157592295D02*
X53079636Y-157592295D01*
X53079636Y-157592295D02*
X52984398Y-157630390D01*
X52984398Y-157630390D02*
X52936779Y-157668485D01*
X52936779Y-157668485D02*
X52889160Y-157744676D01*
X52889160Y-157744676D02*
X52841541Y-157897057D01*
X52841541Y-157897057D02*
X52841541Y-158087533D01*
X52841541Y-158087533D02*
X52889160Y-158239914D01*
X52889160Y-158239914D02*
X52936779Y-158316104D01*
X52936779Y-158316104D02*
X52984398Y-158354200D01*
X52984398Y-158354200D02*
X53079636Y-158392295D01*
X53079636Y-158392295D02*
X53174874Y-158392295D01*
X53174874Y-158392295D02*
X53270112Y-158354200D01*
X53270112Y-158354200D02*
X53317731Y-158316104D01*
X53317731Y-158316104D02*
X53365350Y-158239914D01*
X53365350Y-158239914D02*
X53412969Y-158087533D01*
X53412969Y-158087533D02*
X53412969Y-157897057D01*
X53412969Y-157897057D02*
X53365350Y-157744676D01*
X53365350Y-157744676D02*
X53317731Y-157668485D01*
X53317731Y-157668485D02*
X53270112Y-157630390D01*
X53270112Y-157630390D02*
X53174874Y-157592295D01*
X51889160Y-158392295D02*
X52460588Y-158392295D01*
X52174874Y-158392295D02*
X52174874Y-157592295D01*
X52174874Y-157592295D02*
X52270112Y-157706580D01*
X52270112Y-157706580D02*
X52365350Y-157782771D01*
X52365350Y-157782771D02*
X52460588Y-157820866D01*
X60059866Y-57763580D02*
X60107485Y-57811200D01*
X60107485Y-57811200D02*
X60250342Y-57858819D01*
X60250342Y-57858819D02*
X60345580Y-57858819D01*
X60345580Y-57858819D02*
X60488437Y-57811200D01*
X60488437Y-57811200D02*
X60583675Y-57715961D01*
X60583675Y-57715961D02*
X60631294Y-57620723D01*
X60631294Y-57620723D02*
X60678913Y-57430247D01*
X60678913Y-57430247D02*
X60678913Y-57287390D01*
X60678913Y-57287390D02*
X60631294Y-57096914D01*
X60631294Y-57096914D02*
X60583675Y-57001676D01*
X60583675Y-57001676D02*
X60488437Y-56906438D01*
X60488437Y-56906438D02*
X60345580Y-56858819D01*
X60345580Y-56858819D02*
X60250342Y-56858819D01*
X60250342Y-56858819D02*
X60107485Y-56906438D01*
X60107485Y-56906438D02*
X60059866Y-56954057D01*
X59107485Y-57858819D02*
X59678913Y-57858819D01*
X59393199Y-57858819D02*
X59393199Y-56858819D01*
X59393199Y-56858819D02*
X59488437Y-57001676D01*
X59488437Y-57001676D02*
X59583675Y-57096914D01*
X59583675Y-57096914D02*
X59678913Y-57144533D01*
X54319466Y-57763580D02*
X54367085Y-57811200D01*
X54367085Y-57811200D02*
X54509942Y-57858819D01*
X54509942Y-57858819D02*
X54605180Y-57858819D01*
X54605180Y-57858819D02*
X54748037Y-57811200D01*
X54748037Y-57811200D02*
X54843275Y-57715961D01*
X54843275Y-57715961D02*
X54890894Y-57620723D01*
X54890894Y-57620723D02*
X54938513Y-57430247D01*
X54938513Y-57430247D02*
X54938513Y-57287390D01*
X54938513Y-57287390D02*
X54890894Y-57096914D01*
X54890894Y-57096914D02*
X54843275Y-57001676D01*
X54843275Y-57001676D02*
X54748037Y-56906438D01*
X54748037Y-56906438D02*
X54605180Y-56858819D01*
X54605180Y-56858819D02*
X54509942Y-56858819D01*
X54509942Y-56858819D02*
X54367085Y-56906438D01*
X54367085Y-56906438D02*
X54319466Y-56954057D01*
X53938513Y-56954057D02*
X53890894Y-56906438D01*
X53890894Y-56906438D02*
X53795656Y-56858819D01*
X53795656Y-56858819D02*
X53557561Y-56858819D01*
X53557561Y-56858819D02*
X53462323Y-56906438D01*
X53462323Y-56906438D02*
X53414704Y-56954057D01*
X53414704Y-56954057D02*
X53367085Y-57049295D01*
X53367085Y-57049295D02*
X53367085Y-57144533D01*
X53367085Y-57144533D02*
X53414704Y-57287390D01*
X53414704Y-57287390D02*
X53986132Y-57858819D01*
X53986132Y-57858819D02*
X53367085Y-57858819D01*
X90452533Y-61176819D02*
X90452533Y-61891104D01*
X90452533Y-61891104D02*
X90500152Y-62033961D01*
X90500152Y-62033961D02*
X90595390Y-62129200D01*
X90595390Y-62129200D02*
X90738247Y-62176819D01*
X90738247Y-62176819D02*
X90833485Y-62176819D01*
X89452533Y-62176819D02*
X90023961Y-62176819D01*
X89738247Y-62176819D02*
X89738247Y-61176819D01*
X89738247Y-61176819D02*
X89833485Y-61319676D01*
X89833485Y-61319676D02*
X89928723Y-61414914D01*
X89928723Y-61414914D02*
X90023961Y-61462533D01*
X63827819Y-54443333D02*
X63351628Y-54110000D01*
X63827819Y-53871905D02*
X62827819Y-53871905D01*
X62827819Y-53871905D02*
X62827819Y-54252857D01*
X62827819Y-54252857D02*
X62875438Y-54348095D01*
X62875438Y-54348095D02*
X62923057Y-54395714D01*
X62923057Y-54395714D02*
X63018295Y-54443333D01*
X63018295Y-54443333D02*
X63161152Y-54443333D01*
X63161152Y-54443333D02*
X63256390Y-54395714D01*
X63256390Y-54395714D02*
X63304009Y-54348095D01*
X63304009Y-54348095D02*
X63351628Y-54252857D01*
X63351628Y-54252857D02*
X63351628Y-53871905D01*
X63827819Y-55395714D02*
X63827819Y-54824286D01*
X63827819Y-55110000D02*
X62827819Y-55110000D01*
X62827819Y-55110000D02*
X62970676Y-55014762D01*
X62970676Y-55014762D02*
X63065914Y-54919524D01*
X63065914Y-54919524D02*
X63113533Y-54824286D01*
X63827819Y-52157333D02*
X63351628Y-51824000D01*
X63827819Y-51585905D02*
X62827819Y-51585905D01*
X62827819Y-51585905D02*
X62827819Y-51966857D01*
X62827819Y-51966857D02*
X62875438Y-52062095D01*
X62875438Y-52062095D02*
X62923057Y-52109714D01*
X62923057Y-52109714D02*
X63018295Y-52157333D01*
X63018295Y-52157333D02*
X63161152Y-52157333D01*
X63161152Y-52157333D02*
X63256390Y-52109714D01*
X63256390Y-52109714D02*
X63304009Y-52062095D01*
X63304009Y-52062095D02*
X63351628Y-51966857D01*
X63351628Y-51966857D02*
X63351628Y-51585905D01*
X62923057Y-52538286D02*
X62875438Y-52585905D01*
X62875438Y-52585905D02*
X62827819Y-52681143D01*
X62827819Y-52681143D02*
X62827819Y-52919238D01*
X62827819Y-52919238D02*
X62875438Y-53014476D01*
X62875438Y-53014476D02*
X62923057Y-53062095D01*
X62923057Y-53062095D02*
X63018295Y-53109714D01*
X63018295Y-53109714D02*
X63113533Y-53109714D01*
X63113533Y-53109714D02*
X63256390Y-53062095D01*
X63256390Y-53062095D02*
X63827819Y-52490667D01*
X63827819Y-52490667D02*
X63827819Y-53109714D01*
X89608819Y-77811333D02*
X89132628Y-77478000D01*
X89608819Y-77239905D02*
X88608819Y-77239905D01*
X88608819Y-77239905D02*
X88608819Y-77620857D01*
X88608819Y-77620857D02*
X88656438Y-77716095D01*
X88656438Y-77716095D02*
X88704057Y-77763714D01*
X88704057Y-77763714D02*
X88799295Y-77811333D01*
X88799295Y-77811333D02*
X88942152Y-77811333D01*
X88942152Y-77811333D02*
X89037390Y-77763714D01*
X89037390Y-77763714D02*
X89085009Y-77716095D01*
X89085009Y-77716095D02*
X89132628Y-77620857D01*
X89132628Y-77620857D02*
X89132628Y-77239905D01*
X88608819Y-78144667D02*
X88608819Y-78763714D01*
X88608819Y-78763714D02*
X88989771Y-78430381D01*
X88989771Y-78430381D02*
X88989771Y-78573238D01*
X88989771Y-78573238D02*
X89037390Y-78668476D01*
X89037390Y-78668476D02*
X89085009Y-78716095D01*
X89085009Y-78716095D02*
X89180247Y-78763714D01*
X89180247Y-78763714D02*
X89418342Y-78763714D01*
X89418342Y-78763714D02*
X89513580Y-78716095D01*
X89513580Y-78716095D02*
X89561200Y-78668476D01*
X89561200Y-78668476D02*
X89608819Y-78573238D01*
X89608819Y-78573238D02*
X89608819Y-78287524D01*
X89608819Y-78287524D02*
X89561200Y-78192286D01*
X89561200Y-78192286D02*
X89513580Y-78144667D01*
X86052819Y-77938333D02*
X85576628Y-77605000D01*
X86052819Y-77366905D02*
X85052819Y-77366905D01*
X85052819Y-77366905D02*
X85052819Y-77747857D01*
X85052819Y-77747857D02*
X85100438Y-77843095D01*
X85100438Y-77843095D02*
X85148057Y-77890714D01*
X85148057Y-77890714D02*
X85243295Y-77938333D01*
X85243295Y-77938333D02*
X85386152Y-77938333D01*
X85386152Y-77938333D02*
X85481390Y-77890714D01*
X85481390Y-77890714D02*
X85529009Y-77843095D01*
X85529009Y-77843095D02*
X85576628Y-77747857D01*
X85576628Y-77747857D02*
X85576628Y-77366905D01*
X85386152Y-78795476D02*
X86052819Y-78795476D01*
X85005200Y-78557381D02*
X85719485Y-78319286D01*
X85719485Y-78319286D02*
X85719485Y-78938333D01*
X89354819Y-98131333D02*
X88878628Y-97798000D01*
X89354819Y-97559905D02*
X88354819Y-97559905D01*
X88354819Y-97559905D02*
X88354819Y-97940857D01*
X88354819Y-97940857D02*
X88402438Y-98036095D01*
X88402438Y-98036095D02*
X88450057Y-98083714D01*
X88450057Y-98083714D02*
X88545295Y-98131333D01*
X88545295Y-98131333D02*
X88688152Y-98131333D01*
X88688152Y-98131333D02*
X88783390Y-98083714D01*
X88783390Y-98083714D02*
X88831009Y-98036095D01*
X88831009Y-98036095D02*
X88878628Y-97940857D01*
X88878628Y-97940857D02*
X88878628Y-97559905D01*
X88354819Y-99036095D02*
X88354819Y-98559905D01*
X88354819Y-98559905D02*
X88831009Y-98512286D01*
X88831009Y-98512286D02*
X88783390Y-98559905D01*
X88783390Y-98559905D02*
X88735771Y-98655143D01*
X88735771Y-98655143D02*
X88735771Y-98893238D01*
X88735771Y-98893238D02*
X88783390Y-98988476D01*
X88783390Y-98988476D02*
X88831009Y-99036095D01*
X88831009Y-99036095D02*
X88926247Y-99083714D01*
X88926247Y-99083714D02*
X89164342Y-99083714D01*
X89164342Y-99083714D02*
X89259580Y-99036095D01*
X89259580Y-99036095D02*
X89307200Y-98988476D01*
X89307200Y-98988476D02*
X89354819Y-98893238D01*
X89354819Y-98893238D02*
X89354819Y-98655143D01*
X89354819Y-98655143D02*
X89307200Y-98559905D01*
X89307200Y-98559905D02*
X89259580Y-98512286D01*
X86052819Y-98385333D02*
X85576628Y-98052000D01*
X86052819Y-97813905D02*
X85052819Y-97813905D01*
X85052819Y-97813905D02*
X85052819Y-98194857D01*
X85052819Y-98194857D02*
X85100438Y-98290095D01*
X85100438Y-98290095D02*
X85148057Y-98337714D01*
X85148057Y-98337714D02*
X85243295Y-98385333D01*
X85243295Y-98385333D02*
X85386152Y-98385333D01*
X85386152Y-98385333D02*
X85481390Y-98337714D01*
X85481390Y-98337714D02*
X85529009Y-98290095D01*
X85529009Y-98290095D02*
X85576628Y-98194857D01*
X85576628Y-98194857D02*
X85576628Y-97813905D01*
X85052819Y-99242476D02*
X85052819Y-99052000D01*
X85052819Y-99052000D02*
X85100438Y-98956762D01*
X85100438Y-98956762D02*
X85148057Y-98909143D01*
X85148057Y-98909143D02*
X85290914Y-98813905D01*
X85290914Y-98813905D02*
X85481390Y-98766286D01*
X85481390Y-98766286D02*
X85862342Y-98766286D01*
X85862342Y-98766286D02*
X85957580Y-98813905D01*
X85957580Y-98813905D02*
X86005200Y-98861524D01*
X86005200Y-98861524D02*
X86052819Y-98956762D01*
X86052819Y-98956762D02*
X86052819Y-99147238D01*
X86052819Y-99147238D02*
X86005200Y-99242476D01*
X86005200Y-99242476D02*
X85957580Y-99290095D01*
X85957580Y-99290095D02*
X85862342Y-99337714D01*
X85862342Y-99337714D02*
X85624247Y-99337714D01*
X85624247Y-99337714D02*
X85529009Y-99290095D01*
X85529009Y-99290095D02*
X85481390Y-99242476D01*
X85481390Y-99242476D02*
X85433771Y-99147238D01*
X85433771Y-99147238D02*
X85433771Y-98956762D01*
X85433771Y-98956762D02*
X85481390Y-98861524D01*
X85481390Y-98861524D02*
X85529009Y-98813905D01*
X85529009Y-98813905D02*
X85624247Y-98766286D01*
X89354819Y-118578333D02*
X88878628Y-118245000D01*
X89354819Y-118006905D02*
X88354819Y-118006905D01*
X88354819Y-118006905D02*
X88354819Y-118387857D01*
X88354819Y-118387857D02*
X88402438Y-118483095D01*
X88402438Y-118483095D02*
X88450057Y-118530714D01*
X88450057Y-118530714D02*
X88545295Y-118578333D01*
X88545295Y-118578333D02*
X88688152Y-118578333D01*
X88688152Y-118578333D02*
X88783390Y-118530714D01*
X88783390Y-118530714D02*
X88831009Y-118483095D01*
X88831009Y-118483095D02*
X88878628Y-118387857D01*
X88878628Y-118387857D02*
X88878628Y-118006905D01*
X88354819Y-118911667D02*
X88354819Y-119578333D01*
X88354819Y-119578333D02*
X89354819Y-119149762D01*
X86306819Y-118578333D02*
X85830628Y-118245000D01*
X86306819Y-118006905D02*
X85306819Y-118006905D01*
X85306819Y-118006905D02*
X85306819Y-118387857D01*
X85306819Y-118387857D02*
X85354438Y-118483095D01*
X85354438Y-118483095D02*
X85402057Y-118530714D01*
X85402057Y-118530714D02*
X85497295Y-118578333D01*
X85497295Y-118578333D02*
X85640152Y-118578333D01*
X85640152Y-118578333D02*
X85735390Y-118530714D01*
X85735390Y-118530714D02*
X85783009Y-118483095D01*
X85783009Y-118483095D02*
X85830628Y-118387857D01*
X85830628Y-118387857D02*
X85830628Y-118006905D01*
X85735390Y-119149762D02*
X85687771Y-119054524D01*
X85687771Y-119054524D02*
X85640152Y-119006905D01*
X85640152Y-119006905D02*
X85544914Y-118959286D01*
X85544914Y-118959286D02*
X85497295Y-118959286D01*
X85497295Y-118959286D02*
X85402057Y-119006905D01*
X85402057Y-119006905D02*
X85354438Y-119054524D01*
X85354438Y-119054524D02*
X85306819Y-119149762D01*
X85306819Y-119149762D02*
X85306819Y-119340238D01*
X85306819Y-119340238D02*
X85354438Y-119435476D01*
X85354438Y-119435476D02*
X85402057Y-119483095D01*
X85402057Y-119483095D02*
X85497295Y-119530714D01*
X85497295Y-119530714D02*
X85544914Y-119530714D01*
X85544914Y-119530714D02*
X85640152Y-119483095D01*
X85640152Y-119483095D02*
X85687771Y-119435476D01*
X85687771Y-119435476D02*
X85735390Y-119340238D01*
X85735390Y-119340238D02*
X85735390Y-119149762D01*
X85735390Y-119149762D02*
X85783009Y-119054524D01*
X85783009Y-119054524D02*
X85830628Y-119006905D01*
X85830628Y-119006905D02*
X85925866Y-118959286D01*
X85925866Y-118959286D02*
X86116342Y-118959286D01*
X86116342Y-118959286D02*
X86211580Y-119006905D01*
X86211580Y-119006905D02*
X86259200Y-119054524D01*
X86259200Y-119054524D02*
X86306819Y-119149762D01*
X86306819Y-119149762D02*
X86306819Y-119340238D01*
X86306819Y-119340238D02*
X86259200Y-119435476D01*
X86259200Y-119435476D02*
X86211580Y-119483095D01*
X86211580Y-119483095D02*
X86116342Y-119530714D01*
X86116342Y-119530714D02*
X85925866Y-119530714D01*
X85925866Y-119530714D02*
X85830628Y-119483095D01*
X85830628Y-119483095D02*
X85783009Y-119435476D01*
X85783009Y-119435476D02*
X85735390Y-119340238D01*
X89354819Y-137725333D02*
X88878628Y-137392000D01*
X89354819Y-137153905D02*
X88354819Y-137153905D01*
X88354819Y-137153905D02*
X88354819Y-137534857D01*
X88354819Y-137534857D02*
X88402438Y-137630095D01*
X88402438Y-137630095D02*
X88450057Y-137677714D01*
X88450057Y-137677714D02*
X88545295Y-137725333D01*
X88545295Y-137725333D02*
X88688152Y-137725333D01*
X88688152Y-137725333D02*
X88783390Y-137677714D01*
X88783390Y-137677714D02*
X88831009Y-137630095D01*
X88831009Y-137630095D02*
X88878628Y-137534857D01*
X88878628Y-137534857D02*
X88878628Y-137153905D01*
X89354819Y-138201524D02*
X89354819Y-138392000D01*
X89354819Y-138392000D02*
X89307200Y-138487238D01*
X89307200Y-138487238D02*
X89259580Y-138534857D01*
X89259580Y-138534857D02*
X89116723Y-138630095D01*
X89116723Y-138630095D02*
X88926247Y-138677714D01*
X88926247Y-138677714D02*
X88545295Y-138677714D01*
X88545295Y-138677714D02*
X88450057Y-138630095D01*
X88450057Y-138630095D02*
X88402438Y-138582476D01*
X88402438Y-138582476D02*
X88354819Y-138487238D01*
X88354819Y-138487238D02*
X88354819Y-138296762D01*
X88354819Y-138296762D02*
X88402438Y-138201524D01*
X88402438Y-138201524D02*
X88450057Y-138153905D01*
X88450057Y-138153905D02*
X88545295Y-138106286D01*
X88545295Y-138106286D02*
X88783390Y-138106286D01*
X88783390Y-138106286D02*
X88878628Y-138153905D01*
X88878628Y-138153905D02*
X88926247Y-138201524D01*
X88926247Y-138201524D02*
X88973866Y-138296762D01*
X88973866Y-138296762D02*
X88973866Y-138487238D01*
X88973866Y-138487238D02*
X88926247Y-138582476D01*
X88926247Y-138582476D02*
X88878628Y-138630095D01*
X88878628Y-138630095D02*
X88783390Y-138677714D01*
X86052819Y-137122142D02*
X85576628Y-136788809D01*
X86052819Y-136550714D02*
X85052819Y-136550714D01*
X85052819Y-136550714D02*
X85052819Y-136931666D01*
X85052819Y-136931666D02*
X85100438Y-137026904D01*
X85100438Y-137026904D02*
X85148057Y-137074523D01*
X85148057Y-137074523D02*
X85243295Y-137122142D01*
X85243295Y-137122142D02*
X85386152Y-137122142D01*
X85386152Y-137122142D02*
X85481390Y-137074523D01*
X85481390Y-137074523D02*
X85529009Y-137026904D01*
X85529009Y-137026904D02*
X85576628Y-136931666D01*
X85576628Y-136931666D02*
X85576628Y-136550714D01*
X86052819Y-138074523D02*
X86052819Y-137503095D01*
X86052819Y-137788809D02*
X85052819Y-137788809D01*
X85052819Y-137788809D02*
X85195676Y-137693571D01*
X85195676Y-137693571D02*
X85290914Y-137598333D01*
X85290914Y-137598333D02*
X85338533Y-137503095D01*
X85052819Y-138693571D02*
X85052819Y-138788809D01*
X85052819Y-138788809D02*
X85100438Y-138884047D01*
X85100438Y-138884047D02*
X85148057Y-138931666D01*
X85148057Y-138931666D02*
X85243295Y-138979285D01*
X85243295Y-138979285D02*
X85433771Y-139026904D01*
X85433771Y-139026904D02*
X85671866Y-139026904D01*
X85671866Y-139026904D02*
X85862342Y-138979285D01*
X85862342Y-138979285D02*
X85957580Y-138931666D01*
X85957580Y-138931666D02*
X86005200Y-138884047D01*
X86005200Y-138884047D02*
X86052819Y-138788809D01*
X86052819Y-138788809D02*
X86052819Y-138693571D01*
X86052819Y-138693571D02*
X86005200Y-138598333D01*
X86005200Y-138598333D02*
X85957580Y-138550714D01*
X85957580Y-138550714D02*
X85862342Y-138503095D01*
X85862342Y-138503095D02*
X85671866Y-138455476D01*
X85671866Y-138455476D02*
X85433771Y-138455476D01*
X85433771Y-138455476D02*
X85243295Y-138503095D01*
X85243295Y-138503095D02*
X85148057Y-138550714D01*
X85148057Y-138550714D02*
X85100438Y-138598333D01*
X85100438Y-138598333D02*
X85052819Y-138693571D01*
X75130819Y-73128142D02*
X74654628Y-72794809D01*
X75130819Y-72556714D02*
X74130819Y-72556714D01*
X74130819Y-72556714D02*
X74130819Y-72937666D01*
X74130819Y-72937666D02*
X74178438Y-73032904D01*
X74178438Y-73032904D02*
X74226057Y-73080523D01*
X74226057Y-73080523D02*
X74321295Y-73128142D01*
X74321295Y-73128142D02*
X74464152Y-73128142D01*
X74464152Y-73128142D02*
X74559390Y-73080523D01*
X74559390Y-73080523D02*
X74607009Y-73032904D01*
X74607009Y-73032904D02*
X74654628Y-72937666D01*
X74654628Y-72937666D02*
X74654628Y-72556714D01*
X75130819Y-74080523D02*
X75130819Y-73509095D01*
X75130819Y-73794809D02*
X74130819Y-73794809D01*
X74130819Y-73794809D02*
X74273676Y-73699571D01*
X74273676Y-73699571D02*
X74368914Y-73604333D01*
X74368914Y-73604333D02*
X74416533Y-73509095D01*
X75130819Y-75032904D02*
X75130819Y-74461476D01*
X75130819Y-74747190D02*
X74130819Y-74747190D01*
X74130819Y-74747190D02*
X74273676Y-74651952D01*
X74273676Y-74651952D02*
X74368914Y-74556714D01*
X74368914Y-74556714D02*
X74416533Y-74461476D01*
X75130819Y-93591142D02*
X74654628Y-93257809D01*
X75130819Y-93019714D02*
X74130819Y-93019714D01*
X74130819Y-93019714D02*
X74130819Y-93400666D01*
X74130819Y-93400666D02*
X74178438Y-93495904D01*
X74178438Y-93495904D02*
X74226057Y-93543523D01*
X74226057Y-93543523D02*
X74321295Y-93591142D01*
X74321295Y-93591142D02*
X74464152Y-93591142D01*
X74464152Y-93591142D02*
X74559390Y-93543523D01*
X74559390Y-93543523D02*
X74607009Y-93495904D01*
X74607009Y-93495904D02*
X74654628Y-93400666D01*
X74654628Y-93400666D02*
X74654628Y-93019714D01*
X75130819Y-94543523D02*
X75130819Y-93972095D01*
X75130819Y-94257809D02*
X74130819Y-94257809D01*
X74130819Y-94257809D02*
X74273676Y-94162571D01*
X74273676Y-94162571D02*
X74368914Y-94067333D01*
X74368914Y-94067333D02*
X74416533Y-93972095D01*
X74226057Y-94924476D02*
X74178438Y-94972095D01*
X74178438Y-94972095D02*
X74130819Y-95067333D01*
X74130819Y-95067333D02*
X74130819Y-95305428D01*
X74130819Y-95305428D02*
X74178438Y-95400666D01*
X74178438Y-95400666D02*
X74226057Y-95448285D01*
X74226057Y-95448285D02*
X74321295Y-95495904D01*
X74321295Y-95495904D02*
X74416533Y-95495904D01*
X74416533Y-95495904D02*
X74559390Y-95448285D01*
X74559390Y-95448285D02*
X75130819Y-94876857D01*
X75130819Y-94876857D02*
X75130819Y-95495904D01*
X76451619Y-110710742D02*
X75975428Y-110377409D01*
X76451619Y-110139314D02*
X75451619Y-110139314D01*
X75451619Y-110139314D02*
X75451619Y-110520266D01*
X75451619Y-110520266D02*
X75499238Y-110615504D01*
X75499238Y-110615504D02*
X75546857Y-110663123D01*
X75546857Y-110663123D02*
X75642095Y-110710742D01*
X75642095Y-110710742D02*
X75784952Y-110710742D01*
X75784952Y-110710742D02*
X75880190Y-110663123D01*
X75880190Y-110663123D02*
X75927809Y-110615504D01*
X75927809Y-110615504D02*
X75975428Y-110520266D01*
X75975428Y-110520266D02*
X75975428Y-110139314D01*
X76451619Y-111663123D02*
X76451619Y-111091695D01*
X76451619Y-111377409D02*
X75451619Y-111377409D01*
X75451619Y-111377409D02*
X75594476Y-111282171D01*
X75594476Y-111282171D02*
X75689714Y-111186933D01*
X75689714Y-111186933D02*
X75737333Y-111091695D01*
X75451619Y-111996457D02*
X75451619Y-112615504D01*
X75451619Y-112615504D02*
X75832571Y-112282171D01*
X75832571Y-112282171D02*
X75832571Y-112425028D01*
X75832571Y-112425028D02*
X75880190Y-112520266D01*
X75880190Y-112520266D02*
X75927809Y-112567885D01*
X75927809Y-112567885D02*
X76023047Y-112615504D01*
X76023047Y-112615504D02*
X76261142Y-112615504D01*
X76261142Y-112615504D02*
X76356380Y-112567885D01*
X76356380Y-112567885D02*
X76404000Y-112520266D01*
X76404000Y-112520266D02*
X76451619Y-112425028D01*
X76451619Y-112425028D02*
X76451619Y-112139314D01*
X76451619Y-112139314D02*
X76404000Y-112044076D01*
X76404000Y-112044076D02*
X76356380Y-111996457D01*
X75215487Y-133358142D02*
X74739296Y-133024809D01*
X75215487Y-132786714D02*
X74215487Y-132786714D01*
X74215487Y-132786714D02*
X74215487Y-133167666D01*
X74215487Y-133167666D02*
X74263106Y-133262904D01*
X74263106Y-133262904D02*
X74310725Y-133310523D01*
X74310725Y-133310523D02*
X74405963Y-133358142D01*
X74405963Y-133358142D02*
X74548820Y-133358142D01*
X74548820Y-133358142D02*
X74644058Y-133310523D01*
X74644058Y-133310523D02*
X74691677Y-133262904D01*
X74691677Y-133262904D02*
X74739296Y-133167666D01*
X74739296Y-133167666D02*
X74739296Y-132786714D01*
X75215487Y-134310523D02*
X75215487Y-133739095D01*
X75215487Y-134024809D02*
X74215487Y-134024809D01*
X74215487Y-134024809D02*
X74358344Y-133929571D01*
X74358344Y-133929571D02*
X74453582Y-133834333D01*
X74453582Y-133834333D02*
X74501201Y-133739095D01*
X74548820Y-135167666D02*
X75215487Y-135167666D01*
X74167868Y-134929571D02*
X74882153Y-134691476D01*
X74882153Y-134691476D02*
X74882153Y-135310523D01*
X71574819Y-72763142D02*
X71098628Y-72429809D01*
X71574819Y-72191714D02*
X70574819Y-72191714D01*
X70574819Y-72191714D02*
X70574819Y-72572666D01*
X70574819Y-72572666D02*
X70622438Y-72667904D01*
X70622438Y-72667904D02*
X70670057Y-72715523D01*
X70670057Y-72715523D02*
X70765295Y-72763142D01*
X70765295Y-72763142D02*
X70908152Y-72763142D01*
X70908152Y-72763142D02*
X71003390Y-72715523D01*
X71003390Y-72715523D02*
X71051009Y-72667904D01*
X71051009Y-72667904D02*
X71098628Y-72572666D01*
X71098628Y-72572666D02*
X71098628Y-72191714D01*
X71574819Y-73715523D02*
X71574819Y-73144095D01*
X71574819Y-73429809D02*
X70574819Y-73429809D01*
X70574819Y-73429809D02*
X70717676Y-73334571D01*
X70717676Y-73334571D02*
X70812914Y-73239333D01*
X70812914Y-73239333D02*
X70860533Y-73144095D01*
X70574819Y-74620285D02*
X70574819Y-74144095D01*
X70574819Y-74144095D02*
X71051009Y-74096476D01*
X71051009Y-74096476D02*
X71003390Y-74144095D01*
X71003390Y-74144095D02*
X70955771Y-74239333D01*
X70955771Y-74239333D02*
X70955771Y-74477428D01*
X70955771Y-74477428D02*
X71003390Y-74572666D01*
X71003390Y-74572666D02*
X71051009Y-74620285D01*
X71051009Y-74620285D02*
X71146247Y-74667904D01*
X71146247Y-74667904D02*
X71384342Y-74667904D01*
X71384342Y-74667904D02*
X71479580Y-74620285D01*
X71479580Y-74620285D02*
X71527200Y-74572666D01*
X71527200Y-74572666D02*
X71574819Y-74477428D01*
X71574819Y-74477428D02*
X71574819Y-74239333D01*
X71574819Y-74239333D02*
X71527200Y-74144095D01*
X71527200Y-74144095D02*
X71479580Y-74096476D01*
X71955819Y-93337142D02*
X71479628Y-93003809D01*
X71955819Y-92765714D02*
X70955819Y-92765714D01*
X70955819Y-92765714D02*
X70955819Y-93146666D01*
X70955819Y-93146666D02*
X71003438Y-93241904D01*
X71003438Y-93241904D02*
X71051057Y-93289523D01*
X71051057Y-93289523D02*
X71146295Y-93337142D01*
X71146295Y-93337142D02*
X71289152Y-93337142D01*
X71289152Y-93337142D02*
X71384390Y-93289523D01*
X71384390Y-93289523D02*
X71432009Y-93241904D01*
X71432009Y-93241904D02*
X71479628Y-93146666D01*
X71479628Y-93146666D02*
X71479628Y-92765714D01*
X71955819Y-94289523D02*
X71955819Y-93718095D01*
X71955819Y-94003809D02*
X70955819Y-94003809D01*
X70955819Y-94003809D02*
X71098676Y-93908571D01*
X71098676Y-93908571D02*
X71193914Y-93813333D01*
X71193914Y-93813333D02*
X71241533Y-93718095D01*
X70955819Y-95146666D02*
X70955819Y-94956190D01*
X70955819Y-94956190D02*
X71003438Y-94860952D01*
X71003438Y-94860952D02*
X71051057Y-94813333D01*
X71051057Y-94813333D02*
X71193914Y-94718095D01*
X71193914Y-94718095D02*
X71384390Y-94670476D01*
X71384390Y-94670476D02*
X71765342Y-94670476D01*
X71765342Y-94670476D02*
X71860580Y-94718095D01*
X71860580Y-94718095D02*
X71908200Y-94765714D01*
X71908200Y-94765714D02*
X71955819Y-94860952D01*
X71955819Y-94860952D02*
X71955819Y-95051428D01*
X71955819Y-95051428D02*
X71908200Y-95146666D01*
X71908200Y-95146666D02*
X71860580Y-95194285D01*
X71860580Y-95194285D02*
X71765342Y-95241904D01*
X71765342Y-95241904D02*
X71527247Y-95241904D01*
X71527247Y-95241904D02*
X71432009Y-95194285D01*
X71432009Y-95194285D02*
X71384390Y-95146666D01*
X71384390Y-95146666D02*
X71336771Y-95051428D01*
X71336771Y-95051428D02*
X71336771Y-94860952D01*
X71336771Y-94860952D02*
X71384390Y-94765714D01*
X71384390Y-94765714D02*
X71432009Y-94718095D01*
X71432009Y-94718095D02*
X71527247Y-94670476D01*
X71625619Y-113555542D02*
X71149428Y-113222209D01*
X71625619Y-112984114D02*
X70625619Y-112984114D01*
X70625619Y-112984114D02*
X70625619Y-113365066D01*
X70625619Y-113365066D02*
X70673238Y-113460304D01*
X70673238Y-113460304D02*
X70720857Y-113507923D01*
X70720857Y-113507923D02*
X70816095Y-113555542D01*
X70816095Y-113555542D02*
X70958952Y-113555542D01*
X70958952Y-113555542D02*
X71054190Y-113507923D01*
X71054190Y-113507923D02*
X71101809Y-113460304D01*
X71101809Y-113460304D02*
X71149428Y-113365066D01*
X71149428Y-113365066D02*
X71149428Y-112984114D01*
X71625619Y-114507923D02*
X71625619Y-113936495D01*
X71625619Y-114222209D02*
X70625619Y-114222209D01*
X70625619Y-114222209D02*
X70768476Y-114126971D01*
X70768476Y-114126971D02*
X70863714Y-114031733D01*
X70863714Y-114031733D02*
X70911333Y-113936495D01*
X70625619Y-114841257D02*
X70625619Y-115507923D01*
X70625619Y-115507923D02*
X71625619Y-115079352D01*
X71765319Y-133262642D02*
X71289128Y-132929309D01*
X71765319Y-132691214D02*
X70765319Y-132691214D01*
X70765319Y-132691214D02*
X70765319Y-133072166D01*
X70765319Y-133072166D02*
X70812938Y-133167404D01*
X70812938Y-133167404D02*
X70860557Y-133215023D01*
X70860557Y-133215023D02*
X70955795Y-133262642D01*
X70955795Y-133262642D02*
X71098652Y-133262642D01*
X71098652Y-133262642D02*
X71193890Y-133215023D01*
X71193890Y-133215023D02*
X71241509Y-133167404D01*
X71241509Y-133167404D02*
X71289128Y-133072166D01*
X71289128Y-133072166D02*
X71289128Y-132691214D01*
X71765319Y-134215023D02*
X71765319Y-133643595D01*
X71765319Y-133929309D02*
X70765319Y-133929309D01*
X70765319Y-133929309D02*
X70908176Y-133834071D01*
X70908176Y-133834071D02*
X71003414Y-133738833D01*
X71003414Y-133738833D02*
X71051033Y-133643595D01*
X71193890Y-134786452D02*
X71146271Y-134691214D01*
X71146271Y-134691214D02*
X71098652Y-134643595D01*
X71098652Y-134643595D02*
X71003414Y-134595976D01*
X71003414Y-134595976D02*
X70955795Y-134595976D01*
X70955795Y-134595976D02*
X70860557Y-134643595D01*
X70860557Y-134643595D02*
X70812938Y-134691214D01*
X70812938Y-134691214D02*
X70765319Y-134786452D01*
X70765319Y-134786452D02*
X70765319Y-134976928D01*
X70765319Y-134976928D02*
X70812938Y-135072166D01*
X70812938Y-135072166D02*
X70860557Y-135119785D01*
X70860557Y-135119785D02*
X70955795Y-135167404D01*
X70955795Y-135167404D02*
X71003414Y-135167404D01*
X71003414Y-135167404D02*
X71098652Y-135119785D01*
X71098652Y-135119785D02*
X71146271Y-135072166D01*
X71146271Y-135072166D02*
X71193890Y-134976928D01*
X71193890Y-134976928D02*
X71193890Y-134786452D01*
X71193890Y-134786452D02*
X71241509Y-134691214D01*
X71241509Y-134691214D02*
X71289128Y-134643595D01*
X71289128Y-134643595D02*
X71384366Y-134595976D01*
X71384366Y-134595976D02*
X71574842Y-134595976D01*
X71574842Y-134595976D02*
X71670080Y-134643595D01*
X71670080Y-134643595D02*
X71717700Y-134691214D01*
X71717700Y-134691214D02*
X71765319Y-134786452D01*
X71765319Y-134786452D02*
X71765319Y-134976928D01*
X71765319Y-134976928D02*
X71717700Y-135072166D01*
X71717700Y-135072166D02*
X71670080Y-135119785D01*
X71670080Y-135119785D02*
X71574842Y-135167404D01*
X71574842Y-135167404D02*
X71384366Y-135167404D01*
X71384366Y-135167404D02*
X71289128Y-135119785D01*
X71289128Y-135119785D02*
X71241509Y-135072166D01*
X71241509Y-135072166D02*
X71193890Y-134976928D01*
X72463819Y-76192142D02*
X71987628Y-75858809D01*
X72463819Y-75620714D02*
X71463819Y-75620714D01*
X71463819Y-75620714D02*
X71463819Y-76001666D01*
X71463819Y-76001666D02*
X71511438Y-76096904D01*
X71511438Y-76096904D02*
X71559057Y-76144523D01*
X71559057Y-76144523D02*
X71654295Y-76192142D01*
X71654295Y-76192142D02*
X71797152Y-76192142D01*
X71797152Y-76192142D02*
X71892390Y-76144523D01*
X71892390Y-76144523D02*
X71940009Y-76096904D01*
X71940009Y-76096904D02*
X71987628Y-76001666D01*
X71987628Y-76001666D02*
X71987628Y-75620714D01*
X72463819Y-77144523D02*
X72463819Y-76573095D01*
X72463819Y-76858809D02*
X71463819Y-76858809D01*
X71463819Y-76858809D02*
X71606676Y-76763571D01*
X71606676Y-76763571D02*
X71701914Y-76668333D01*
X71701914Y-76668333D02*
X71749533Y-76573095D01*
X72463819Y-77620714D02*
X72463819Y-77811190D01*
X72463819Y-77811190D02*
X72416200Y-77906428D01*
X72416200Y-77906428D02*
X72368580Y-77954047D01*
X72368580Y-77954047D02*
X72225723Y-78049285D01*
X72225723Y-78049285D02*
X72035247Y-78096904D01*
X72035247Y-78096904D02*
X71654295Y-78096904D01*
X71654295Y-78096904D02*
X71559057Y-78049285D01*
X71559057Y-78049285D02*
X71511438Y-78001666D01*
X71511438Y-78001666D02*
X71463819Y-77906428D01*
X71463819Y-77906428D02*
X71463819Y-77715952D01*
X71463819Y-77715952D02*
X71511438Y-77620714D01*
X71511438Y-77620714D02*
X71559057Y-77573095D01*
X71559057Y-77573095D02*
X71654295Y-77525476D01*
X71654295Y-77525476D02*
X71892390Y-77525476D01*
X71892390Y-77525476D02*
X71987628Y-77573095D01*
X71987628Y-77573095D02*
X72035247Y-77620714D01*
X72035247Y-77620714D02*
X72082866Y-77715952D01*
X72082866Y-77715952D02*
X72082866Y-77906428D01*
X72082866Y-77906428D02*
X72035247Y-78001666D01*
X72035247Y-78001666D02*
X71987628Y-78049285D01*
X71987628Y-78049285D02*
X71892390Y-78096904D01*
X72574819Y-96537142D02*
X72098628Y-96203809D01*
X72574819Y-95965714D02*
X71574819Y-95965714D01*
X71574819Y-95965714D02*
X71574819Y-96346666D01*
X71574819Y-96346666D02*
X71622438Y-96441904D01*
X71622438Y-96441904D02*
X71670057Y-96489523D01*
X71670057Y-96489523D02*
X71765295Y-96537142D01*
X71765295Y-96537142D02*
X71908152Y-96537142D01*
X71908152Y-96537142D02*
X72003390Y-96489523D01*
X72003390Y-96489523D02*
X72051009Y-96441904D01*
X72051009Y-96441904D02*
X72098628Y-96346666D01*
X72098628Y-96346666D02*
X72098628Y-95965714D01*
X71670057Y-96918095D02*
X71622438Y-96965714D01*
X71622438Y-96965714D02*
X71574819Y-97060952D01*
X71574819Y-97060952D02*
X71574819Y-97299047D01*
X71574819Y-97299047D02*
X71622438Y-97394285D01*
X71622438Y-97394285D02*
X71670057Y-97441904D01*
X71670057Y-97441904D02*
X71765295Y-97489523D01*
X71765295Y-97489523D02*
X71860533Y-97489523D01*
X71860533Y-97489523D02*
X72003390Y-97441904D01*
X72003390Y-97441904D02*
X72574819Y-96870476D01*
X72574819Y-96870476D02*
X72574819Y-97489523D01*
X71574819Y-98108571D02*
X71574819Y-98203809D01*
X71574819Y-98203809D02*
X71622438Y-98299047D01*
X71622438Y-98299047D02*
X71670057Y-98346666D01*
X71670057Y-98346666D02*
X71765295Y-98394285D01*
X71765295Y-98394285D02*
X71955771Y-98441904D01*
X71955771Y-98441904D02*
X72193866Y-98441904D01*
X72193866Y-98441904D02*
X72384342Y-98394285D01*
X72384342Y-98394285D02*
X72479580Y-98346666D01*
X72479580Y-98346666D02*
X72527200Y-98299047D01*
X72527200Y-98299047D02*
X72574819Y-98203809D01*
X72574819Y-98203809D02*
X72574819Y-98108571D01*
X72574819Y-98108571D02*
X72527200Y-98013333D01*
X72527200Y-98013333D02*
X72479580Y-97965714D01*
X72479580Y-97965714D02*
X72384342Y-97918095D01*
X72384342Y-97918095D02*
X72193866Y-97870476D01*
X72193866Y-97870476D02*
X71955771Y-97870476D01*
X71955771Y-97870476D02*
X71765295Y-97918095D01*
X71765295Y-97918095D02*
X71670057Y-97965714D01*
X71670057Y-97965714D02*
X71622438Y-98013333D01*
X71622438Y-98013333D02*
X71574819Y-98108571D01*
X72463819Y-117467142D02*
X71987628Y-117133809D01*
X72463819Y-116895714D02*
X71463819Y-116895714D01*
X71463819Y-116895714D02*
X71463819Y-117276666D01*
X71463819Y-117276666D02*
X71511438Y-117371904D01*
X71511438Y-117371904D02*
X71559057Y-117419523D01*
X71559057Y-117419523D02*
X71654295Y-117467142D01*
X71654295Y-117467142D02*
X71797152Y-117467142D01*
X71797152Y-117467142D02*
X71892390Y-117419523D01*
X71892390Y-117419523D02*
X71940009Y-117371904D01*
X71940009Y-117371904D02*
X71987628Y-117276666D01*
X71987628Y-117276666D02*
X71987628Y-116895714D01*
X71559057Y-117848095D02*
X71511438Y-117895714D01*
X71511438Y-117895714D02*
X71463819Y-117990952D01*
X71463819Y-117990952D02*
X71463819Y-118229047D01*
X71463819Y-118229047D02*
X71511438Y-118324285D01*
X71511438Y-118324285D02*
X71559057Y-118371904D01*
X71559057Y-118371904D02*
X71654295Y-118419523D01*
X71654295Y-118419523D02*
X71749533Y-118419523D01*
X71749533Y-118419523D02*
X71892390Y-118371904D01*
X71892390Y-118371904D02*
X72463819Y-117800476D01*
X72463819Y-117800476D02*
X72463819Y-118419523D01*
X72463819Y-119371904D02*
X72463819Y-118800476D01*
X72463819Y-119086190D02*
X71463819Y-119086190D01*
X71463819Y-119086190D02*
X71606676Y-118990952D01*
X71606676Y-118990952D02*
X71701914Y-118895714D01*
X71701914Y-118895714D02*
X71749533Y-118800476D01*
X72590819Y-136517142D02*
X72114628Y-136183809D01*
X72590819Y-135945714D02*
X71590819Y-135945714D01*
X71590819Y-135945714D02*
X71590819Y-136326666D01*
X71590819Y-136326666D02*
X71638438Y-136421904D01*
X71638438Y-136421904D02*
X71686057Y-136469523D01*
X71686057Y-136469523D02*
X71781295Y-136517142D01*
X71781295Y-136517142D02*
X71924152Y-136517142D01*
X71924152Y-136517142D02*
X72019390Y-136469523D01*
X72019390Y-136469523D02*
X72067009Y-136421904D01*
X72067009Y-136421904D02*
X72114628Y-136326666D01*
X72114628Y-136326666D02*
X72114628Y-135945714D01*
X71686057Y-136898095D02*
X71638438Y-136945714D01*
X71638438Y-136945714D02*
X71590819Y-137040952D01*
X71590819Y-137040952D02*
X71590819Y-137279047D01*
X71590819Y-137279047D02*
X71638438Y-137374285D01*
X71638438Y-137374285D02*
X71686057Y-137421904D01*
X71686057Y-137421904D02*
X71781295Y-137469523D01*
X71781295Y-137469523D02*
X71876533Y-137469523D01*
X71876533Y-137469523D02*
X72019390Y-137421904D01*
X72019390Y-137421904D02*
X72590819Y-136850476D01*
X72590819Y-136850476D02*
X72590819Y-137469523D01*
X71686057Y-137850476D02*
X71638438Y-137898095D01*
X71638438Y-137898095D02*
X71590819Y-137993333D01*
X71590819Y-137993333D02*
X71590819Y-138231428D01*
X71590819Y-138231428D02*
X71638438Y-138326666D01*
X71638438Y-138326666D02*
X71686057Y-138374285D01*
X71686057Y-138374285D02*
X71781295Y-138421904D01*
X71781295Y-138421904D02*
X71876533Y-138421904D01*
X71876533Y-138421904D02*
X72019390Y-138374285D01*
X72019390Y-138374285D02*
X72590819Y-137802857D01*
X72590819Y-137802857D02*
X72590819Y-138421904D01*
X52778819Y-141694142D02*
X52302628Y-141360809D01*
X52778819Y-141122714D02*
X51778819Y-141122714D01*
X51778819Y-141122714D02*
X51778819Y-141503666D01*
X51778819Y-141503666D02*
X51826438Y-141598904D01*
X51826438Y-141598904D02*
X51874057Y-141646523D01*
X51874057Y-141646523D02*
X51969295Y-141694142D01*
X51969295Y-141694142D02*
X52112152Y-141694142D01*
X52112152Y-141694142D02*
X52207390Y-141646523D01*
X52207390Y-141646523D02*
X52255009Y-141598904D01*
X52255009Y-141598904D02*
X52302628Y-141503666D01*
X52302628Y-141503666D02*
X52302628Y-141122714D01*
X51874057Y-142075095D02*
X51826438Y-142122714D01*
X51826438Y-142122714D02*
X51778819Y-142217952D01*
X51778819Y-142217952D02*
X51778819Y-142456047D01*
X51778819Y-142456047D02*
X51826438Y-142551285D01*
X51826438Y-142551285D02*
X51874057Y-142598904D01*
X51874057Y-142598904D02*
X51969295Y-142646523D01*
X51969295Y-142646523D02*
X52064533Y-142646523D01*
X52064533Y-142646523D02*
X52207390Y-142598904D01*
X52207390Y-142598904D02*
X52778819Y-142027476D01*
X52778819Y-142027476D02*
X52778819Y-142646523D01*
X52112152Y-143503666D02*
X52778819Y-143503666D01*
X51731200Y-143265571D02*
X52445485Y-143027476D01*
X52445485Y-143027476D02*
X52445485Y-143646523D01*
X56080869Y-141694142D02*
X55604678Y-141360809D01*
X56080869Y-141122714D02*
X55080869Y-141122714D01*
X55080869Y-141122714D02*
X55080869Y-141503666D01*
X55080869Y-141503666D02*
X55128488Y-141598904D01*
X55128488Y-141598904D02*
X55176107Y-141646523D01*
X55176107Y-141646523D02*
X55271345Y-141694142D01*
X55271345Y-141694142D02*
X55414202Y-141694142D01*
X55414202Y-141694142D02*
X55509440Y-141646523D01*
X55509440Y-141646523D02*
X55557059Y-141598904D01*
X55557059Y-141598904D02*
X55604678Y-141503666D01*
X55604678Y-141503666D02*
X55604678Y-141122714D01*
X55176107Y-142075095D02*
X55128488Y-142122714D01*
X55128488Y-142122714D02*
X55080869Y-142217952D01*
X55080869Y-142217952D02*
X55080869Y-142456047D01*
X55080869Y-142456047D02*
X55128488Y-142551285D01*
X55128488Y-142551285D02*
X55176107Y-142598904D01*
X55176107Y-142598904D02*
X55271345Y-142646523D01*
X55271345Y-142646523D02*
X55366583Y-142646523D01*
X55366583Y-142646523D02*
X55509440Y-142598904D01*
X55509440Y-142598904D02*
X56080869Y-142027476D01*
X56080869Y-142027476D02*
X56080869Y-142646523D01*
X55080869Y-143551285D02*
X55080869Y-143075095D01*
X55080869Y-143075095D02*
X55557059Y-143027476D01*
X55557059Y-143027476D02*
X55509440Y-143075095D01*
X55509440Y-143075095D02*
X55461821Y-143170333D01*
X55461821Y-143170333D02*
X55461821Y-143408428D01*
X55461821Y-143408428D02*
X55509440Y-143503666D01*
X55509440Y-143503666D02*
X55557059Y-143551285D01*
X55557059Y-143551285D02*
X55652297Y-143598904D01*
X55652297Y-143598904D02*
X55890392Y-143598904D01*
X55890392Y-143598904D02*
X55985630Y-143551285D01*
X55985630Y-143551285D02*
X56033250Y-143503666D01*
X56033250Y-143503666D02*
X56080869Y-143408428D01*
X56080869Y-143408428D02*
X56080869Y-143170333D01*
X56080869Y-143170333D02*
X56033250Y-143075095D01*
X56033250Y-143075095D02*
X55985630Y-143027476D01*
X59128819Y-141694142D02*
X58652628Y-141360809D01*
X59128819Y-141122714D02*
X58128819Y-141122714D01*
X58128819Y-141122714D02*
X58128819Y-141503666D01*
X58128819Y-141503666D02*
X58176438Y-141598904D01*
X58176438Y-141598904D02*
X58224057Y-141646523D01*
X58224057Y-141646523D02*
X58319295Y-141694142D01*
X58319295Y-141694142D02*
X58462152Y-141694142D01*
X58462152Y-141694142D02*
X58557390Y-141646523D01*
X58557390Y-141646523D02*
X58605009Y-141598904D01*
X58605009Y-141598904D02*
X58652628Y-141503666D01*
X58652628Y-141503666D02*
X58652628Y-141122714D01*
X58224057Y-142075095D02*
X58176438Y-142122714D01*
X58176438Y-142122714D02*
X58128819Y-142217952D01*
X58128819Y-142217952D02*
X58128819Y-142456047D01*
X58128819Y-142456047D02*
X58176438Y-142551285D01*
X58176438Y-142551285D02*
X58224057Y-142598904D01*
X58224057Y-142598904D02*
X58319295Y-142646523D01*
X58319295Y-142646523D02*
X58414533Y-142646523D01*
X58414533Y-142646523D02*
X58557390Y-142598904D01*
X58557390Y-142598904D02*
X59128819Y-142027476D01*
X59128819Y-142027476D02*
X59128819Y-142646523D01*
X58128819Y-143503666D02*
X58128819Y-143313190D01*
X58128819Y-143313190D02*
X58176438Y-143217952D01*
X58176438Y-143217952D02*
X58224057Y-143170333D01*
X58224057Y-143170333D02*
X58366914Y-143075095D01*
X58366914Y-143075095D02*
X58557390Y-143027476D01*
X58557390Y-143027476D02*
X58938342Y-143027476D01*
X58938342Y-143027476D02*
X59033580Y-143075095D01*
X59033580Y-143075095D02*
X59081200Y-143122714D01*
X59081200Y-143122714D02*
X59128819Y-143217952D01*
X59128819Y-143217952D02*
X59128819Y-143408428D01*
X59128819Y-143408428D02*
X59081200Y-143503666D01*
X59081200Y-143503666D02*
X59033580Y-143551285D01*
X59033580Y-143551285D02*
X58938342Y-143598904D01*
X58938342Y-143598904D02*
X58700247Y-143598904D01*
X58700247Y-143598904D02*
X58605009Y-143551285D01*
X58605009Y-143551285D02*
X58557390Y-143503666D01*
X58557390Y-143503666D02*
X58509771Y-143408428D01*
X58509771Y-143408428D02*
X58509771Y-143217952D01*
X58509771Y-143217952D02*
X58557390Y-143122714D01*
X58557390Y-143122714D02*
X58605009Y-143075095D01*
X58605009Y-143075095D02*
X58700247Y-143027476D01*
X62313019Y-141694142D02*
X61836828Y-141360809D01*
X62313019Y-141122714D02*
X61313019Y-141122714D01*
X61313019Y-141122714D02*
X61313019Y-141503666D01*
X61313019Y-141503666D02*
X61360638Y-141598904D01*
X61360638Y-141598904D02*
X61408257Y-141646523D01*
X61408257Y-141646523D02*
X61503495Y-141694142D01*
X61503495Y-141694142D02*
X61646352Y-141694142D01*
X61646352Y-141694142D02*
X61741590Y-141646523D01*
X61741590Y-141646523D02*
X61789209Y-141598904D01*
X61789209Y-141598904D02*
X61836828Y-141503666D01*
X61836828Y-141503666D02*
X61836828Y-141122714D01*
X61408257Y-142075095D02*
X61360638Y-142122714D01*
X61360638Y-142122714D02*
X61313019Y-142217952D01*
X61313019Y-142217952D02*
X61313019Y-142456047D01*
X61313019Y-142456047D02*
X61360638Y-142551285D01*
X61360638Y-142551285D02*
X61408257Y-142598904D01*
X61408257Y-142598904D02*
X61503495Y-142646523D01*
X61503495Y-142646523D02*
X61598733Y-142646523D01*
X61598733Y-142646523D02*
X61741590Y-142598904D01*
X61741590Y-142598904D02*
X62313019Y-142027476D01*
X62313019Y-142027476D02*
X62313019Y-142646523D01*
X61313019Y-142979857D02*
X61313019Y-143646523D01*
X61313019Y-143646523D02*
X62313019Y-143217952D01*
X56334819Y-148201142D02*
X55858628Y-147867809D01*
X56334819Y-147629714D02*
X55334819Y-147629714D01*
X55334819Y-147629714D02*
X55334819Y-148010666D01*
X55334819Y-148010666D02*
X55382438Y-148105904D01*
X55382438Y-148105904D02*
X55430057Y-148153523D01*
X55430057Y-148153523D02*
X55525295Y-148201142D01*
X55525295Y-148201142D02*
X55668152Y-148201142D01*
X55668152Y-148201142D02*
X55763390Y-148153523D01*
X55763390Y-148153523D02*
X55811009Y-148105904D01*
X55811009Y-148105904D02*
X55858628Y-148010666D01*
X55858628Y-148010666D02*
X55858628Y-147629714D01*
X55334819Y-148534476D02*
X55334819Y-149153523D01*
X55334819Y-149153523D02*
X55715771Y-148820190D01*
X55715771Y-148820190D02*
X55715771Y-148963047D01*
X55715771Y-148963047D02*
X55763390Y-149058285D01*
X55763390Y-149058285D02*
X55811009Y-149105904D01*
X55811009Y-149105904D02*
X55906247Y-149153523D01*
X55906247Y-149153523D02*
X56144342Y-149153523D01*
X56144342Y-149153523D02*
X56239580Y-149105904D01*
X56239580Y-149105904D02*
X56287200Y-149058285D01*
X56287200Y-149058285D02*
X56334819Y-148963047D01*
X56334819Y-148963047D02*
X56334819Y-148677333D01*
X56334819Y-148677333D02*
X56287200Y-148582095D01*
X56287200Y-148582095D02*
X56239580Y-148534476D01*
X56334819Y-150105904D02*
X56334819Y-149534476D01*
X56334819Y-149820190D02*
X55334819Y-149820190D01*
X55334819Y-149820190D02*
X55477676Y-149724952D01*
X55477676Y-149724952D02*
X55572914Y-149629714D01*
X55572914Y-149629714D02*
X55620533Y-149534476D01*
X69857857Y-145742819D02*
X70191190Y-145266628D01*
X70429285Y-145742819D02*
X70429285Y-144742819D01*
X70429285Y-144742819D02*
X70048333Y-144742819D01*
X70048333Y-144742819D02*
X69953095Y-144790438D01*
X69953095Y-144790438D02*
X69905476Y-144838057D01*
X69905476Y-144838057D02*
X69857857Y-144933295D01*
X69857857Y-144933295D02*
X69857857Y-145076152D01*
X69857857Y-145076152D02*
X69905476Y-145171390D01*
X69905476Y-145171390D02*
X69953095Y-145219009D01*
X69953095Y-145219009D02*
X70048333Y-145266628D01*
X70048333Y-145266628D02*
X70429285Y-145266628D01*
X69524523Y-144742819D02*
X68905476Y-144742819D01*
X68905476Y-144742819D02*
X69238809Y-145123771D01*
X69238809Y-145123771D02*
X69095952Y-145123771D01*
X69095952Y-145123771D02*
X69000714Y-145171390D01*
X69000714Y-145171390D02*
X68953095Y-145219009D01*
X68953095Y-145219009D02*
X68905476Y-145314247D01*
X68905476Y-145314247D02*
X68905476Y-145552342D01*
X68905476Y-145552342D02*
X68953095Y-145647580D01*
X68953095Y-145647580D02*
X69000714Y-145695200D01*
X69000714Y-145695200D02*
X69095952Y-145742819D01*
X69095952Y-145742819D02*
X69381666Y-145742819D01*
X69381666Y-145742819D02*
X69476904Y-145695200D01*
X69476904Y-145695200D02*
X69524523Y-145647580D01*
X68572142Y-144742819D02*
X67953095Y-144742819D01*
X67953095Y-144742819D02*
X68286428Y-145123771D01*
X68286428Y-145123771D02*
X68143571Y-145123771D01*
X68143571Y-145123771D02*
X68048333Y-145171390D01*
X68048333Y-145171390D02*
X68000714Y-145219009D01*
X68000714Y-145219009D02*
X67953095Y-145314247D01*
X67953095Y-145314247D02*
X67953095Y-145552342D01*
X67953095Y-145552342D02*
X68000714Y-145647580D01*
X68000714Y-145647580D02*
X68048333Y-145695200D01*
X68048333Y-145695200D02*
X68143571Y-145742819D01*
X68143571Y-145742819D02*
X68429285Y-145742819D01*
X68429285Y-145742819D02*
X68524523Y-145695200D01*
X68524523Y-145695200D02*
X68572142Y-145647580D01*
X69857857Y-149044819D02*
X70191190Y-148568628D01*
X70429285Y-149044819D02*
X70429285Y-148044819D01*
X70429285Y-148044819D02*
X70048333Y-148044819D01*
X70048333Y-148044819D02*
X69953095Y-148092438D01*
X69953095Y-148092438D02*
X69905476Y-148140057D01*
X69905476Y-148140057D02*
X69857857Y-148235295D01*
X69857857Y-148235295D02*
X69857857Y-148378152D01*
X69857857Y-148378152D02*
X69905476Y-148473390D01*
X69905476Y-148473390D02*
X69953095Y-148521009D01*
X69953095Y-148521009D02*
X70048333Y-148568628D01*
X70048333Y-148568628D02*
X70429285Y-148568628D01*
X69524523Y-148044819D02*
X68905476Y-148044819D01*
X68905476Y-148044819D02*
X69238809Y-148425771D01*
X69238809Y-148425771D02*
X69095952Y-148425771D01*
X69095952Y-148425771D02*
X69000714Y-148473390D01*
X69000714Y-148473390D02*
X68953095Y-148521009D01*
X68953095Y-148521009D02*
X68905476Y-148616247D01*
X68905476Y-148616247D02*
X68905476Y-148854342D01*
X68905476Y-148854342D02*
X68953095Y-148949580D01*
X68953095Y-148949580D02*
X69000714Y-148997200D01*
X69000714Y-148997200D02*
X69095952Y-149044819D01*
X69095952Y-149044819D02*
X69381666Y-149044819D01*
X69381666Y-149044819D02*
X69476904Y-148997200D01*
X69476904Y-148997200D02*
X69524523Y-148949580D01*
X68048333Y-148044819D02*
X68238809Y-148044819D01*
X68238809Y-148044819D02*
X68334047Y-148092438D01*
X68334047Y-148092438D02*
X68381666Y-148140057D01*
X68381666Y-148140057D02*
X68476904Y-148282914D01*
X68476904Y-148282914D02*
X68524523Y-148473390D01*
X68524523Y-148473390D02*
X68524523Y-148854342D01*
X68524523Y-148854342D02*
X68476904Y-148949580D01*
X68476904Y-148949580D02*
X68429285Y-148997200D01*
X68429285Y-148997200D02*
X68334047Y-149044819D01*
X68334047Y-149044819D02*
X68143571Y-149044819D01*
X68143571Y-149044819D02*
X68048333Y-148997200D01*
X68048333Y-148997200D02*
X68000714Y-148949580D01*
X68000714Y-148949580D02*
X67953095Y-148854342D01*
X67953095Y-148854342D02*
X67953095Y-148616247D01*
X67953095Y-148616247D02*
X68000714Y-148521009D01*
X68000714Y-148521009D02*
X68048333Y-148473390D01*
X68048333Y-148473390D02*
X68143571Y-148425771D01*
X68143571Y-148425771D02*
X68334047Y-148425771D01*
X68334047Y-148425771D02*
X68429285Y-148473390D01*
X68429285Y-148473390D02*
X68476904Y-148521009D01*
X68476904Y-148521009D02*
X68524523Y-148616247D01*
X77858857Y-151076819D02*
X78192190Y-150600628D01*
X78430285Y-151076819D02*
X78430285Y-150076819D01*
X78430285Y-150076819D02*
X78049333Y-150076819D01*
X78049333Y-150076819D02*
X77954095Y-150124438D01*
X77954095Y-150124438D02*
X77906476Y-150172057D01*
X77906476Y-150172057D02*
X77858857Y-150267295D01*
X77858857Y-150267295D02*
X77858857Y-150410152D01*
X77858857Y-150410152D02*
X77906476Y-150505390D01*
X77906476Y-150505390D02*
X77954095Y-150553009D01*
X77954095Y-150553009D02*
X78049333Y-150600628D01*
X78049333Y-150600628D02*
X78430285Y-150600628D01*
X77525523Y-150076819D02*
X76906476Y-150076819D01*
X76906476Y-150076819D02*
X77239809Y-150457771D01*
X77239809Y-150457771D02*
X77096952Y-150457771D01*
X77096952Y-150457771D02*
X77001714Y-150505390D01*
X77001714Y-150505390D02*
X76954095Y-150553009D01*
X76954095Y-150553009D02*
X76906476Y-150648247D01*
X76906476Y-150648247D02*
X76906476Y-150886342D01*
X76906476Y-150886342D02*
X76954095Y-150981580D01*
X76954095Y-150981580D02*
X77001714Y-151029200D01*
X77001714Y-151029200D02*
X77096952Y-151076819D01*
X77096952Y-151076819D02*
X77382666Y-151076819D01*
X77382666Y-151076819D02*
X77477904Y-151029200D01*
X77477904Y-151029200D02*
X77525523Y-150981580D01*
X76430285Y-151076819D02*
X76239809Y-151076819D01*
X76239809Y-151076819D02*
X76144571Y-151029200D01*
X76144571Y-151029200D02*
X76096952Y-150981580D01*
X76096952Y-150981580D02*
X76001714Y-150838723D01*
X76001714Y-150838723D02*
X75954095Y-150648247D01*
X75954095Y-150648247D02*
X75954095Y-150267295D01*
X75954095Y-150267295D02*
X76001714Y-150172057D01*
X76001714Y-150172057D02*
X76049333Y-150124438D01*
X76049333Y-150124438D02*
X76144571Y-150076819D01*
X76144571Y-150076819D02*
X76335047Y-150076819D01*
X76335047Y-150076819D02*
X76430285Y-150124438D01*
X76430285Y-150124438D02*
X76477904Y-150172057D01*
X76477904Y-150172057D02*
X76525523Y-150267295D01*
X76525523Y-150267295D02*
X76525523Y-150505390D01*
X76525523Y-150505390D02*
X76477904Y-150600628D01*
X76477904Y-150600628D02*
X76430285Y-150648247D01*
X76430285Y-150648247D02*
X76335047Y-150695866D01*
X76335047Y-150695866D02*
X76144571Y-150695866D01*
X76144571Y-150695866D02*
X76049333Y-150648247D01*
X76049333Y-150648247D02*
X76001714Y-150600628D01*
X76001714Y-150600628D02*
X75954095Y-150505390D01*
X72749580Y-101433333D02*
X72797200Y-101385714D01*
X72797200Y-101385714D02*
X72844819Y-101242857D01*
X72844819Y-101242857D02*
X72844819Y-101147619D01*
X72844819Y-101147619D02*
X72797200Y-101004762D01*
X72797200Y-101004762D02*
X72701961Y-100909524D01*
X72701961Y-100909524D02*
X72606723Y-100861905D01*
X72606723Y-100861905D02*
X72416247Y-100814286D01*
X72416247Y-100814286D02*
X72273390Y-100814286D01*
X72273390Y-100814286D02*
X72082914Y-100861905D01*
X72082914Y-100861905D02*
X71987676Y-100909524D01*
X71987676Y-100909524D02*
X71892438Y-101004762D01*
X71892438Y-101004762D02*
X71844819Y-101147619D01*
X71844819Y-101147619D02*
X71844819Y-101242857D01*
X71844819Y-101242857D02*
X71892438Y-101385714D01*
X71892438Y-101385714D02*
X71940057Y-101433333D01*
X71844819Y-101766667D02*
X71844819Y-102385714D01*
X71844819Y-102385714D02*
X72225771Y-102052381D01*
X72225771Y-102052381D02*
X72225771Y-102195238D01*
X72225771Y-102195238D02*
X72273390Y-102290476D01*
X72273390Y-102290476D02*
X72321009Y-102338095D01*
X72321009Y-102338095D02*
X72416247Y-102385714D01*
X72416247Y-102385714D02*
X72654342Y-102385714D01*
X72654342Y-102385714D02*
X72749580Y-102338095D01*
X72749580Y-102338095D02*
X72797200Y-102290476D01*
X72797200Y-102290476D02*
X72844819Y-102195238D01*
X72844819Y-102195238D02*
X72844819Y-101909524D01*
X72844819Y-101909524D02*
X72797200Y-101814286D01*
X72797200Y-101814286D02*
X72749580Y-101766667D01*
X82655580Y-98385333D02*
X82703200Y-98337714D01*
X82703200Y-98337714D02*
X82750819Y-98194857D01*
X82750819Y-98194857D02*
X82750819Y-98099619D01*
X82750819Y-98099619D02*
X82703200Y-97956762D01*
X82703200Y-97956762D02*
X82607961Y-97861524D01*
X82607961Y-97861524D02*
X82512723Y-97813905D01*
X82512723Y-97813905D02*
X82322247Y-97766286D01*
X82322247Y-97766286D02*
X82179390Y-97766286D01*
X82179390Y-97766286D02*
X81988914Y-97813905D01*
X81988914Y-97813905D02*
X81893676Y-97861524D01*
X81893676Y-97861524D02*
X81798438Y-97956762D01*
X81798438Y-97956762D02*
X81750819Y-98099619D01*
X81750819Y-98099619D02*
X81750819Y-98194857D01*
X81750819Y-98194857D02*
X81798438Y-98337714D01*
X81798438Y-98337714D02*
X81846057Y-98385333D01*
X82084152Y-99242476D02*
X82750819Y-99242476D01*
X81703200Y-99004381D02*
X82417485Y-98766286D01*
X82417485Y-98766286D02*
X82417485Y-99385333D01*
X64661166Y-154283580D02*
X64708785Y-154331200D01*
X64708785Y-154331200D02*
X64851642Y-154378819D01*
X64851642Y-154378819D02*
X64946880Y-154378819D01*
X64946880Y-154378819D02*
X65089737Y-154331200D01*
X65089737Y-154331200D02*
X65184975Y-154235961D01*
X65184975Y-154235961D02*
X65232594Y-154140723D01*
X65232594Y-154140723D02*
X65280213Y-153950247D01*
X65280213Y-153950247D02*
X65280213Y-153807390D01*
X65280213Y-153807390D02*
X65232594Y-153616914D01*
X65232594Y-153616914D02*
X65184975Y-153521676D01*
X65184975Y-153521676D02*
X65089737Y-153426438D01*
X65089737Y-153426438D02*
X64946880Y-153378819D01*
X64946880Y-153378819D02*
X64851642Y-153378819D01*
X64851642Y-153378819D02*
X64708785Y-153426438D01*
X64708785Y-153426438D02*
X64661166Y-153474057D01*
X63756404Y-153378819D02*
X64232594Y-153378819D01*
X64232594Y-153378819D02*
X64280213Y-153855009D01*
X64280213Y-153855009D02*
X64232594Y-153807390D01*
X64232594Y-153807390D02*
X64137356Y-153759771D01*
X64137356Y-153759771D02*
X63899261Y-153759771D01*
X63899261Y-153759771D02*
X63804023Y-153807390D01*
X63804023Y-153807390D02*
X63756404Y-153855009D01*
X63756404Y-153855009D02*
X63708785Y-153950247D01*
X63708785Y-153950247D02*
X63708785Y-154188342D01*
X63708785Y-154188342D02*
X63756404Y-154283580D01*
X63756404Y-154283580D02*
X63804023Y-154331200D01*
X63804023Y-154331200D02*
X63899261Y-154378819D01*
X63899261Y-154378819D02*
X64137356Y-154378819D01*
X64137356Y-154378819D02*
X64232594Y-154331200D01*
X64232594Y-154331200D02*
X64280213Y-154283580D01*
X65383580Y-142200333D02*
X65431200Y-142152714D01*
X65431200Y-142152714D02*
X65478819Y-142009857D01*
X65478819Y-142009857D02*
X65478819Y-141914619D01*
X65478819Y-141914619D02*
X65431200Y-141771762D01*
X65431200Y-141771762D02*
X65335961Y-141676524D01*
X65335961Y-141676524D02*
X65240723Y-141628905D01*
X65240723Y-141628905D02*
X65050247Y-141581286D01*
X65050247Y-141581286D02*
X64907390Y-141581286D01*
X64907390Y-141581286D02*
X64716914Y-141628905D01*
X64716914Y-141628905D02*
X64621676Y-141676524D01*
X64621676Y-141676524D02*
X64526438Y-141771762D01*
X64526438Y-141771762D02*
X64478819Y-141914619D01*
X64478819Y-141914619D02*
X64478819Y-142009857D01*
X64478819Y-142009857D02*
X64526438Y-142152714D01*
X64526438Y-142152714D02*
X64574057Y-142200333D01*
X64478819Y-143057476D02*
X64478819Y-142867000D01*
X64478819Y-142867000D02*
X64526438Y-142771762D01*
X64526438Y-142771762D02*
X64574057Y-142724143D01*
X64574057Y-142724143D02*
X64716914Y-142628905D01*
X64716914Y-142628905D02*
X64907390Y-142581286D01*
X64907390Y-142581286D02*
X65288342Y-142581286D01*
X65288342Y-142581286D02*
X65383580Y-142628905D01*
X65383580Y-142628905D02*
X65431200Y-142676524D01*
X65431200Y-142676524D02*
X65478819Y-142771762D01*
X65478819Y-142771762D02*
X65478819Y-142962238D01*
X65478819Y-142962238D02*
X65431200Y-143057476D01*
X65431200Y-143057476D02*
X65383580Y-143105095D01*
X65383580Y-143105095D02*
X65288342Y-143152714D01*
X65288342Y-143152714D02*
X65050247Y-143152714D01*
X65050247Y-143152714D02*
X64955009Y-143105095D01*
X64955009Y-143105095D02*
X64907390Y-143057476D01*
X64907390Y-143057476D02*
X64859771Y-142962238D01*
X64859771Y-142962238D02*
X64859771Y-142771762D01*
X64859771Y-142771762D02*
X64907390Y-142676524D01*
X64907390Y-142676524D02*
X64955009Y-142628905D01*
X64955009Y-142628905D02*
X65050247Y-142581286D01*
X72495580Y-141311333D02*
X72543200Y-141263714D01*
X72543200Y-141263714D02*
X72590819Y-141120857D01*
X72590819Y-141120857D02*
X72590819Y-141025619D01*
X72590819Y-141025619D02*
X72543200Y-140882762D01*
X72543200Y-140882762D02*
X72447961Y-140787524D01*
X72447961Y-140787524D02*
X72352723Y-140739905D01*
X72352723Y-140739905D02*
X72162247Y-140692286D01*
X72162247Y-140692286D02*
X72019390Y-140692286D01*
X72019390Y-140692286D02*
X71828914Y-140739905D01*
X71828914Y-140739905D02*
X71733676Y-140787524D01*
X71733676Y-140787524D02*
X71638438Y-140882762D01*
X71638438Y-140882762D02*
X71590819Y-141025619D01*
X71590819Y-141025619D02*
X71590819Y-141120857D01*
X71590819Y-141120857D02*
X71638438Y-141263714D01*
X71638438Y-141263714D02*
X71686057Y-141311333D01*
X71590819Y-141644667D02*
X71590819Y-142311333D01*
X71590819Y-142311333D02*
X72590819Y-141882762D01*
X82655580Y-137755333D02*
X82703200Y-137707714D01*
X82703200Y-137707714D02*
X82750819Y-137564857D01*
X82750819Y-137564857D02*
X82750819Y-137469619D01*
X82750819Y-137469619D02*
X82703200Y-137326762D01*
X82703200Y-137326762D02*
X82607961Y-137231524D01*
X82607961Y-137231524D02*
X82512723Y-137183905D01*
X82512723Y-137183905D02*
X82322247Y-137136286D01*
X82322247Y-137136286D02*
X82179390Y-137136286D01*
X82179390Y-137136286D02*
X81988914Y-137183905D01*
X81988914Y-137183905D02*
X81893676Y-137231524D01*
X81893676Y-137231524D02*
X81798438Y-137326762D01*
X81798438Y-137326762D02*
X81750819Y-137469619D01*
X81750819Y-137469619D02*
X81750819Y-137564857D01*
X81750819Y-137564857D02*
X81798438Y-137707714D01*
X81798438Y-137707714D02*
X81846057Y-137755333D01*
X82179390Y-138326762D02*
X82131771Y-138231524D01*
X82131771Y-138231524D02*
X82084152Y-138183905D01*
X82084152Y-138183905D02*
X81988914Y-138136286D01*
X81988914Y-138136286D02*
X81941295Y-138136286D01*
X81941295Y-138136286D02*
X81846057Y-138183905D01*
X81846057Y-138183905D02*
X81798438Y-138231524D01*
X81798438Y-138231524D02*
X81750819Y-138326762D01*
X81750819Y-138326762D02*
X81750819Y-138517238D01*
X81750819Y-138517238D02*
X81798438Y-138612476D01*
X81798438Y-138612476D02*
X81846057Y-138660095D01*
X81846057Y-138660095D02*
X81941295Y-138707714D01*
X81941295Y-138707714D02*
X81988914Y-138707714D01*
X81988914Y-138707714D02*
X82084152Y-138660095D01*
X82084152Y-138660095D02*
X82131771Y-138612476D01*
X82131771Y-138612476D02*
X82179390Y-138517238D01*
X82179390Y-138517238D02*
X82179390Y-138326762D01*
X82179390Y-138326762D02*
X82227009Y-138231524D01*
X82227009Y-138231524D02*
X82274628Y-138183905D01*
X82274628Y-138183905D02*
X82369866Y-138136286D01*
X82369866Y-138136286D02*
X82560342Y-138136286D01*
X82560342Y-138136286D02*
X82655580Y-138183905D01*
X82655580Y-138183905D02*
X82703200Y-138231524D01*
X82703200Y-138231524D02*
X82750819Y-138326762D01*
X82750819Y-138326762D02*
X82750819Y-138517238D01*
X82750819Y-138517238D02*
X82703200Y-138612476D01*
X82703200Y-138612476D02*
X82655580Y-138660095D01*
X82655580Y-138660095D02*
X82560342Y-138707714D01*
X82560342Y-138707714D02*
X82369866Y-138707714D01*
X82369866Y-138707714D02*
X82274628Y-138660095D01*
X82274628Y-138660095D02*
X82227009Y-138612476D01*
X82227009Y-138612476D02*
X82179390Y-138517238D01*
X52683580Y-148201142D02*
X52731200Y-148153523D01*
X52731200Y-148153523D02*
X52778819Y-148010666D01*
X52778819Y-148010666D02*
X52778819Y-147915428D01*
X52778819Y-147915428D02*
X52731200Y-147772571D01*
X52731200Y-147772571D02*
X52635961Y-147677333D01*
X52635961Y-147677333D02*
X52540723Y-147629714D01*
X52540723Y-147629714D02*
X52350247Y-147582095D01*
X52350247Y-147582095D02*
X52207390Y-147582095D01*
X52207390Y-147582095D02*
X52016914Y-147629714D01*
X52016914Y-147629714D02*
X51921676Y-147677333D01*
X51921676Y-147677333D02*
X51826438Y-147772571D01*
X51826438Y-147772571D02*
X51778819Y-147915428D01*
X51778819Y-147915428D02*
X51778819Y-148010666D01*
X51778819Y-148010666D02*
X51826438Y-148153523D01*
X51826438Y-148153523D02*
X51874057Y-148201142D01*
X52778819Y-149153523D02*
X52778819Y-148582095D01*
X52778819Y-148867809D02*
X51778819Y-148867809D01*
X51778819Y-148867809D02*
X51921676Y-148772571D01*
X51921676Y-148772571D02*
X52016914Y-148677333D01*
X52016914Y-148677333D02*
X52064533Y-148582095D01*
X51778819Y-149772571D02*
X51778819Y-149867809D01*
X51778819Y-149867809D02*
X51826438Y-149963047D01*
X51826438Y-149963047D02*
X51874057Y-150010666D01*
X51874057Y-150010666D02*
X51969295Y-150058285D01*
X51969295Y-150058285D02*
X52159771Y-150105904D01*
X52159771Y-150105904D02*
X52397866Y-150105904D01*
X52397866Y-150105904D02*
X52588342Y-150058285D01*
X52588342Y-150058285D02*
X52683580Y-150010666D01*
X52683580Y-150010666D02*
X52731200Y-149963047D01*
X52731200Y-149963047D02*
X52778819Y-149867809D01*
X52778819Y-149867809D02*
X52778819Y-149772571D01*
X52778819Y-149772571D02*
X52731200Y-149677333D01*
X52731200Y-149677333D02*
X52683580Y-149629714D01*
X52683580Y-149629714D02*
X52588342Y-149582095D01*
X52588342Y-149582095D02*
X52397866Y-149534476D01*
X52397866Y-149534476D02*
X52159771Y-149534476D01*
X52159771Y-149534476D02*
X51969295Y-149582095D01*
X51969295Y-149582095D02*
X51874057Y-149629714D01*
X51874057Y-149629714D02*
X51826438Y-149677333D01*
X51826438Y-149677333D02*
X51778819Y-149772571D01*
X72524580Y-80637142D02*
X72572200Y-80589523D01*
X72572200Y-80589523D02*
X72619819Y-80446666D01*
X72619819Y-80446666D02*
X72619819Y-80351428D01*
X72619819Y-80351428D02*
X72572200Y-80208571D01*
X72572200Y-80208571D02*
X72476961Y-80113333D01*
X72476961Y-80113333D02*
X72381723Y-80065714D01*
X72381723Y-80065714D02*
X72191247Y-80018095D01*
X72191247Y-80018095D02*
X72048390Y-80018095D01*
X72048390Y-80018095D02*
X71857914Y-80065714D01*
X71857914Y-80065714D02*
X71762676Y-80113333D01*
X71762676Y-80113333D02*
X71667438Y-80208571D01*
X71667438Y-80208571D02*
X71619819Y-80351428D01*
X71619819Y-80351428D02*
X71619819Y-80446666D01*
X71619819Y-80446666D02*
X71667438Y-80589523D01*
X71667438Y-80589523D02*
X71715057Y-80637142D01*
X72619819Y-81589523D02*
X72619819Y-81018095D01*
X72619819Y-81303809D02*
X71619819Y-81303809D01*
X71619819Y-81303809D02*
X71762676Y-81208571D01*
X71762676Y-81208571D02*
X71857914Y-81113333D01*
X71857914Y-81113333D02*
X71905533Y-81018095D01*
X72619819Y-82541904D02*
X72619819Y-81970476D01*
X72619819Y-82256190D02*
X71619819Y-82256190D01*
X71619819Y-82256190D02*
X71762676Y-82160952D01*
X71762676Y-82160952D02*
X71857914Y-82065714D01*
X71857914Y-82065714D02*
X71905533Y-81970476D01*
X82655580Y-77492142D02*
X82703200Y-77444523D01*
X82703200Y-77444523D02*
X82750819Y-77301666D01*
X82750819Y-77301666D02*
X82750819Y-77206428D01*
X82750819Y-77206428D02*
X82703200Y-77063571D01*
X82703200Y-77063571D02*
X82607961Y-76968333D01*
X82607961Y-76968333D02*
X82512723Y-76920714D01*
X82512723Y-76920714D02*
X82322247Y-76873095D01*
X82322247Y-76873095D02*
X82179390Y-76873095D01*
X82179390Y-76873095D02*
X81988914Y-76920714D01*
X81988914Y-76920714D02*
X81893676Y-76968333D01*
X81893676Y-76968333D02*
X81798438Y-77063571D01*
X81798438Y-77063571D02*
X81750819Y-77206428D01*
X81750819Y-77206428D02*
X81750819Y-77301666D01*
X81750819Y-77301666D02*
X81798438Y-77444523D01*
X81798438Y-77444523D02*
X81846057Y-77492142D01*
X82750819Y-78444523D02*
X82750819Y-77873095D01*
X82750819Y-78158809D02*
X81750819Y-78158809D01*
X81750819Y-78158809D02*
X81893676Y-78063571D01*
X81893676Y-78063571D02*
X81988914Y-77968333D01*
X81988914Y-77968333D02*
X82036533Y-77873095D01*
X81846057Y-78825476D02*
X81798438Y-78873095D01*
X81798438Y-78873095D02*
X81750819Y-78968333D01*
X81750819Y-78968333D02*
X81750819Y-79206428D01*
X81750819Y-79206428D02*
X81798438Y-79301666D01*
X81798438Y-79301666D02*
X81846057Y-79349285D01*
X81846057Y-79349285D02*
X81941295Y-79396904D01*
X81941295Y-79396904D02*
X82036533Y-79396904D01*
X82036533Y-79396904D02*
X82179390Y-79349285D01*
X82179390Y-79349285D02*
X82750819Y-78777857D01*
X82750819Y-78777857D02*
X82750819Y-79396904D01*
X88272857Y-153521580D02*
X88320476Y-153569200D01*
X88320476Y-153569200D02*
X88463333Y-153616819D01*
X88463333Y-153616819D02*
X88558571Y-153616819D01*
X88558571Y-153616819D02*
X88701428Y-153569200D01*
X88701428Y-153569200D02*
X88796666Y-153473961D01*
X88796666Y-153473961D02*
X88844285Y-153378723D01*
X88844285Y-153378723D02*
X88891904Y-153188247D01*
X88891904Y-153188247D02*
X88891904Y-153045390D01*
X88891904Y-153045390D02*
X88844285Y-152854914D01*
X88844285Y-152854914D02*
X88796666Y-152759676D01*
X88796666Y-152759676D02*
X88701428Y-152664438D01*
X88701428Y-152664438D02*
X88558571Y-152616819D01*
X88558571Y-152616819D02*
X88463333Y-152616819D01*
X88463333Y-152616819D02*
X88320476Y-152664438D01*
X88320476Y-152664438D02*
X88272857Y-152712057D01*
X87320476Y-153616819D02*
X87891904Y-153616819D01*
X87606190Y-153616819D02*
X87606190Y-152616819D01*
X87606190Y-152616819D02*
X87701428Y-152759676D01*
X87701428Y-152759676D02*
X87796666Y-152854914D01*
X87796666Y-152854914D02*
X87891904Y-152902533D01*
X86987142Y-152616819D02*
X86368095Y-152616819D01*
X86368095Y-152616819D02*
X86701428Y-152997771D01*
X86701428Y-152997771D02*
X86558571Y-152997771D01*
X86558571Y-152997771D02*
X86463333Y-153045390D01*
X86463333Y-153045390D02*
X86415714Y-153093009D01*
X86415714Y-153093009D02*
X86368095Y-153188247D01*
X86368095Y-153188247D02*
X86368095Y-153426342D01*
X86368095Y-153426342D02*
X86415714Y-153521580D01*
X86415714Y-153521580D02*
X86463333Y-153569200D01*
X86463333Y-153569200D02*
X86558571Y-153616819D01*
X86558571Y-153616819D02*
X86844285Y-153616819D01*
X86844285Y-153616819D02*
X86939523Y-153569200D01*
X86939523Y-153569200D02*
X86987142Y-153521580D01*
X86748857Y-140919580D02*
X86796476Y-140967200D01*
X86796476Y-140967200D02*
X86939333Y-141014819D01*
X86939333Y-141014819D02*
X87034571Y-141014819D01*
X87034571Y-141014819D02*
X87177428Y-140967200D01*
X87177428Y-140967200D02*
X87272666Y-140871961D01*
X87272666Y-140871961D02*
X87320285Y-140776723D01*
X87320285Y-140776723D02*
X87367904Y-140586247D01*
X87367904Y-140586247D02*
X87367904Y-140443390D01*
X87367904Y-140443390D02*
X87320285Y-140252914D01*
X87320285Y-140252914D02*
X87272666Y-140157676D01*
X87272666Y-140157676D02*
X87177428Y-140062438D01*
X87177428Y-140062438D02*
X87034571Y-140014819D01*
X87034571Y-140014819D02*
X86939333Y-140014819D01*
X86939333Y-140014819D02*
X86796476Y-140062438D01*
X86796476Y-140062438D02*
X86748857Y-140110057D01*
X85796476Y-141014819D02*
X86367904Y-141014819D01*
X86082190Y-141014819D02*
X86082190Y-140014819D01*
X86082190Y-140014819D02*
X86177428Y-140157676D01*
X86177428Y-140157676D02*
X86272666Y-140252914D01*
X86272666Y-140252914D02*
X86367904Y-140300533D01*
X84939333Y-140348152D02*
X84939333Y-141014819D01*
X85177428Y-139967200D02*
X85415523Y-140681485D01*
X85415523Y-140681485D02*
X84796476Y-140681485D01*
X72524580Y-121277142D02*
X72572200Y-121229523D01*
X72572200Y-121229523D02*
X72619819Y-121086666D01*
X72619819Y-121086666D02*
X72619819Y-120991428D01*
X72619819Y-120991428D02*
X72572200Y-120848571D01*
X72572200Y-120848571D02*
X72476961Y-120753333D01*
X72476961Y-120753333D02*
X72381723Y-120705714D01*
X72381723Y-120705714D02*
X72191247Y-120658095D01*
X72191247Y-120658095D02*
X72048390Y-120658095D01*
X72048390Y-120658095D02*
X71857914Y-120705714D01*
X71857914Y-120705714D02*
X71762676Y-120753333D01*
X71762676Y-120753333D02*
X71667438Y-120848571D01*
X71667438Y-120848571D02*
X71619819Y-120991428D01*
X71619819Y-120991428D02*
X71619819Y-121086666D01*
X71619819Y-121086666D02*
X71667438Y-121229523D01*
X71667438Y-121229523D02*
X71715057Y-121277142D01*
X72619819Y-122229523D02*
X72619819Y-121658095D01*
X72619819Y-121943809D02*
X71619819Y-121943809D01*
X71619819Y-121943809D02*
X71762676Y-121848571D01*
X71762676Y-121848571D02*
X71857914Y-121753333D01*
X71857914Y-121753333D02*
X71905533Y-121658095D01*
X71619819Y-123134285D02*
X71619819Y-122658095D01*
X71619819Y-122658095D02*
X72096009Y-122610476D01*
X72096009Y-122610476D02*
X72048390Y-122658095D01*
X72048390Y-122658095D02*
X72000771Y-122753333D01*
X72000771Y-122753333D02*
X72000771Y-122991428D01*
X72000771Y-122991428D02*
X72048390Y-123086666D01*
X72048390Y-123086666D02*
X72096009Y-123134285D01*
X72096009Y-123134285D02*
X72191247Y-123181904D01*
X72191247Y-123181904D02*
X72429342Y-123181904D01*
X72429342Y-123181904D02*
X72524580Y-123134285D01*
X72524580Y-123134285D02*
X72572200Y-123086666D01*
X72572200Y-123086666D02*
X72619819Y-122991428D01*
X72619819Y-122991428D02*
X72619819Y-122753333D01*
X72619819Y-122753333D02*
X72572200Y-122658095D01*
X72572200Y-122658095D02*
X72524580Y-122610476D01*
X82655580Y-118483142D02*
X82703200Y-118435523D01*
X82703200Y-118435523D02*
X82750819Y-118292666D01*
X82750819Y-118292666D02*
X82750819Y-118197428D01*
X82750819Y-118197428D02*
X82703200Y-118054571D01*
X82703200Y-118054571D02*
X82607961Y-117959333D01*
X82607961Y-117959333D02*
X82512723Y-117911714D01*
X82512723Y-117911714D02*
X82322247Y-117864095D01*
X82322247Y-117864095D02*
X82179390Y-117864095D01*
X82179390Y-117864095D02*
X81988914Y-117911714D01*
X81988914Y-117911714D02*
X81893676Y-117959333D01*
X81893676Y-117959333D02*
X81798438Y-118054571D01*
X81798438Y-118054571D02*
X81750819Y-118197428D01*
X81750819Y-118197428D02*
X81750819Y-118292666D01*
X81750819Y-118292666D02*
X81798438Y-118435523D01*
X81798438Y-118435523D02*
X81846057Y-118483142D01*
X82750819Y-119435523D02*
X82750819Y-118864095D01*
X82750819Y-119149809D02*
X81750819Y-119149809D01*
X81750819Y-119149809D02*
X81893676Y-119054571D01*
X81893676Y-119054571D02*
X81988914Y-118959333D01*
X81988914Y-118959333D02*
X82036533Y-118864095D01*
X81750819Y-120292666D02*
X81750819Y-120102190D01*
X81750819Y-120102190D02*
X81798438Y-120006952D01*
X81798438Y-120006952D02*
X81846057Y-119959333D01*
X81846057Y-119959333D02*
X81988914Y-119864095D01*
X81988914Y-119864095D02*
X82179390Y-119816476D01*
X82179390Y-119816476D02*
X82560342Y-119816476D01*
X82560342Y-119816476D02*
X82655580Y-119864095D01*
X82655580Y-119864095D02*
X82703200Y-119911714D01*
X82703200Y-119911714D02*
X82750819Y-120006952D01*
X82750819Y-120006952D02*
X82750819Y-120197428D01*
X82750819Y-120197428D02*
X82703200Y-120292666D01*
X82703200Y-120292666D02*
X82655580Y-120340285D01*
X82655580Y-120340285D02*
X82560342Y-120387904D01*
X82560342Y-120387904D02*
X82322247Y-120387904D01*
X82322247Y-120387904D02*
X82227009Y-120340285D01*
X82227009Y-120340285D02*
X82179390Y-120292666D01*
X82179390Y-120292666D02*
X82131771Y-120197428D01*
X82131771Y-120197428D02*
X82131771Y-120006952D01*
X82131771Y-120006952D02*
X82179390Y-119911714D01*
X82179390Y-119911714D02*
X82227009Y-119864095D01*
X82227009Y-119864095D02*
X82322247Y-119816476D01*
X60840857Y-59764819D02*
X61174190Y-59288628D01*
X61412285Y-59764819D02*
X61412285Y-58764819D01*
X61412285Y-58764819D02*
X61031333Y-58764819D01*
X61031333Y-58764819D02*
X60936095Y-58812438D01*
X60936095Y-58812438D02*
X60888476Y-58860057D01*
X60888476Y-58860057D02*
X60840857Y-58955295D01*
X60840857Y-58955295D02*
X60840857Y-59098152D01*
X60840857Y-59098152D02*
X60888476Y-59193390D01*
X60888476Y-59193390D02*
X60936095Y-59241009D01*
X60936095Y-59241009D02*
X61031333Y-59288628D01*
X61031333Y-59288628D02*
X61412285Y-59288628D01*
X60459904Y-58860057D02*
X60412285Y-58812438D01*
X60412285Y-58812438D02*
X60317047Y-58764819D01*
X60317047Y-58764819D02*
X60078952Y-58764819D01*
X60078952Y-58764819D02*
X59983714Y-58812438D01*
X59983714Y-58812438D02*
X59936095Y-58860057D01*
X59936095Y-58860057D02*
X59888476Y-58955295D01*
X59888476Y-58955295D02*
X59888476Y-59050533D01*
X59888476Y-59050533D02*
X59936095Y-59193390D01*
X59936095Y-59193390D02*
X60507523Y-59764819D01*
X60507523Y-59764819D02*
X59888476Y-59764819D01*
X59555142Y-58764819D02*
X58936095Y-58764819D01*
X58936095Y-58764819D02*
X59269428Y-59145771D01*
X59269428Y-59145771D02*
X59126571Y-59145771D01*
X59126571Y-59145771D02*
X59031333Y-59193390D01*
X59031333Y-59193390D02*
X58983714Y-59241009D01*
X58983714Y-59241009D02*
X58936095Y-59336247D01*
X58936095Y-59336247D02*
X58936095Y-59574342D01*
X58936095Y-59574342D02*
X58983714Y-59669580D01*
X58983714Y-59669580D02*
X59031333Y-59717200D01*
X59031333Y-59717200D02*
X59126571Y-59764819D01*
X59126571Y-59764819D02*
X59412285Y-59764819D01*
X59412285Y-59764819D02*
X59507523Y-59717200D01*
X59507523Y-59717200D02*
X59555142Y-59669580D01*
X88272857Y-156790819D02*
X88606190Y-156314628D01*
X88844285Y-156790819D02*
X88844285Y-155790819D01*
X88844285Y-155790819D02*
X88463333Y-155790819D01*
X88463333Y-155790819D02*
X88368095Y-155838438D01*
X88368095Y-155838438D02*
X88320476Y-155886057D01*
X88320476Y-155886057D02*
X88272857Y-155981295D01*
X88272857Y-155981295D02*
X88272857Y-156124152D01*
X88272857Y-156124152D02*
X88320476Y-156219390D01*
X88320476Y-156219390D02*
X88368095Y-156267009D01*
X88368095Y-156267009D02*
X88463333Y-156314628D01*
X88463333Y-156314628D02*
X88844285Y-156314628D01*
X87891904Y-155886057D02*
X87844285Y-155838438D01*
X87844285Y-155838438D02*
X87749047Y-155790819D01*
X87749047Y-155790819D02*
X87510952Y-155790819D01*
X87510952Y-155790819D02*
X87415714Y-155838438D01*
X87415714Y-155838438D02*
X87368095Y-155886057D01*
X87368095Y-155886057D02*
X87320476Y-155981295D01*
X87320476Y-155981295D02*
X87320476Y-156076533D01*
X87320476Y-156076533D02*
X87368095Y-156219390D01*
X87368095Y-156219390D02*
X87939523Y-156790819D01*
X87939523Y-156790819D02*
X87320476Y-156790819D01*
X86749047Y-156219390D02*
X86844285Y-156171771D01*
X86844285Y-156171771D02*
X86891904Y-156124152D01*
X86891904Y-156124152D02*
X86939523Y-156028914D01*
X86939523Y-156028914D02*
X86939523Y-155981295D01*
X86939523Y-155981295D02*
X86891904Y-155886057D01*
X86891904Y-155886057D02*
X86844285Y-155838438D01*
X86844285Y-155838438D02*
X86749047Y-155790819D01*
X86749047Y-155790819D02*
X86558571Y-155790819D01*
X86558571Y-155790819D02*
X86463333Y-155838438D01*
X86463333Y-155838438D02*
X86415714Y-155886057D01*
X86415714Y-155886057D02*
X86368095Y-155981295D01*
X86368095Y-155981295D02*
X86368095Y-156028914D01*
X86368095Y-156028914D02*
X86415714Y-156124152D01*
X86415714Y-156124152D02*
X86463333Y-156171771D01*
X86463333Y-156171771D02*
X86558571Y-156219390D01*
X86558571Y-156219390D02*
X86749047Y-156219390D01*
X86749047Y-156219390D02*
X86844285Y-156267009D01*
X86844285Y-156267009D02*
X86891904Y-156314628D01*
X86891904Y-156314628D02*
X86939523Y-156409866D01*
X86939523Y-156409866D02*
X86939523Y-156600342D01*
X86939523Y-156600342D02*
X86891904Y-156695580D01*
X86891904Y-156695580D02*
X86844285Y-156743200D01*
X86844285Y-156743200D02*
X86749047Y-156790819D01*
X86749047Y-156790819D02*
X86558571Y-156790819D01*
X86558571Y-156790819D02*
X86463333Y-156743200D01*
X86463333Y-156743200D02*
X86415714Y-156695580D01*
X86415714Y-156695580D02*
X86368095Y-156600342D01*
X86368095Y-156600342D02*
X86368095Y-156409866D01*
X86368095Y-156409866D02*
X86415714Y-156314628D01*
X86415714Y-156314628D02*
X86463333Y-156267009D01*
X86463333Y-156267009D02*
X86558571Y-156219390D01*
X72397857Y-68526819D02*
X72731190Y-68050628D01*
X72969285Y-68526819D02*
X72969285Y-67526819D01*
X72969285Y-67526819D02*
X72588333Y-67526819D01*
X72588333Y-67526819D02*
X72493095Y-67574438D01*
X72493095Y-67574438D02*
X72445476Y-67622057D01*
X72445476Y-67622057D02*
X72397857Y-67717295D01*
X72397857Y-67717295D02*
X72397857Y-67860152D01*
X72397857Y-67860152D02*
X72445476Y-67955390D01*
X72445476Y-67955390D02*
X72493095Y-68003009D01*
X72493095Y-68003009D02*
X72588333Y-68050628D01*
X72588333Y-68050628D02*
X72969285Y-68050628D01*
X72016904Y-67622057D02*
X71969285Y-67574438D01*
X71969285Y-67574438D02*
X71874047Y-67526819D01*
X71874047Y-67526819D02*
X71635952Y-67526819D01*
X71635952Y-67526819D02*
X71540714Y-67574438D01*
X71540714Y-67574438D02*
X71493095Y-67622057D01*
X71493095Y-67622057D02*
X71445476Y-67717295D01*
X71445476Y-67717295D02*
X71445476Y-67812533D01*
X71445476Y-67812533D02*
X71493095Y-67955390D01*
X71493095Y-67955390D02*
X72064523Y-68526819D01*
X72064523Y-68526819D02*
X71445476Y-68526819D01*
X70969285Y-68526819D02*
X70778809Y-68526819D01*
X70778809Y-68526819D02*
X70683571Y-68479200D01*
X70683571Y-68479200D02*
X70635952Y-68431580D01*
X70635952Y-68431580D02*
X70540714Y-68288723D01*
X70540714Y-68288723D02*
X70493095Y-68098247D01*
X70493095Y-68098247D02*
X70493095Y-67717295D01*
X70493095Y-67717295D02*
X70540714Y-67622057D01*
X70540714Y-67622057D02*
X70588333Y-67574438D01*
X70588333Y-67574438D02*
X70683571Y-67526819D01*
X70683571Y-67526819D02*
X70874047Y-67526819D01*
X70874047Y-67526819D02*
X70969285Y-67574438D01*
X70969285Y-67574438D02*
X71016904Y-67622057D01*
X71016904Y-67622057D02*
X71064523Y-67717295D01*
X71064523Y-67717295D02*
X71064523Y-67955390D01*
X71064523Y-67955390D02*
X71016904Y-68050628D01*
X71016904Y-68050628D02*
X70969285Y-68098247D01*
X70969285Y-68098247D02*
X70874047Y-68145866D01*
X70874047Y-68145866D02*
X70683571Y-68145866D01*
X70683571Y-68145866D02*
X70588333Y-68098247D01*
X70588333Y-68098247D02*
X70540714Y-68050628D01*
X70540714Y-68050628D02*
X70493095Y-67955390D01*
X72397857Y-109166819D02*
X72731190Y-108690628D01*
X72969285Y-109166819D02*
X72969285Y-108166819D01*
X72969285Y-108166819D02*
X72588333Y-108166819D01*
X72588333Y-108166819D02*
X72493095Y-108214438D01*
X72493095Y-108214438D02*
X72445476Y-108262057D01*
X72445476Y-108262057D02*
X72397857Y-108357295D01*
X72397857Y-108357295D02*
X72397857Y-108500152D01*
X72397857Y-108500152D02*
X72445476Y-108595390D01*
X72445476Y-108595390D02*
X72493095Y-108643009D01*
X72493095Y-108643009D02*
X72588333Y-108690628D01*
X72588333Y-108690628D02*
X72969285Y-108690628D01*
X72064523Y-108166819D02*
X71445476Y-108166819D01*
X71445476Y-108166819D02*
X71778809Y-108547771D01*
X71778809Y-108547771D02*
X71635952Y-108547771D01*
X71635952Y-108547771D02*
X71540714Y-108595390D01*
X71540714Y-108595390D02*
X71493095Y-108643009D01*
X71493095Y-108643009D02*
X71445476Y-108738247D01*
X71445476Y-108738247D02*
X71445476Y-108976342D01*
X71445476Y-108976342D02*
X71493095Y-109071580D01*
X71493095Y-109071580D02*
X71540714Y-109119200D01*
X71540714Y-109119200D02*
X71635952Y-109166819D01*
X71635952Y-109166819D02*
X71921666Y-109166819D01*
X71921666Y-109166819D02*
X72016904Y-109119200D01*
X72016904Y-109119200D02*
X72064523Y-109071580D01*
X70826428Y-108166819D02*
X70731190Y-108166819D01*
X70731190Y-108166819D02*
X70635952Y-108214438D01*
X70635952Y-108214438D02*
X70588333Y-108262057D01*
X70588333Y-108262057D02*
X70540714Y-108357295D01*
X70540714Y-108357295D02*
X70493095Y-108547771D01*
X70493095Y-108547771D02*
X70493095Y-108785866D01*
X70493095Y-108785866D02*
X70540714Y-108976342D01*
X70540714Y-108976342D02*
X70588333Y-109071580D01*
X70588333Y-109071580D02*
X70635952Y-109119200D01*
X70635952Y-109119200D02*
X70731190Y-109166819D01*
X70731190Y-109166819D02*
X70826428Y-109166819D01*
X70826428Y-109166819D02*
X70921666Y-109119200D01*
X70921666Y-109119200D02*
X70969285Y-109071580D01*
X70969285Y-109071580D02*
X71016904Y-108976342D01*
X71016904Y-108976342D02*
X71064523Y-108785866D01*
X71064523Y-108785866D02*
X71064523Y-108547771D01*
X71064523Y-108547771D02*
X71016904Y-108357295D01*
X71016904Y-108357295D02*
X70969285Y-108262057D01*
X70969285Y-108262057D02*
X70921666Y-108214438D01*
X70921666Y-108214438D02*
X70826428Y-108166819D01*
X72397857Y-88846819D02*
X72731190Y-88370628D01*
X72969285Y-88846819D02*
X72969285Y-87846819D01*
X72969285Y-87846819D02*
X72588333Y-87846819D01*
X72588333Y-87846819D02*
X72493095Y-87894438D01*
X72493095Y-87894438D02*
X72445476Y-87942057D01*
X72445476Y-87942057D02*
X72397857Y-88037295D01*
X72397857Y-88037295D02*
X72397857Y-88180152D01*
X72397857Y-88180152D02*
X72445476Y-88275390D01*
X72445476Y-88275390D02*
X72493095Y-88323009D01*
X72493095Y-88323009D02*
X72588333Y-88370628D01*
X72588333Y-88370628D02*
X72969285Y-88370628D01*
X72064523Y-87846819D02*
X71445476Y-87846819D01*
X71445476Y-87846819D02*
X71778809Y-88227771D01*
X71778809Y-88227771D02*
X71635952Y-88227771D01*
X71635952Y-88227771D02*
X71540714Y-88275390D01*
X71540714Y-88275390D02*
X71493095Y-88323009D01*
X71493095Y-88323009D02*
X71445476Y-88418247D01*
X71445476Y-88418247D02*
X71445476Y-88656342D01*
X71445476Y-88656342D02*
X71493095Y-88751580D01*
X71493095Y-88751580D02*
X71540714Y-88799200D01*
X71540714Y-88799200D02*
X71635952Y-88846819D01*
X71635952Y-88846819D02*
X71921666Y-88846819D01*
X71921666Y-88846819D02*
X72016904Y-88799200D01*
X72016904Y-88799200D02*
X72064523Y-88751580D01*
X71064523Y-87942057D02*
X71016904Y-87894438D01*
X71016904Y-87894438D02*
X70921666Y-87846819D01*
X70921666Y-87846819D02*
X70683571Y-87846819D01*
X70683571Y-87846819D02*
X70588333Y-87894438D01*
X70588333Y-87894438D02*
X70540714Y-87942057D01*
X70540714Y-87942057D02*
X70493095Y-88037295D01*
X70493095Y-88037295D02*
X70493095Y-88132533D01*
X70493095Y-88132533D02*
X70540714Y-88275390D01*
X70540714Y-88275390D02*
X71112142Y-88846819D01*
X71112142Y-88846819D02*
X70493095Y-88846819D01*
X72397857Y-129614819D02*
X72731190Y-129138628D01*
X72969285Y-129614819D02*
X72969285Y-128614819D01*
X72969285Y-128614819D02*
X72588333Y-128614819D01*
X72588333Y-128614819D02*
X72493095Y-128662438D01*
X72493095Y-128662438D02*
X72445476Y-128710057D01*
X72445476Y-128710057D02*
X72397857Y-128805295D01*
X72397857Y-128805295D02*
X72397857Y-128948152D01*
X72397857Y-128948152D02*
X72445476Y-129043390D01*
X72445476Y-129043390D02*
X72493095Y-129091009D01*
X72493095Y-129091009D02*
X72588333Y-129138628D01*
X72588333Y-129138628D02*
X72969285Y-129138628D01*
X72064523Y-128614819D02*
X71445476Y-128614819D01*
X71445476Y-128614819D02*
X71778809Y-128995771D01*
X71778809Y-128995771D02*
X71635952Y-128995771D01*
X71635952Y-128995771D02*
X71540714Y-129043390D01*
X71540714Y-129043390D02*
X71493095Y-129091009D01*
X71493095Y-129091009D02*
X71445476Y-129186247D01*
X71445476Y-129186247D02*
X71445476Y-129424342D01*
X71445476Y-129424342D02*
X71493095Y-129519580D01*
X71493095Y-129519580D02*
X71540714Y-129567200D01*
X71540714Y-129567200D02*
X71635952Y-129614819D01*
X71635952Y-129614819D02*
X71921666Y-129614819D01*
X71921666Y-129614819D02*
X72016904Y-129567200D01*
X72016904Y-129567200D02*
X72064523Y-129519580D01*
X70588333Y-128948152D02*
X70588333Y-129614819D01*
X70826428Y-128567200D02*
X71064523Y-129281485D01*
X71064523Y-129281485D02*
X70445476Y-129281485D01*
X62152819Y-63246095D02*
X62962342Y-63246095D01*
X62962342Y-63246095D02*
X63057580Y-63293714D01*
X63057580Y-63293714D02*
X63105200Y-63341333D01*
X63105200Y-63341333D02*
X63152819Y-63436571D01*
X63152819Y-63436571D02*
X63152819Y-63627047D01*
X63152819Y-63627047D02*
X63105200Y-63722285D01*
X63105200Y-63722285D02*
X63057580Y-63769904D01*
X63057580Y-63769904D02*
X62962342Y-63817523D01*
X62962342Y-63817523D02*
X62152819Y-63817523D01*
X63152819Y-64817523D02*
X63152819Y-64246095D01*
X63152819Y-64531809D02*
X62152819Y-64531809D01*
X62152819Y-64531809D02*
X62295676Y-64436571D01*
X62295676Y-64436571D02*
X62390914Y-64341333D01*
X62390914Y-64341333D02*
X62438533Y-64246095D01*
X78448819Y-78994095D02*
X79258342Y-78994095D01*
X79258342Y-78994095D02*
X79353580Y-79041714D01*
X79353580Y-79041714D02*
X79401200Y-79089333D01*
X79401200Y-79089333D02*
X79448819Y-79184571D01*
X79448819Y-79184571D02*
X79448819Y-79375047D01*
X79448819Y-79375047D02*
X79401200Y-79470285D01*
X79401200Y-79470285D02*
X79353580Y-79517904D01*
X79353580Y-79517904D02*
X79258342Y-79565523D01*
X79258342Y-79565523D02*
X78448819Y-79565523D01*
X78544057Y-79994095D02*
X78496438Y-80041714D01*
X78496438Y-80041714D02*
X78448819Y-80136952D01*
X78448819Y-80136952D02*
X78448819Y-80375047D01*
X78448819Y-80375047D02*
X78496438Y-80470285D01*
X78496438Y-80470285D02*
X78544057Y-80517904D01*
X78544057Y-80517904D02*
X78639295Y-80565523D01*
X78639295Y-80565523D02*
X78734533Y-80565523D01*
X78734533Y-80565523D02*
X78877390Y-80517904D01*
X78877390Y-80517904D02*
X79448819Y-79946476D01*
X79448819Y-79946476D02*
X79448819Y-80565523D01*
X78448819Y-99314095D02*
X79258342Y-99314095D01*
X79258342Y-99314095D02*
X79353580Y-99361714D01*
X79353580Y-99361714D02*
X79401200Y-99409333D01*
X79401200Y-99409333D02*
X79448819Y-99504571D01*
X79448819Y-99504571D02*
X79448819Y-99695047D01*
X79448819Y-99695047D02*
X79401200Y-99790285D01*
X79401200Y-99790285D02*
X79353580Y-99837904D01*
X79353580Y-99837904D02*
X79258342Y-99885523D01*
X79258342Y-99885523D02*
X78448819Y-99885523D01*
X78448819Y-100266476D02*
X78448819Y-100885523D01*
X78448819Y-100885523D02*
X78829771Y-100552190D01*
X78829771Y-100552190D02*
X78829771Y-100695047D01*
X78829771Y-100695047D02*
X78877390Y-100790285D01*
X78877390Y-100790285D02*
X78925009Y-100837904D01*
X78925009Y-100837904D02*
X79020247Y-100885523D01*
X79020247Y-100885523D02*
X79258342Y-100885523D01*
X79258342Y-100885523D02*
X79353580Y-100837904D01*
X79353580Y-100837904D02*
X79401200Y-100790285D01*
X79401200Y-100790285D02*
X79448819Y-100695047D01*
X79448819Y-100695047D02*
X79448819Y-100409333D01*
X79448819Y-100409333D02*
X79401200Y-100314095D01*
X79401200Y-100314095D02*
X79353580Y-100266476D01*
X78448819Y-119634095D02*
X79258342Y-119634095D01*
X79258342Y-119634095D02*
X79353580Y-119681714D01*
X79353580Y-119681714D02*
X79401200Y-119729333D01*
X79401200Y-119729333D02*
X79448819Y-119824571D01*
X79448819Y-119824571D02*
X79448819Y-120015047D01*
X79448819Y-120015047D02*
X79401200Y-120110285D01*
X79401200Y-120110285D02*
X79353580Y-120157904D01*
X79353580Y-120157904D02*
X79258342Y-120205523D01*
X79258342Y-120205523D02*
X78448819Y-120205523D01*
X78782152Y-121110285D02*
X79448819Y-121110285D01*
X78401200Y-120872190D02*
X79115485Y-120634095D01*
X79115485Y-120634095D02*
X79115485Y-121253142D01*
X78448819Y-139192095D02*
X79258342Y-139192095D01*
X79258342Y-139192095D02*
X79353580Y-139239714D01*
X79353580Y-139239714D02*
X79401200Y-139287333D01*
X79401200Y-139287333D02*
X79448819Y-139382571D01*
X79448819Y-139382571D02*
X79448819Y-139573047D01*
X79448819Y-139573047D02*
X79401200Y-139668285D01*
X79401200Y-139668285D02*
X79353580Y-139715904D01*
X79353580Y-139715904D02*
X79258342Y-139763523D01*
X79258342Y-139763523D02*
X78448819Y-139763523D01*
X78448819Y-140715904D02*
X78448819Y-140239714D01*
X78448819Y-140239714D02*
X78925009Y-140192095D01*
X78925009Y-140192095D02*
X78877390Y-140239714D01*
X78877390Y-140239714D02*
X78829771Y-140334952D01*
X78829771Y-140334952D02*
X78829771Y-140573047D01*
X78829771Y-140573047D02*
X78877390Y-140668285D01*
X78877390Y-140668285D02*
X78925009Y-140715904D01*
X78925009Y-140715904D02*
X79020247Y-140763523D01*
X79020247Y-140763523D02*
X79258342Y-140763523D01*
X79258342Y-140763523D02*
X79353580Y-140715904D01*
X79353580Y-140715904D02*
X79401200Y-140668285D01*
X79401200Y-140668285D02*
X79448819Y-140573047D01*
X79448819Y-140573047D02*
X79448819Y-140334952D01*
X79448819Y-140334952D02*
X79401200Y-140239714D01*
X79401200Y-140239714D02*
X79353580Y-140192095D01*
X87375904Y-143472819D02*
X87375904Y-144282342D01*
X87375904Y-144282342D02*
X87328285Y-144377580D01*
X87328285Y-144377580D02*
X87280666Y-144425200D01*
X87280666Y-144425200D02*
X87185428Y-144472819D01*
X87185428Y-144472819D02*
X86994952Y-144472819D01*
X86994952Y-144472819D02*
X86899714Y-144425200D01*
X86899714Y-144425200D02*
X86852095Y-144377580D01*
X86852095Y-144377580D02*
X86804476Y-144282342D01*
X86804476Y-144282342D02*
X86804476Y-143472819D01*
X85899714Y-143472819D02*
X86090190Y-143472819D01*
X86090190Y-143472819D02*
X86185428Y-143520438D01*
X86185428Y-143520438D02*
X86233047Y-143568057D01*
X86233047Y-143568057D02*
X86328285Y-143710914D01*
X86328285Y-143710914D02*
X86375904Y-143901390D01*
X86375904Y-143901390D02*
X86375904Y-144282342D01*
X86375904Y-144282342D02*
X86328285Y-144377580D01*
X86328285Y-144377580D02*
X86280666Y-144425200D01*
X86280666Y-144425200D02*
X86185428Y-144472819D01*
X86185428Y-144472819D02*
X85994952Y-144472819D01*
X85994952Y-144472819D02*
X85899714Y-144425200D01*
X85899714Y-144425200D02*
X85852095Y-144377580D01*
X85852095Y-144377580D02*
X85804476Y-144282342D01*
X85804476Y-144282342D02*
X85804476Y-144044247D01*
X85804476Y-144044247D02*
X85852095Y-143949009D01*
X85852095Y-143949009D02*
X85899714Y-143901390D01*
X85899714Y-143901390D02*
X85994952Y-143853771D01*
X85994952Y-143853771D02*
X86185428Y-143853771D01*
X86185428Y-143853771D02*
X86280666Y-143901390D01*
X86280666Y-143901390D02*
X86328285Y-143949009D01*
X86328285Y-143949009D02*
X86375904Y-144044247D01*
X63753904Y-144488819D02*
X63753904Y-145298342D01*
X63753904Y-145298342D02*
X63706285Y-145393580D01*
X63706285Y-145393580D02*
X63658666Y-145441200D01*
X63658666Y-145441200D02*
X63563428Y-145488819D01*
X63563428Y-145488819D02*
X63372952Y-145488819D01*
X63372952Y-145488819D02*
X63277714Y-145441200D01*
X63277714Y-145441200D02*
X63230095Y-145393580D01*
X63230095Y-145393580D02*
X63182476Y-145298342D01*
X63182476Y-145298342D02*
X63182476Y-144488819D01*
X62801523Y-144488819D02*
X62134857Y-144488819D01*
X62134857Y-144488819D02*
X62563428Y-145488819D01*
X69381666Y-155045580D02*
X69429285Y-155093200D01*
X69429285Y-155093200D02*
X69572142Y-155140819D01*
X69572142Y-155140819D02*
X69667380Y-155140819D01*
X69667380Y-155140819D02*
X69810237Y-155093200D01*
X69810237Y-155093200D02*
X69905475Y-154997961D01*
X69905475Y-154997961D02*
X69953094Y-154902723D01*
X69953094Y-154902723D02*
X70000713Y-154712247D01*
X70000713Y-154712247D02*
X70000713Y-154569390D01*
X70000713Y-154569390D02*
X69953094Y-154378914D01*
X69953094Y-154378914D02*
X69905475Y-154283676D01*
X69905475Y-154283676D02*
X69810237Y-154188438D01*
X69810237Y-154188438D02*
X69667380Y-154140819D01*
X69667380Y-154140819D02*
X69572142Y-154140819D01*
X69572142Y-154140819D02*
X69429285Y-154188438D01*
X69429285Y-154188438D02*
X69381666Y-154236057D01*
X68905475Y-155140819D02*
X68714999Y-155140819D01*
X68714999Y-155140819D02*
X68619761Y-155093200D01*
X68619761Y-155093200D02*
X68572142Y-155045580D01*
X68572142Y-155045580D02*
X68476904Y-154902723D01*
X68476904Y-154902723D02*
X68429285Y-154712247D01*
X68429285Y-154712247D02*
X68429285Y-154331295D01*
X68429285Y-154331295D02*
X68476904Y-154236057D01*
X68476904Y-154236057D02*
X68524523Y-154188438D01*
X68524523Y-154188438D02*
X68619761Y-154140819D01*
X68619761Y-154140819D02*
X68810237Y-154140819D01*
X68810237Y-154140819D02*
X68905475Y-154188438D01*
X68905475Y-154188438D02*
X68953094Y-154236057D01*
X68953094Y-154236057D02*
X69000713Y-154331295D01*
X69000713Y-154331295D02*
X69000713Y-154569390D01*
X69000713Y-154569390D02*
X68953094Y-154664628D01*
X68953094Y-154664628D02*
X68905475Y-154712247D01*
X68905475Y-154712247D02*
X68810237Y-154759866D01*
X68810237Y-154759866D02*
X68619761Y-154759866D01*
X68619761Y-154759866D02*
X68524523Y-154712247D01*
X68524523Y-154712247D02*
X68476904Y-154664628D01*
X68476904Y-154664628D02*
X68429285Y-154569390D01*
%TO.C,C1*%
D12*
X57246225Y-55200000D02*
X57246225Y-55700000D01*
X57496225Y-55450000D02*
X56996225Y-55450000D01*
X59801000Y-51395000D02*
X59801000Y-52935000D01*
X59801000Y-55015000D02*
X59801000Y-56555000D01*
X59841000Y-51395000D02*
X59841000Y-52935000D01*
X59841000Y-55015000D02*
X59841000Y-56555000D01*
X59881000Y-51396000D02*
X59881000Y-52935000D01*
X59881000Y-55015000D02*
X59881000Y-56554000D01*
X59921000Y-51397000D02*
X59921000Y-52935000D01*
X59921000Y-55015000D02*
X59921000Y-56553000D01*
X59961000Y-51399000D02*
X59961000Y-52935000D01*
X59961000Y-55015000D02*
X59961000Y-56551000D01*
X60001000Y-51402000D02*
X60001000Y-52935000D01*
X60001000Y-55015000D02*
X60001000Y-56548000D01*
X60041000Y-51406000D02*
X60041000Y-52935000D01*
X60041000Y-55015000D02*
X60041000Y-56544000D01*
X60081000Y-51410000D02*
X60081000Y-52935000D01*
X60081000Y-55015000D02*
X60081000Y-56540000D01*
X60121000Y-51414000D02*
X60121000Y-52935000D01*
X60121000Y-55015000D02*
X60121000Y-56536000D01*
X60161000Y-51419000D02*
X60161000Y-52935000D01*
X60161000Y-55015000D02*
X60161000Y-56531000D01*
X60201000Y-51425000D02*
X60201000Y-52935000D01*
X60201000Y-55015000D02*
X60201000Y-56525000D01*
X60241000Y-51432000D02*
X60241000Y-52935000D01*
X60241000Y-55015000D02*
X60241000Y-56518000D01*
X60281000Y-51439000D02*
X60281000Y-52935000D01*
X60281000Y-55015000D02*
X60281000Y-56511000D01*
X60321000Y-51447000D02*
X60321000Y-52935000D01*
X60321000Y-55015000D02*
X60321000Y-56503000D01*
X60361000Y-51455000D02*
X60361000Y-52935000D01*
X60361000Y-55015000D02*
X60361000Y-56495000D01*
X60401000Y-51464000D02*
X60401000Y-52935000D01*
X60401000Y-55015000D02*
X60401000Y-56486000D01*
X60441000Y-51474000D02*
X60441000Y-52935000D01*
X60441000Y-55015000D02*
X60441000Y-56476000D01*
X60481000Y-51484000D02*
X60481000Y-52935000D01*
X60481000Y-55015000D02*
X60481000Y-56466000D01*
X60522000Y-51495000D02*
X60522000Y-52935000D01*
X60522000Y-55015000D02*
X60522000Y-56455000D01*
X60562000Y-51507000D02*
X60562000Y-52935000D01*
X60562000Y-55015000D02*
X60562000Y-56443000D01*
X60602000Y-51520000D02*
X60602000Y-52935000D01*
X60602000Y-55015000D02*
X60602000Y-56430000D01*
X60642000Y-51533000D02*
X60642000Y-52935000D01*
X60642000Y-55015000D02*
X60642000Y-56417000D01*
X60682000Y-51547000D02*
X60682000Y-52935000D01*
X60682000Y-55015000D02*
X60682000Y-56403000D01*
X60722000Y-51561000D02*
X60722000Y-52935000D01*
X60722000Y-55015000D02*
X60722000Y-56389000D01*
X60762000Y-51577000D02*
X60762000Y-52935000D01*
X60762000Y-55015000D02*
X60762000Y-56373000D01*
X60802000Y-51593000D02*
X60802000Y-52935000D01*
X60802000Y-55015000D02*
X60802000Y-56357000D01*
X60842000Y-51610000D02*
X60842000Y-52935000D01*
X60842000Y-55015000D02*
X60842000Y-56340000D01*
X60882000Y-51627000D02*
X60882000Y-52935000D01*
X60882000Y-55015000D02*
X60882000Y-56323000D01*
X60922000Y-51646000D02*
X60922000Y-52935000D01*
X60922000Y-55015000D02*
X60922000Y-56304000D01*
X60962000Y-51665000D02*
X60962000Y-52935000D01*
X60962000Y-55015000D02*
X60962000Y-56285000D01*
X61002000Y-51685000D02*
X61002000Y-52935000D01*
X61002000Y-55015000D02*
X61002000Y-56265000D01*
X61042000Y-51707000D02*
X61042000Y-52935000D01*
X61042000Y-55015000D02*
X61042000Y-56243000D01*
X61082000Y-51728000D02*
X61082000Y-52935000D01*
X61082000Y-55015000D02*
X61082000Y-56222000D01*
X61122000Y-51751000D02*
X61122000Y-52935000D01*
X61122000Y-55015000D02*
X61122000Y-56199000D01*
X61162000Y-51775000D02*
X61162000Y-52935000D01*
X61162000Y-55015000D02*
X61162000Y-56175000D01*
X61202000Y-51800000D02*
X61202000Y-52935000D01*
X61202000Y-55015000D02*
X61202000Y-56150000D01*
X61242000Y-51826000D02*
X61242000Y-52935000D01*
X61242000Y-55015000D02*
X61242000Y-56124000D01*
X61282000Y-51853000D02*
X61282000Y-52935000D01*
X61282000Y-55015000D02*
X61282000Y-56097000D01*
X61322000Y-51880000D02*
X61322000Y-52935000D01*
X61322000Y-55015000D02*
X61322000Y-56070000D01*
X61362000Y-51910000D02*
X61362000Y-52935000D01*
X61362000Y-55015000D02*
X61362000Y-56040000D01*
X61402000Y-51940000D02*
X61402000Y-52935000D01*
X61402000Y-55015000D02*
X61402000Y-56010000D01*
X61442000Y-51971000D02*
X61442000Y-52935000D01*
X61442000Y-55015000D02*
X61442000Y-55979000D01*
X61482000Y-52004000D02*
X61482000Y-52935000D01*
X61482000Y-55015000D02*
X61482000Y-55946000D01*
X61522000Y-52038000D02*
X61522000Y-52935000D01*
X61522000Y-55015000D02*
X61522000Y-55912000D01*
X61562000Y-52074000D02*
X61562000Y-52935000D01*
X61562000Y-55015000D02*
X61562000Y-55876000D01*
X61602000Y-52111000D02*
X61602000Y-52935000D01*
X61602000Y-55015000D02*
X61602000Y-55839000D01*
X61642000Y-52149000D02*
X61642000Y-52935000D01*
X61642000Y-55015000D02*
X61642000Y-55801000D01*
X61682000Y-52190000D02*
X61682000Y-52935000D01*
X61682000Y-55015000D02*
X61682000Y-55760000D01*
X61722000Y-52232000D02*
X61722000Y-52935000D01*
X61722000Y-55015000D02*
X61722000Y-55718000D01*
X61762000Y-52276000D02*
X61762000Y-52935000D01*
X61762000Y-55015000D02*
X61762000Y-55674000D01*
X61802000Y-52322000D02*
X61802000Y-52935000D01*
X61802000Y-55015000D02*
X61802000Y-55628000D01*
X61842000Y-52370000D02*
X61842000Y-55580000D01*
X61882000Y-52421000D02*
X61882000Y-55529000D01*
X61922000Y-52475000D02*
X61922000Y-55475000D01*
X61962000Y-52532000D02*
X61962000Y-55418000D01*
X62002000Y-52592000D02*
X62002000Y-55358000D01*
X62042000Y-52656000D02*
X62042000Y-55294000D01*
X62082000Y-52724000D02*
X62082000Y-55226000D01*
X62122000Y-52797000D02*
X62122000Y-55153000D01*
X62162000Y-52877000D02*
X62162000Y-55073000D01*
X62202000Y-52964000D02*
X62202000Y-54986000D01*
X62242000Y-53060000D02*
X62242000Y-54890000D01*
X62282000Y-53170000D02*
X62282000Y-54780000D01*
X62322000Y-53298000D02*
X62322000Y-54652000D01*
X62362000Y-53457000D02*
X62362000Y-54493000D01*
X62402000Y-53691000D02*
X62402000Y-54259000D01*
X62421000Y-53975000D02*
G75*
G02*
X57181000Y-53975000I-2620000J0D01*
G01*
X57181000Y-53975000D02*
G75*
G02*
X62421000Y-53975000I2620000J0D01*
G01*
%TO.C,C2*%
X51263000Y-54132000D02*
X51263000Y-53564000D01*
X51303000Y-54366000D02*
X51303000Y-53330000D01*
X51343000Y-54525000D02*
X51343000Y-53171000D01*
X51383000Y-54653000D02*
X51383000Y-53043000D01*
X51423000Y-54763000D02*
X51423000Y-52933000D01*
X51463000Y-54859000D02*
X51463000Y-52837000D01*
X51503000Y-54946000D02*
X51503000Y-52750000D01*
X51543000Y-55026000D02*
X51543000Y-52670000D01*
X51583000Y-55099000D02*
X51583000Y-52597000D01*
X51623000Y-55167000D02*
X51623000Y-52529000D01*
X51663000Y-55231000D02*
X51663000Y-52465000D01*
X51703000Y-55291000D02*
X51703000Y-52405000D01*
X51743000Y-55348000D02*
X51743000Y-52348000D01*
X51783000Y-55402000D02*
X51783000Y-52294000D01*
X51823000Y-55453000D02*
X51823000Y-52243000D01*
X51863000Y-52808000D02*
X51863000Y-52195000D01*
X51863000Y-55501000D02*
X51863000Y-54888000D01*
X51903000Y-52808000D02*
X51903000Y-52149000D01*
X51903000Y-55547000D02*
X51903000Y-54888000D01*
X51943000Y-52808000D02*
X51943000Y-52105000D01*
X51943000Y-55591000D02*
X51943000Y-54888000D01*
X51983000Y-52808000D02*
X51983000Y-52063000D01*
X51983000Y-55633000D02*
X51983000Y-54888000D01*
X52023000Y-52808000D02*
X52023000Y-52022000D01*
X52023000Y-55674000D02*
X52023000Y-54888000D01*
X52063000Y-52808000D02*
X52063000Y-51984000D01*
X52063000Y-55712000D02*
X52063000Y-54888000D01*
X52103000Y-52808000D02*
X52103000Y-51947000D01*
X52103000Y-55749000D02*
X52103000Y-54888000D01*
X52143000Y-52808000D02*
X52143000Y-51911000D01*
X52143000Y-55785000D02*
X52143000Y-54888000D01*
X52183000Y-52808000D02*
X52183000Y-51877000D01*
X52183000Y-55819000D02*
X52183000Y-54888000D01*
X52223000Y-52808000D02*
X52223000Y-51844000D01*
X52223000Y-55852000D02*
X52223000Y-54888000D01*
X52263000Y-52808000D02*
X52263000Y-51813000D01*
X52263000Y-55883000D02*
X52263000Y-54888000D01*
X52303000Y-52808000D02*
X52303000Y-51783000D01*
X52303000Y-55913000D02*
X52303000Y-54888000D01*
X52343000Y-52808000D02*
X52343000Y-51753000D01*
X52343000Y-55943000D02*
X52343000Y-54888000D01*
X52383000Y-52808000D02*
X52383000Y-51726000D01*
X52383000Y-55970000D02*
X52383000Y-54888000D01*
X52423000Y-52808000D02*
X52423000Y-51699000D01*
X52423000Y-55997000D02*
X52423000Y-54888000D01*
X52463000Y-52808000D02*
X52463000Y-51673000D01*
X52463000Y-56023000D02*
X52463000Y-54888000D01*
X52503000Y-52808000D02*
X52503000Y-51648000D01*
X52503000Y-56048000D02*
X52503000Y-54888000D01*
X52543000Y-52808000D02*
X52543000Y-51624000D01*
X52543000Y-56072000D02*
X52543000Y-54888000D01*
X52583000Y-52808000D02*
X52583000Y-51601000D01*
X52583000Y-56095000D02*
X52583000Y-54888000D01*
X52623000Y-52808000D02*
X52623000Y-51580000D01*
X52623000Y-56116000D02*
X52623000Y-54888000D01*
X52663000Y-52808000D02*
X52663000Y-51558000D01*
X52663000Y-56138000D02*
X52663000Y-54888000D01*
X52703000Y-52808000D02*
X52703000Y-51538000D01*
X52703000Y-56158000D02*
X52703000Y-54888000D01*
X52743000Y-52808000D02*
X52743000Y-51519000D01*
X52743000Y-56177000D02*
X52743000Y-54888000D01*
X52783000Y-52808000D02*
X52783000Y-51500000D01*
X52783000Y-56196000D02*
X52783000Y-54888000D01*
X52823000Y-52808000D02*
X52823000Y-51483000D01*
X52823000Y-56213000D02*
X52823000Y-54888000D01*
X52863000Y-52808000D02*
X52863000Y-51466000D01*
X52863000Y-56230000D02*
X52863000Y-54888000D01*
X52903000Y-52808000D02*
X52903000Y-51450000D01*
X52903000Y-56246000D02*
X52903000Y-54888000D01*
X52943000Y-52808000D02*
X52943000Y-51434000D01*
X52943000Y-56262000D02*
X52943000Y-54888000D01*
X52983000Y-52808000D02*
X52983000Y-51420000D01*
X52983000Y-56276000D02*
X52983000Y-54888000D01*
X53023000Y-52808000D02*
X53023000Y-51406000D01*
X53023000Y-56290000D02*
X53023000Y-54888000D01*
X53063000Y-52808000D02*
X53063000Y-51393000D01*
X53063000Y-56303000D02*
X53063000Y-54888000D01*
X53103000Y-52808000D02*
X53103000Y-51380000D01*
X53103000Y-56316000D02*
X53103000Y-54888000D01*
X53143000Y-52808000D02*
X53143000Y-51368000D01*
X53143000Y-56328000D02*
X53143000Y-54888000D01*
X53184000Y-52808000D02*
X53184000Y-51357000D01*
X53184000Y-56339000D02*
X53184000Y-54888000D01*
X53224000Y-52808000D02*
X53224000Y-51347000D01*
X53224000Y-56349000D02*
X53224000Y-54888000D01*
X53264000Y-52808000D02*
X53264000Y-51337000D01*
X53264000Y-56359000D02*
X53264000Y-54888000D01*
X53304000Y-52808000D02*
X53304000Y-51328000D01*
X53304000Y-56368000D02*
X53304000Y-54888000D01*
X53344000Y-52808000D02*
X53344000Y-51320000D01*
X53344000Y-56376000D02*
X53344000Y-54888000D01*
X53384000Y-52808000D02*
X53384000Y-51312000D01*
X53384000Y-56384000D02*
X53384000Y-54888000D01*
X53424000Y-52808000D02*
X53424000Y-51305000D01*
X53424000Y-56391000D02*
X53424000Y-54888000D01*
X53464000Y-52808000D02*
X53464000Y-51298000D01*
X53464000Y-56398000D02*
X53464000Y-54888000D01*
X53504000Y-52808000D02*
X53504000Y-51292000D01*
X53504000Y-56404000D02*
X53504000Y-54888000D01*
X53544000Y-52808000D02*
X53544000Y-51287000D01*
X53544000Y-56409000D02*
X53544000Y-54888000D01*
X53584000Y-52808000D02*
X53584000Y-51283000D01*
X53584000Y-56413000D02*
X53584000Y-54888000D01*
X53624000Y-52808000D02*
X53624000Y-51279000D01*
X53624000Y-56417000D02*
X53624000Y-54888000D01*
X53664000Y-52808000D02*
X53664000Y-51275000D01*
X53664000Y-56421000D02*
X53664000Y-54888000D01*
X53704000Y-52808000D02*
X53704000Y-51272000D01*
X53704000Y-56424000D02*
X53704000Y-54888000D01*
X53744000Y-52808000D02*
X53744000Y-51270000D01*
X53744000Y-56426000D02*
X53744000Y-54888000D01*
X53784000Y-52808000D02*
X53784000Y-51269000D01*
X53784000Y-56427000D02*
X53784000Y-54888000D01*
X53824000Y-52808000D02*
X53824000Y-51268000D01*
X53824000Y-56428000D02*
X53824000Y-54888000D01*
X53864000Y-52808000D02*
X53864000Y-51268000D01*
X53864000Y-56428000D02*
X53864000Y-54888000D01*
X56168775Y-52373000D02*
X56668775Y-52373000D01*
X56418775Y-52623000D02*
X56418775Y-52123000D01*
X56484000Y-53848000D02*
G75*
G02*
X51244000Y-53848000I-2620000J0D01*
G01*
X51244000Y-53848000D02*
G75*
G02*
X56484000Y-53848000I2620000J0D01*
G01*
%TO.C,J1*%
X69847000Y-51447000D02*
X90427000Y-51447000D01*
X69847000Y-60567000D02*
X69847000Y-51447000D01*
X71147000Y-52757000D02*
X89127000Y-52757000D01*
X71147000Y-59257000D02*
X71147000Y-52757000D01*
X78087000Y-59257000D02*
X71147000Y-59257000D01*
D13*
X78087000Y-59257000D02*
X78086999Y-59257000D01*
X78086999Y-59257000D01*
X78086999Y-59257000D01*
X78086999Y-59257000D01*
X78086999Y-59257000D01*
X78086999Y-59257000D01*
X78086999Y-59257000D01*
X78086999Y-59256999D01*
X78086999Y-59256999D01*
X78086999Y-59256999D01*
X78086999Y-59256999D01*
X78086999Y-59256999D01*
X78087000Y-59256999D01*
X78087000Y-59256999D01*
X78087000Y-59256999D01*
X78087000Y-59256999D01*
X78087000Y-59256999D01*
X78087000Y-59256999D01*
X78087000Y-59256999D01*
X78087000Y-59256999D01*
X78087000Y-59256999D01*
X78087000Y-59256999D01*
X78087000Y-59256999D01*
X78087000Y-59256999D01*
X78087001Y-59256999D01*
X78087001Y-59256999D01*
X78087001Y-59256999D01*
X78087001Y-59256999D01*
X78087001Y-59256999D01*
X78087001Y-59256999D01*
X78087001Y-59257000D01*
X78087001Y-59257000D01*
X78087001Y-59257000D01*
X78087001Y-59257000D01*
X78087001Y-59257000D01*
X78087001Y-59257000D01*
X78087001Y-59257000D01*
X78087000Y-59257000D01*
X78087000Y-59257000D02*
X78087001Y-59257000D01*
X78087001Y-59257000D01*
X78087001Y-59257000D01*
X78087001Y-59257000D01*
X78087001Y-59257000D01*
X78087001Y-59257000D01*
X78087001Y-59257001D01*
X78087001Y-59257001D01*
X78087001Y-59257001D01*
X78087001Y-59257001D01*
X78087001Y-59257001D01*
X78087001Y-59257001D01*
X78087001Y-59257001D01*
X78087000Y-59257001D01*
X78087000Y-59257001D01*
X78087000Y-59257001D01*
X78087000Y-59257001D01*
X78087000Y-59257001D01*
X78087000Y-59257001D01*
X78087000Y-59257001D01*
X78087000Y-59257001D01*
X78087000Y-59257001D01*
X78087000Y-59257001D01*
X78087000Y-59257001D01*
X78087000Y-59257001D01*
X78086999Y-59257001D01*
X78086999Y-59257001D01*
X78086999Y-59257001D01*
X78086999Y-59257001D01*
X78086999Y-59257001D01*
X78086999Y-59257001D01*
X78086999Y-59257000D01*
X78086999Y-59257000D01*
X78086999Y-59257000D01*
X78086999Y-59257000D01*
X78086999Y-59257000D01*
X78086999Y-59257000D01*
X78087000Y-59257000D01*
D12*
X78087000Y-60567000D02*
X78087000Y-59257000D01*
X82187000Y-59257000D02*
X82187000Y-60567000D01*
X84717000Y-61957000D02*
X85717000Y-61957000D01*
X85217000Y-60957000D02*
X84717000Y-61957000D01*
X85717000Y-61957000D02*
X85217000Y-60957000D01*
X89127000Y-52757000D02*
X89127000Y-59257000D01*
X89127000Y-59257000D02*
X82187000Y-59257000D01*
X90427000Y-51447000D02*
X90427000Y-60567000D01*
X90427000Y-60567000D02*
X69847000Y-60567000D01*
%TO.C,R1*%
X66818000Y-54737000D02*
X66198000Y-54737000D01*
X66198000Y-54737000D02*
G75*
G02*
X64358000Y-54737000I-920000J0D01*
G01*
X64358000Y-54737000D02*
G75*
G02*
X66198000Y-54737000I920000J0D01*
G01*
%TO.C,R2*%
X66818000Y-52324000D02*
X66198000Y-52324000D01*
X66198000Y-52324000D02*
G75*
G02*
X64358000Y-52324000I-920000J0D01*
G01*
X64358000Y-52324000D02*
G75*
G02*
X66198000Y-52324000I920000J0D01*
G01*
%TO.C,R3*%
X86641000Y-78332064D02*
X86641000Y-77877936D01*
X88111000Y-78332064D02*
X88111000Y-77877936D01*
%TO.C,R4*%
X83339000Y-77877936D02*
X83339000Y-78332064D01*
X84809000Y-77877936D02*
X84809000Y-78332064D01*
%TO.C,R5*%
X86641000Y-98622064D02*
X86641000Y-98167936D01*
X88111000Y-98622064D02*
X88111000Y-98167936D01*
%TO.C,R6*%
X83339000Y-98167936D02*
X83339000Y-98622064D01*
X84809000Y-98167936D02*
X84809000Y-98622064D01*
%TO.C,R7*%
X86641000Y-118972064D02*
X86641000Y-118517936D01*
X88111000Y-118972064D02*
X88111000Y-118517936D01*
%TO.C,R8*%
X83339000Y-118517936D02*
X83339000Y-118972064D01*
X84809000Y-118517936D02*
X84809000Y-118972064D01*
%TO.C,R9*%
X86641000Y-137992064D02*
X86641000Y-137537936D01*
X88111000Y-137992064D02*
X88111000Y-137537936D01*
%TO.C,R10*%
X83339000Y-137537936D02*
X83339000Y-137992064D01*
X84809000Y-137537936D02*
X84809000Y-137992064D01*
%TO.C,R11*%
X75465000Y-73432936D02*
X75465000Y-73887064D01*
X76935000Y-73432936D02*
X76935000Y-73887064D01*
%TO.C,R12*%
X75465000Y-94207064D02*
X75465000Y-93752936D01*
X76935000Y-94207064D02*
X76935000Y-93752936D01*
%TO.C,R13*%
X75211000Y-114892064D02*
X75211000Y-114437936D01*
X76681000Y-114892064D02*
X76681000Y-114437936D01*
%TO.C,R14*%
X75465000Y-134212064D02*
X75465000Y-133757936D01*
X76935000Y-134212064D02*
X76935000Y-133757936D01*
%TO.C,R15*%
X72290000Y-73432936D02*
X72290000Y-73887064D01*
X73760000Y-73432936D02*
X73760000Y-73887064D01*
%TO.C,R16*%
X72290000Y-93752936D02*
X72290000Y-94207064D01*
X73760000Y-93752936D02*
X73760000Y-94207064D01*
%TO.C,R17*%
X72290000Y-114437936D02*
X72290000Y-114892064D01*
X73760000Y-114437936D02*
X73760000Y-114892064D01*
%TO.C,R18*%
X72290000Y-133757936D02*
X72290000Y-134212064D01*
X73760000Y-133757936D02*
X73760000Y-134212064D01*
%TO.C,R19*%
X69750000Y-76607936D02*
X69750000Y-77062064D01*
X71220000Y-76607936D02*
X71220000Y-77062064D01*
%TO.C,R20*%
X69750000Y-96927936D02*
X69750000Y-97382064D01*
X71220000Y-96927936D02*
X71220000Y-97382064D01*
%TO.C,R21*%
X69750000Y-117247936D02*
X69750000Y-117702064D01*
X71220000Y-117247936D02*
X71220000Y-117702064D01*
%TO.C,R22*%
X69750000Y-136932936D02*
X69750000Y-137387064D01*
X71220000Y-136932936D02*
X71220000Y-137387064D01*
%TO.C,R24*%
X53240000Y-142564064D02*
X53240000Y-142109936D01*
X54710000Y-142564064D02*
X54710000Y-142109936D01*
%TO.C,R25*%
X56375800Y-142564064D02*
X56375800Y-142109936D01*
X57845800Y-142564064D02*
X57845800Y-142109936D01*
%TO.C,R26*%
X59511500Y-142564064D02*
X59511500Y-142109936D01*
X60981500Y-142564064D02*
X60981500Y-142109936D01*
%TO.C,R27*%
X62647200Y-142564064D02*
X62647200Y-142109936D01*
X64117200Y-142564064D02*
X64117200Y-142109936D01*
%TO.C,R31*%
X56542000Y-149071064D02*
X56542000Y-148616936D01*
X58012000Y-149071064D02*
X58012000Y-148616936D01*
%TO.C,R33*%
X68987936Y-146077000D02*
X69442064Y-146077000D01*
X68987936Y-147547000D02*
X69442064Y-147547000D01*
%TO.C,R36*%
X69442064Y-149379000D02*
X68987936Y-149379000D01*
X69442064Y-150849000D02*
X68987936Y-150849000D01*
%TO.C,R39*%
X77443064Y-151411000D02*
X76988936Y-151411000D01*
X77443064Y-152881000D02*
X76988936Y-152881000D01*
%TO.C,C3*%
X69750000Y-101338748D02*
X69750000Y-101861252D01*
X71220000Y-101338748D02*
X71220000Y-101861252D01*
%TO.C,C4*%
X79783000Y-98686252D02*
X79783000Y-98163748D01*
X81253000Y-98686252D02*
X81253000Y-98163748D01*
%TO.C,C5*%
X64254748Y-151665000D02*
X64777252Y-151665000D01*
X64254748Y-153135000D02*
X64777252Y-153135000D01*
%TO.C,C6*%
X65813000Y-142628252D02*
X65813000Y-142105748D01*
X67283000Y-142628252D02*
X67283000Y-142105748D01*
%TO.C,C7*%
X69750000Y-141343748D02*
X69750000Y-141866252D01*
X71220000Y-141343748D02*
X71220000Y-141866252D01*
%TO.C,C8*%
X79783000Y-138056252D02*
X79783000Y-137533748D01*
X81253000Y-138056252D02*
X81253000Y-137533748D01*
%TO.C,C10*%
X53240000Y-148582748D02*
X53240000Y-149105252D01*
X54710000Y-148582748D02*
X54710000Y-149105252D01*
%TO.C,C11*%
X69750000Y-81018748D02*
X69750000Y-81541252D01*
X71220000Y-81018748D02*
X71220000Y-81541252D01*
%TO.C,C12*%
X79783000Y-78396252D02*
X79783000Y-77873748D01*
X81253000Y-78396252D02*
X81253000Y-77873748D01*
%TO.C,C13*%
X87368748Y-150776000D02*
X87891252Y-150776000D01*
X87368748Y-152246000D02*
X87891252Y-152246000D01*
%TO.C,C14*%
X85844748Y-141505000D02*
X86367252Y-141505000D01*
X85844748Y-142975000D02*
X86367252Y-142975000D01*
%TO.C,C15*%
X69750000Y-121658748D02*
X69750000Y-122181252D01*
X71220000Y-121658748D02*
X71220000Y-122181252D01*
%TO.C,C16*%
X79783000Y-119036252D02*
X79783000Y-118513748D01*
X81253000Y-119036252D02*
X81253000Y-118513748D01*
%TO.C,R23*%
X59970936Y-60225000D02*
X60425064Y-60225000D01*
X59970936Y-61695000D02*
X60425064Y-61695000D01*
%TO.C,R28*%
X87857064Y-153951000D02*
X87402936Y-153951000D01*
X87857064Y-155421000D02*
X87402936Y-155421000D01*
%TO.C,R29*%
X71982064Y-69115000D02*
X71527936Y-69115000D01*
X71982064Y-70585000D02*
X71527936Y-70585000D01*
%TO.C,R30*%
X71982064Y-109755000D02*
X71527936Y-109755000D01*
X71982064Y-111225000D02*
X71527936Y-111225000D01*
%TO.C,R32*%
X71982064Y-89435000D02*
X71527936Y-89435000D01*
X71982064Y-90905000D02*
X71527936Y-90905000D01*
%TO.C,R34*%
X71527936Y-130075000D02*
X71982064Y-130075000D01*
X71527936Y-131545000D02*
X71982064Y-131545000D01*
%TO.C,U1*%
X58638000Y-63358000D02*
X58638000Y-64008000D01*
X58638000Y-64658000D02*
X58638000Y-64008000D01*
X61758000Y-63358000D02*
X61758000Y-64008000D01*
X61758000Y-64658000D02*
X61758000Y-64008000D01*
X62038000Y-65410500D02*
X61708000Y-65170500D01*
X62038000Y-64930500D01*
X62038000Y-65410500D01*
G36*
X62038000Y-65410500D02*
G01*
X61708000Y-65170500D01*
X62038000Y-64930500D01*
X62038000Y-65410500D01*
G37*
%TO.C,U2*%
X73005000Y-78060000D02*
X73005000Y-80010000D01*
X73005000Y-81960000D02*
X73005000Y-80010000D01*
X78125000Y-78060000D02*
X78125000Y-80010000D01*
X78125000Y-81960000D02*
X78125000Y-80010000D01*
X73100000Y-77310000D02*
X72770000Y-77550000D01*
X72770000Y-77070000D01*
X73100000Y-77310000D01*
G36*
X73100000Y-77310000D02*
G01*
X72770000Y-77550000D01*
X72770000Y-77070000D01*
X73100000Y-77310000D01*
G37*
%TO.C,U3*%
X73005000Y-98380000D02*
X73005000Y-100330000D01*
X73005000Y-102280000D02*
X73005000Y-100330000D01*
X78125000Y-98380000D02*
X78125000Y-100330000D01*
X78125000Y-102280000D02*
X78125000Y-100330000D01*
X73100000Y-97630000D02*
X72770000Y-97870000D01*
X72770000Y-97390000D01*
X73100000Y-97630000D01*
G36*
X73100000Y-97630000D02*
G01*
X72770000Y-97870000D01*
X72770000Y-97390000D01*
X73100000Y-97630000D01*
G37*
%TO.C,U4*%
X73005000Y-118700000D02*
X73005000Y-120650000D01*
X73005000Y-122600000D02*
X73005000Y-120650000D01*
X78125000Y-118700000D02*
X78125000Y-120650000D01*
X78125000Y-122600000D02*
X78125000Y-120650000D01*
X73100000Y-117950000D02*
X72770000Y-118190000D01*
X72770000Y-117710000D01*
X73100000Y-117950000D01*
G36*
X73100000Y-117950000D02*
G01*
X72770000Y-118190000D01*
X72770000Y-117710000D01*
X73100000Y-117950000D01*
G37*
%TO.C,U5*%
X73005000Y-138320000D02*
X73005000Y-140270000D01*
X73005000Y-142220000D02*
X73005000Y-140270000D01*
X78125000Y-138320000D02*
X78125000Y-140270000D01*
X78125000Y-142220000D02*
X78125000Y-140270000D01*
X73100000Y-137570000D02*
X72770000Y-137810000D01*
X72770000Y-137330000D01*
X73100000Y-137570000D01*
G36*
X73100000Y-137570000D02*
G01*
X72770000Y-137810000D01*
X72770000Y-137330000D01*
X73100000Y-137570000D01*
G37*
%TO.C,U6*%
X84410000Y-144760000D02*
X86360000Y-144760000D01*
X84410000Y-149880000D02*
X86360000Y-149880000D01*
X88310000Y-144760000D02*
X86360000Y-144760000D01*
X88310000Y-149880000D02*
X86360000Y-149880000D01*
X83900000Y-150115000D02*
X83420000Y-150115000D01*
X83660000Y-149785000D01*
X83900000Y-150115000D01*
G36*
X83900000Y-150115000D02*
G01*
X83420000Y-150115000D01*
X83660000Y-149785000D01*
X83900000Y-150115000D01*
G37*
%TO.C,U7*%
X60915000Y-145649000D02*
X62865000Y-145649000D01*
X60915000Y-150769000D02*
X62865000Y-150769000D01*
X64815000Y-145649000D02*
X62865000Y-145649000D01*
X64815000Y-150769000D02*
X62865000Y-150769000D01*
X60405000Y-151004000D02*
X59925000Y-151004000D01*
X60165000Y-150674000D01*
X60405000Y-151004000D01*
G36*
X60405000Y-151004000D02*
G01*
X59925000Y-151004000D01*
X60165000Y-150674000D01*
X60405000Y-151004000D01*
G37*
%TO.C,C9*%
X68953748Y-152427000D02*
X69476252Y-152427000D01*
X68953748Y-153897000D02*
X69476252Y-153897000D01*
%TD*%
M02*
