%TF.GenerationSoftware,KiCad,Pcbnew,10.0.0*%
%TF.CreationDate,2026-03-23T17:27:58+01:00*%
%TF.ProjectId,summe,73756d6d-652e-46b6-9963-61645f706362,R01*%
%TF.SameCoordinates,Original*%
%TF.FileFunction,Paste,Bot*%
%TF.FilePolarity,Positive*%
%FSLAX46Y46*%
G04 Gerber Fmt 4.6, Leading zero omitted, Abs format (unit mm)*
G04 Created by KiCad (PCBNEW 10.0.0) date 2026-03-23 17:27:58*
%MOMM*%
%LPD*%
G01*
G04 APERTURE LIST*
G04 Aperture macros list*
%AMRoundRect*
0 Rectangle with rounded corners*
0 $1 Rounding radius*
0 $2 $3 $4 $5 $6 $7 $8 $9 X,Y pos of 4 corners*
0 Add a 4 corners polygon primitive as box body*
4,1,4,$2,$3,$4,$5,$6,$7,$8,$9,$2,$3,0*
0 Add four circle primitives for the rounded corners*
1,1,$1+$1,$2,$3*
1,1,$1+$1,$4,$5*
1,1,$1+$1,$6,$7*
1,1,$1+$1,$8,$9*
0 Add four rect primitives between the rounded corners*
20,1,$1+$1,$2,$3,$4,$5,0*
20,1,$1+$1,$4,$5,$6,$7,0*
20,1,$1+$1,$6,$7,$8,$9,0*
20,1,$1+$1,$8,$9,$2,$3,0*%
G04 Aperture macros list end*
%ADD10RoundRect,0.250000X-0.450000X0.350000X-0.450000X-0.350000X0.450000X-0.350000X0.450000X0.350000X0*%
%ADD11RoundRect,0.250000X0.450000X-0.350000X0.450000X0.350000X-0.450000X0.350000X-0.450000X-0.350000X0*%
%ADD12RoundRect,0.250000X0.350000X0.450000X-0.350000X0.450000X-0.350000X-0.450000X0.350000X-0.450000X0*%
%ADD13RoundRect,0.250000X-0.350000X-0.450000X0.350000X-0.450000X0.350000X0.450000X-0.350000X0.450000X0*%
%ADD14RoundRect,0.250000X0.475000X-0.337500X0.475000X0.337500X-0.475000X0.337500X-0.475000X-0.337500X0*%
%ADD15RoundRect,0.250000X-0.475000X0.337500X-0.475000X-0.337500X0.475000X-0.337500X0.475000X0.337500X0*%
%ADD16RoundRect,0.250000X0.337500X0.475000X-0.337500X0.475000X-0.337500X-0.475000X0.337500X-0.475000X0*%
%ADD17RoundRect,0.150000X0.150000X-0.587500X0.150000X0.587500X-0.150000X0.587500X-0.150000X-0.587500X0*%
%ADD18RoundRect,0.150000X-0.150000X0.825000X-0.150000X-0.825000X0.150000X-0.825000X0.150000X0.825000X0*%
%ADD19RoundRect,0.150000X-0.825000X-0.150000X0.825000X-0.150000X0.825000X0.150000X-0.825000X0.150000X0*%
G04 APERTURE END LIST*
D10*
%TO.C,R3*%
X87376000Y-77105000D03*
X87376000Y-79105000D03*
%TD*%
D11*
%TO.C,R4*%
X84074000Y-79105000D03*
X84074000Y-77105000D03*
%TD*%
D10*
%TO.C,R5*%
X87376000Y-97395000D03*
X87376000Y-99395000D03*
%TD*%
D11*
%TO.C,R6*%
X84074000Y-99395000D03*
X84074000Y-97395000D03*
%TD*%
D10*
%TO.C,R7*%
X87376000Y-117745000D03*
X87376000Y-119745000D03*
%TD*%
D11*
%TO.C,R8*%
X84074000Y-119745000D03*
X84074000Y-117745000D03*
%TD*%
D10*
%TO.C,R9*%
X87376000Y-136765000D03*
X87376000Y-138765000D03*
%TD*%
D11*
%TO.C,R10*%
X84074000Y-138765000D03*
X84074000Y-136765000D03*
%TD*%
%TO.C,R11*%
X76200000Y-74660000D03*
X76200000Y-72660000D03*
%TD*%
D10*
%TO.C,R12*%
X76200000Y-92980000D03*
X76200000Y-94980000D03*
%TD*%
%TO.C,R13*%
X75946000Y-113665000D03*
X75946000Y-115665000D03*
%TD*%
%TO.C,R14*%
X76200000Y-132985000D03*
X76200000Y-134985000D03*
%TD*%
D11*
%TO.C,R15*%
X73025000Y-74660000D03*
X73025000Y-72660000D03*
%TD*%
%TO.C,R16*%
X73025000Y-94980000D03*
X73025000Y-92980000D03*
%TD*%
%TO.C,R17*%
X73025000Y-115665000D03*
X73025000Y-113665000D03*
%TD*%
%TO.C,R18*%
X73025000Y-134985000D03*
X73025000Y-132985000D03*
%TD*%
%TO.C,R19*%
X70485000Y-77835000D03*
X70485000Y-75835000D03*
%TD*%
%TO.C,R20*%
X70485000Y-98155000D03*
X70485000Y-96155000D03*
%TD*%
%TO.C,R21*%
X70485000Y-118475000D03*
X70485000Y-116475000D03*
%TD*%
%TO.C,R22*%
X70485000Y-138160000D03*
X70485000Y-136160000D03*
%TD*%
D10*
%TO.C,R24*%
X53975000Y-141337000D03*
X53975000Y-143337000D03*
%TD*%
%TO.C,R25*%
X57110800Y-141337000D03*
X57110800Y-143337000D03*
%TD*%
%TO.C,R26*%
X60246500Y-141337000D03*
X60246500Y-143337000D03*
%TD*%
%TO.C,R27*%
X63382200Y-141337000D03*
X63382200Y-143337000D03*
%TD*%
%TO.C,R31*%
X57277000Y-147844000D03*
X57277000Y-149844000D03*
%TD*%
D12*
%TO.C,R33*%
X70215000Y-146812000D03*
X68215000Y-146812000D03*
%TD*%
D13*
%TO.C,R36*%
X68215000Y-150114000D03*
X70215000Y-150114000D03*
%TD*%
%TO.C,R39*%
X76216000Y-152146000D03*
X78216000Y-152146000D03*
%TD*%
D14*
%TO.C,C3*%
X70485000Y-102637500D03*
X70485000Y-100562500D03*
%TD*%
D15*
%TO.C,C4*%
X80518000Y-97387500D03*
X80518000Y-99462500D03*
%TD*%
D16*
%TO.C,C5*%
X65553500Y-152400000D03*
X63478500Y-152400000D03*
%TD*%
D15*
%TO.C,C6*%
X66548000Y-141329500D03*
X66548000Y-143404500D03*
%TD*%
D14*
%TO.C,C7*%
X70485000Y-142642500D03*
X70485000Y-140567500D03*
%TD*%
D15*
%TO.C,C8*%
X80518000Y-136757500D03*
X80518000Y-138832500D03*
%TD*%
D14*
%TO.C,C10*%
X53975000Y-149881500D03*
X53975000Y-147806500D03*
%TD*%
%TO.C,C11*%
X70485000Y-82317500D03*
X70485000Y-80242500D03*
%TD*%
D15*
%TO.C,C12*%
X80518000Y-77097500D03*
X80518000Y-79172500D03*
%TD*%
D16*
%TO.C,C13*%
X88667500Y-151511000D03*
X86592500Y-151511000D03*
%TD*%
%TO.C,C14*%
X87143500Y-142240000D03*
X85068500Y-142240000D03*
%TD*%
D14*
%TO.C,C15*%
X70485000Y-122957500D03*
X70485000Y-120882500D03*
%TD*%
D15*
%TO.C,C16*%
X80518000Y-117737500D03*
X80518000Y-119812500D03*
%TD*%
D12*
%TO.C,R23*%
X61198000Y-60960000D03*
X59198000Y-60960000D03*
%TD*%
D13*
%TO.C,R28*%
X86630000Y-154686000D03*
X88630000Y-154686000D03*
%TD*%
%TO.C,R29*%
X70755000Y-69850000D03*
X72755000Y-69850000D03*
%TD*%
%TO.C,R30*%
X70755000Y-110490000D03*
X72755000Y-110490000D03*
%TD*%
%TO.C,R32*%
X70755000Y-90170000D03*
X72755000Y-90170000D03*
%TD*%
D12*
%TO.C,R34*%
X72755000Y-130810000D03*
X70755000Y-130810000D03*
%TD*%
D17*
%TO.C,U1*%
X61148000Y-64945500D03*
X59248000Y-64945500D03*
X60198000Y-63070500D03*
%TD*%
D18*
%TO.C,U2*%
X73660000Y-77535000D03*
X74930000Y-77535000D03*
X76200000Y-77535000D03*
X77470000Y-77535000D03*
X77470000Y-82485000D03*
X76200000Y-82485000D03*
X74930000Y-82485000D03*
X73660000Y-82485000D03*
%TD*%
%TO.C,U3*%
X73660000Y-97855000D03*
X74930000Y-97855000D03*
X76200000Y-97855000D03*
X77470000Y-97855000D03*
X77470000Y-102805000D03*
X76200000Y-102805000D03*
X74930000Y-102805000D03*
X73660000Y-102805000D03*
%TD*%
%TO.C,U4*%
X73660000Y-118175000D03*
X74930000Y-118175000D03*
X76200000Y-118175000D03*
X77470000Y-118175000D03*
X77470000Y-123125000D03*
X76200000Y-123125000D03*
X74930000Y-123125000D03*
X73660000Y-123125000D03*
%TD*%
%TO.C,U5*%
X73660000Y-137795000D03*
X74930000Y-137795000D03*
X76200000Y-137795000D03*
X77470000Y-137795000D03*
X77470000Y-142745000D03*
X76200000Y-142745000D03*
X74930000Y-142745000D03*
X73660000Y-142745000D03*
%TD*%
D19*
%TO.C,U6*%
X83885000Y-149225000D03*
X83885000Y-147955000D03*
X83885000Y-146685000D03*
X83885000Y-145415000D03*
X88835000Y-145415000D03*
X88835000Y-146685000D03*
X88835000Y-147955000D03*
X88835000Y-149225000D03*
%TD*%
%TO.C,U7*%
X60390000Y-150114000D03*
X60390000Y-148844000D03*
X60390000Y-147574000D03*
X60390000Y-146304000D03*
X65340000Y-146304000D03*
X65340000Y-147574000D03*
X65340000Y-148844000D03*
X65340000Y-150114000D03*
%TD*%
D16*
%TO.C,C9*%
X70252500Y-153162000D03*
X68177500Y-153162000D03*
%TD*%
M02*
