<svg height="254.8933mm" viewBox="47.8 35.027332 80.200005 60.516666" width="324.0001mm" xmlns="http://www.w3.org/2000/svg">
<svg xmlns="http://www.w3.org/2000/svg">
<text dominant-baseline="auto" fill="rgba(5, 105, 12, 255)" font-family="osifont" font-size="1.27pt" text-anchor="end" transform="translate(49.8,50.8) rotate(180)">
Vin
</text>
<path d="M50.8,50.8 L53.34,50.8" fill="none" stroke="rgba(0, 150, 0, 255)" stroke-width="0.35"/>
<text dominant-baseline="middle" fill="rgba(5, 105, 12, 255)" font-family="osifont" font-size="1.27pt" text-anchor="middle" transform="translate(57.15,46.034) rotate(90)">
R1
</text>
<text dominant-baseline="middle" fill="rgba(5, 105, 12, 255)" font-family="osifont" font-size="1.27pt" text-anchor="middle" transform="translate(57.15,48.534) rotate(90)">
100k
</text>
<rect fill="none" height="2.03" stroke="rgba(132, 0, 0, 255)" stroke-width="0.35" width="5.08" x="54.61" y="49.78"/>
<path d="M53.34,50.8 L54.61,50.8" fill="none" stroke="rgba(132, 0, 0, 255)" stroke-width="0.35"/>
<path d="M60.960003,50.8 L59.690002,50.8" fill="none" stroke="rgba(132, 0, 0, 255)" stroke-width="0.35"/>
<circle cx="60.960003" cy="50.8" fill="rgba(0, 150, 0, 255)" r="0.6" stroke="rgba(0, 150, 0, 255)" stroke-width="0.1"/>
<text dominant-baseline="middle" fill="rgba(5, 105, 12, 255)" font-family="osifont" font-size="1.27pt" text-anchor="middle" transform="translate(68.58,44.510002)">
U1
</text>
<text dominant-baseline="middle" fill="rgba(5, 105, 12, 255)" font-family="osifont" font-size="1.27pt" text-anchor="middle" transform="translate(68.58,47.010002)">
TL072
</text>
<path d="M63.5,58.42 L73.66,53.34 L63.5,48.260002 L63.5,58.42" fill="rgba(255, 255, 194, 255)" stroke="rgba(132, 0, 0, 255)" stroke-width="0.35"/>
<path d="M76.200005,53.34 L73.66,53.34" fill="none" stroke="rgba(132, 0, 0, 255)" stroke-width="0.35"/>
<text dominant-baseline="middle" fill="rgba(132, 0, 0, 255)" font-family="osifont" font-size="0.25pt" text-anchor="middle" transform="translate(74.93001,52.59)">
1
</text>
<path d="M60.960003,50.8 L63.5,50.8" fill="none" stroke="rgba(132, 0, 0, 255)" stroke-width="0.35"/>
<text dominant-baseline="middle" fill="rgba(132, 0, 0, 255)" font-family="osifont" font-size="0.25pt" text-anchor="middle" transform="translate(62.230003,50.05)">
2
</text>
<text dominant-baseline="middle" fill="rgba(132, 0, 0, 255)" font-family="osifont" font-size="0.35pt" text-anchor="middle" transform="translate(61.087,50.8)">
-
</text>
<path d="M60.960003,55.88 L63.5,55.88" fill="none" stroke="rgba(132, 0, 0, 255)" stroke-width="0.35"/>
<text dominant-baseline="middle" fill="rgba(132, 0, 0, 255)" font-family="osifont" font-size="0.25pt" text-anchor="middle" transform="translate(62.230003,55.13)">
3
</text>
<text dominant-baseline="middle" fill="rgba(132, 0, 0, 255)" font-family="osifont" font-size="0.35pt" text-anchor="middle" transform="translate(61.087,55.88)">
+
</text>
<circle cx="76.200005" cy="53.34" fill="rgba(0, 150, 0, 255)" r="0.6" stroke="rgba(0, 150, 0, 255)" stroke-width="0.1"/>
<path d="M76.200005,53.34 L76.200005,40.64" fill="none" stroke="rgba(0, 150, 0, 255)" stroke-width="0.35"/>
<path d="M76.200005,40.64 L72.39001,40.64" fill="none" stroke="rgba(0, 150, 0, 255)" stroke-width="0.35"/>
<path d="M60.960003,40.64 L64.770004,40.64" fill="none" stroke="rgba(0, 150, 0, 255)" stroke-width="0.35"/>
<text dominant-baseline="middle" fill="rgba(5, 105, 12, 255)" font-family="osifont" font-size="1.27pt" text-anchor="middle" transform="translate(68.58001,35.874) rotate(90)">
R2
</text>
<text dominant-baseline="middle" fill="rgba(5, 105, 12, 255)" font-family="osifont" font-size="1.27pt" text-anchor="middle" transform="translate(68.58001,38.374) rotate(90)">
100k
</text>
<rect fill="none" height="2.03" stroke="rgba(132, 0, 0, 255)" stroke-width="0.35" width="5.08" x="66.04" y="39.62"/>
<path d="M72.39001,40.64 L71.12001,40.64" fill="none" stroke="rgba(132, 0, 0, 255)" stroke-width="0.35"/>
<path d="M64.77001,40.64 L66.04001,40.64" fill="none" stroke="rgba(132, 0, 0, 255)" stroke-width="0.35"/>
<path d="M60.960003,40.64 L60.960003,50.8" fill="none" stroke="rgba(0, 150, 0, 255)" stroke-width="0.35"/>
<text dominant-baseline="middle" fill="rgba(5, 105, 12, 255)" font-family="osifont" font-size="1.27pt" text-anchor="middle" transform="translate(60.960003,59.670002)">
GND
</text>
<path d="M60.960003,55.88 L60.960003,57.15 L62.230003,57.15 L60.960003,58.420002 L59.690002,57.15 L60.960003,57.15" fill="none" stroke="rgba(132, 0, 0, 255)" stroke-width="0.35"/>
<path d="M60.960003,55.88 L60.960003,55.88" fill="none" stroke="rgba(132, 0, 0, 255)" stroke-width="0.35"/>
<text dominant-baseline="auto" fill="rgba(5, 105, 12, 255)" font-family="osifont" font-size="1.27pt" text-anchor="start" transform="translate(77.200005,53.34)">
Vout
</text>
</svg>
</svg>